<svg width="50" height="65" viewBox="0 0 50 65" fill="none" xmlns="http://www.w3.org/2000/svg">
<g clip-path="url(#clip0_433_12)">
<path d="M10.691 36.2371C10.5538 36.2371 10.4185 36.2058 10.2953 36.1455C10.1721 36.0851 10.0643 35.9975 9.98011 35.8891C7.40842 32.5821 6.03945 28.498 6.09851 24.3092C6.15758 20.1204 7.64115 16.0765 10.3051 12.8433C12.969 9.61017 16.6543 7.38043 20.7545 6.5212C24.8547 5.66197 29.1252 6.22447 32.863 8.1161C33.042 8.20833 33.185 8.35792 33.2689 8.54094C33.3529 8.72397 33.3729 8.92985 33.3261 9.12566C33.2792 9.32148 33.168 9.49592 33.0103 9.62108C32.8525 9.74625 32.6574 9.81492 32.4561 9.8161C32.3167 9.81461 32.1798 9.78035 32.0562 9.7161C29.7285 8.54128 27.1585 7.92693 24.5512 7.9221C21.4377 7.92544 18.3874 8.80156 15.7467 10.451C13.106 12.1004 10.9807 14.4571 9.61182 17.2536C8.24297 20.05 7.68541 23.1742 8.00257 26.2715C8.31973 29.3688 9.49892 32.3151 11.4061 34.7761C11.4788 34.8694 11.5324 34.9762 11.5638 35.0903C11.5953 35.2043 11.6039 35.3235 11.5892 35.4409C11.5746 35.5583 11.5368 35.6716 11.4783 35.7744C11.4197 35.8773 11.3415 35.9675 11.248 36.0401C11.0902 36.1671 10.8937 36.2366 10.691 36.2371Z" fill="white"/>
<path d="M24.5308 43.0131C20.4392 43.0279 16.4616 41.6651 13.2388 39.1441C13.0905 39.0289 12.9818 38.8702 12.9282 38.6902C12.8745 38.5103 12.8784 38.318 12.9395 38.1404C13.0006 37.9628 13.1157 37.8087 13.2687 37.6998C13.4218 37.5909 13.605 37.5326 13.7928 37.5331C13.9929 37.5327 14.1873 37.5996 14.3448 37.7231C17.252 39.9971 20.8399 41.2264 24.5308 41.2131C27.374 41.2161 30.1706 40.4907 32.6538 39.1059C35.1369 37.7211 37.2238 35.7232 38.7155 33.3027C40.2072 30.8822 41.0538 28.1199 41.1746 25.2793C41.2955 22.4387 40.6866 19.6145 39.4058 17.0761C39.3525 16.9704 39.3205 16.8552 39.3117 16.7371C39.303 16.6191 39.3176 16.5005 39.3548 16.3881C39.392 16.2757 39.4509 16.1717 39.5283 16.0821C39.6057 15.9926 39.7 15.9191 39.8059 15.8661C39.9115 15.8127 40.0267 15.7808 40.1447 15.772C40.2628 15.7632 40.3814 15.7779 40.4938 15.815C40.6062 15.8522 40.7102 15.9111 40.7998 15.9885C40.8893 16.0659 40.9627 16.1602 41.0158 16.2661C42.4356 19.079 43.111 22.2088 42.9774 25.3569C42.8438 28.505 41.9057 31.5663 40.2528 34.2488C38.5998 36.9313 36.2869 39.1455 33.535 40.6802C30.783 42.2148 27.6837 43.0187 24.5328 43.0151L24.5308 43.0131Z" fill="white"/>
<path d="M37.703 13.874C37.5757 13.8746 37.4496 13.8482 37.3332 13.7965C37.2169 13.7448 37.1128 13.669 37.0279 13.574C36.8009 13.317 36.5609 13.062 36.3149 12.815C36.0689 12.568 35.8149 12.329 35.5559 12.101C35.377 11.9428 35.2683 11.7201 35.2536 11.4817C35.239 11.2433 35.3197 11.0089 35.4779 10.83C35.6361 10.6512 35.8589 10.5424 36.0973 10.5278C36.3356 10.5132 36.57 10.5938 36.7489 10.7521C37.0349 11.0051 37.318 11.2711 37.589 11.5421C37.86 11.8131 38.1249 12.095 38.3789 12.382C38.4949 12.5117 38.5709 12.6723 38.5975 12.8443C38.6242 13.0162 38.6004 13.1922 38.529 13.3509C38.4577 13.5097 38.3419 13.6443 38.1957 13.7386C38.0494 13.8328 37.8789 13.8827 37.7049 13.882L37.703 13.874Z" fill="white"/>
<path d="M35.6008 64.9619C35.5728 64.9619 35.5447 64.9619 35.5157 64.9619C35.3572 64.947 35.2054 64.8902 35.0759 64.7975C34.9464 64.7047 34.8439 64.5792 34.7788 64.4339L27.4318 48.0439L26.3528 48.7019C25.8243 49.0258 25.2166 49.1973 24.5968 49.1973C23.977 49.1973 23.3693 49.0258 22.8408 48.7019L21.7948 48.0639L14.4568 64.4339C14.3916 64.5794 14.2888 64.7049 14.1592 64.7977C14.0295 64.8905 13.8775 64.9471 13.7188 64.9619C13.6907 64.9619 13.6628 64.9619 13.6348 64.9619C13.4898 64.9619 13.3471 64.9269 13.2186 64.8598C13.0901 64.7928 12.9797 64.6957 12.8967 64.5769L9.5498 59.7769L3.73877 60.4719C3.58061 60.4908 3.42033 60.4674 3.27417 60.4041C3.12801 60.3407 3.00122 60.2398 2.90686 60.1114C2.8125 59.9831 2.75394 59.832 2.73706 59.6736C2.72018 59.5153 2.7456 59.3552 2.81079 59.2099L10.0007 43.1719L8.80078 42.8809C8.19756 42.7364 7.64613 42.4278 7.20752 41.9892C6.76891 41.5506 6.46027 40.9991 6.3158 40.3959L5.70581 37.8739C5.61849 37.5124 5.40581 37.1935 5.10571 36.9739L3.00574 35.4499C2.50219 35.0856 2.10957 34.5888 1.87158 34.0146C1.6336 33.4405 1.55956 32.8116 1.65771 32.1979L2.05774 29.6369C2.11536 29.2688 2.04067 28.8921 1.8468 28.5739L0.494751 26.3569C0.17093 25.8284 -0.000488281 25.2207 -0.000488281 24.6009C-0.000488281 23.9811 0.17093 23.3734 0.494751 22.8449L1.8468 20.6269C2.04067 20.3087 2.11536 19.932 2.05774 19.5639L1.65771 17.0019C1.55967 16.3882 1.63385 15.7593 1.87183 15.1852C2.1098 14.6111 2.50228 14.1143 3.00574 13.7499L5.10571 12.2259C5.40581 12.0062 5.61849 11.6874 5.70581 11.3259L6.3158 8.80389C6.46027 8.20067 6.76891 7.64921 7.20752 7.2106C7.64613 6.77199 8.19756 6.46336 8.80078 6.31889L11.3228 5.70889C11.6841 5.62125 12.0029 5.40874 12.2228 5.10889L13.7468 3.00889C14.0592 2.57963 14.4683 2.23006 14.941 1.98855C15.4138 1.74704 15.9369 1.62039 16.4678 1.61889C16.6456 1.6191 16.8231 1.63314 16.9988 1.66089L19.5598 2.06089C19.928 2.11878 20.3047 2.044 20.6228 1.84989L22.8408 0.494889C23.3693 0.170959 23.977 -0.000488281 24.5968 -0.000488281C25.2166 -0.000488281 25.8243 0.170959 26.3528 0.494889L28.5708 1.84789C28.889 2.04192 29.2656 2.11669 29.6338 2.05889L32.1958 1.65889C32.3714 1.63116 32.549 1.61712 32.7268 1.61689C33.2577 1.61839 33.7806 1.74504 34.2534 1.98655C34.7262 2.22806 35.1354 2.57763 35.4478 3.00689L36.9728 5.10689C37.1925 5.40693 37.5113 5.61949 37.8728 5.70689L40.3948 6.31689C40.998 6.46136 41.5494 6.76999 41.988 7.2086C42.4266 7.64721 42.7353 8.19867 42.8798 8.80189L43.4897 11.3239C43.5771 11.6853 43.7897 12.0042 44.0897 12.2239L46.1898 13.7479C46.693 14.1115 47.0855 14.6074 47.324 15.1805C47.5625 15.7537 47.6375 16.3817 47.5408 16.9949L47.1407 19.5559C47.0832 19.924 47.158 20.3006 47.3518 20.6189L48.7037 22.8359C49.0276 23.3644 49.199 23.9721 49.199 24.5919C49.199 25.2117 49.0276 25.8194 48.7037 26.3479L47.3508 28.5659C47.157 28.8841 47.0821 29.2608 47.1398 29.6289L47.5398 32.1909C47.638 32.8046 47.5639 33.4335 47.3259 34.0076C47.0879 34.5818 46.6953 35.0786 46.1918 35.4429L44.0918 36.9669C43.7916 37.1865 43.5791 37.5054 43.4918 37.8669L42.8817 40.3889C42.7371 40.9922 42.4283 41.5437 41.9895 41.9823C41.5507 42.4209 40.9991 42.7295 40.3958 42.8739L39.2338 43.1549L46.4277 59.2019C46.4894 59.339 46.5157 59.4894 46.5043 59.6394C46.4928 59.7893 46.4441 59.934 46.3623 60.0602C46.2806 60.1864 46.1684 60.2901 46.0363 60.3618C45.9041 60.4336 45.7561 60.4711 45.6057 60.4709C45.57 60.471 45.5343 60.469 45.4988 60.4649L39.6877 59.7699L36.3408 64.5699C36.2585 64.6903 36.1481 64.7889 36.0192 64.8572C35.8903 64.9255 35.7467 64.9614 35.6008 64.9619ZM9.97974 57.9179C10.1247 57.9179 10.2675 57.9529 10.396 58.0199C10.5245 58.087 10.6348 58.184 10.7178 58.3029L13.4647 62.2419L20.2238 47.1649L20.0608 47.1379C19.9742 47.1234 19.8866 47.1161 19.7988 47.1159C19.7191 47.1157 19.6395 47.1217 19.5608 47.1339L16.9988 47.5339C16.8258 47.5612 16.651 47.5749 16.4758 47.5749C16.32 47.5748 16.1642 47.5641 16.0098 47.5429L15.9158 47.5299L12.4708 55.2139C12.4225 55.3218 12.3534 55.4191 12.2675 55.5003C12.1815 55.5814 12.0804 55.6449 11.97 55.687C11.8595 55.7291 11.7418 55.749 11.6237 55.7457C11.5055 55.7423 11.3891 55.7157 11.2812 55.6674C11.1734 55.6191 11.076 55.55 10.9949 55.464C10.9137 55.3781 10.8503 55.277 10.8082 55.1666C10.7661 55.0561 10.7461 54.9384 10.7495 54.8203C10.7529 54.7021 10.7794 54.5858 10.8278 54.4779L14.2838 46.7689L14.2147 46.7069C14.0413 46.5497 13.8846 46.3751 13.7468 46.1859L12.2218 44.0859C12.1265 43.9552 12.0114 43.8402 11.8807 43.7449L11.7538 43.6519L5.10376 58.4869L9.87183 57.9169C9.90748 57.9151 9.94412 57.9154 9.97974 57.9179ZM29.3958 47.1179C29.3225 47.118 29.2493 47.123 29.1768 47.1329L29.0078 47.1559L35.7708 62.2439L38.5178 58.3049C38.6112 58.1709 38.7392 58.0649 38.8882 57.9981C39.0372 57.9313 39.2016 57.9064 39.3638 57.9259L44.1317 58.4959L37.4728 43.6419L37.3468 43.7299C37.2017 43.8302 37.0746 43.9543 36.9708 44.0969L35.4468 46.1969C35.317 46.375 35.1703 46.5401 35.0088 46.6899L34.9418 46.7519L38.4098 54.4889C38.4582 54.5968 38.4849 54.7131 38.4883 54.8313C38.4917 54.9495 38.4718 55.0672 38.4297 55.1777C38.3876 55.2882 38.3242 55.3893 38.243 55.4753C38.1619 55.5613 38.0647 55.6305 37.9568 55.6789C37.8489 55.7273 37.7326 55.754 37.6144 55.7574C37.4962 55.7608 37.3784 55.7409 37.2679 55.6988C37.1574 55.6568 37.0563 55.5934 36.9703 55.5122C36.8843 55.4311 36.8151 55.3338 36.7667 55.2259L33.3187 47.5349L33.2188 47.5489C33.0509 47.574 32.8815 47.5867 32.7118 47.5869C32.537 47.5868 32.3625 47.5731 32.1898 47.5459L29.6288 47.1459C29.5517 47.1299 29.4734 47.1199 29.3948 47.1159L29.3958 47.1179ZM19.8027 45.3179C20.4226 45.3177 21.0306 45.4882 21.5598 45.8109L23.7778 47.1629C24.0242 47.3137 24.3074 47.3935 24.5963 47.3935C24.8852 47.3935 25.1684 47.3137 25.4148 47.1629L27.6317 45.8109C28.3146 45.3949 29.1229 45.2348 29.9127 45.3589L32.4738 45.7589C32.5558 45.7716 32.6388 45.778 32.7218 45.7779C32.9694 45.7773 33.2133 45.7183 33.4338 45.6057C33.6543 45.4931 33.8451 45.3301 33.9907 45.1299L35.5148 43.0299C35.9861 42.3829 36.6719 41.9243 37.4498 41.7359L39.9718 41.1259C40.253 41.0585 40.5101 40.9145 40.7145 40.7099C40.9189 40.5053 41.0626 40.2482 41.1298 39.9669L41.7397 37.4449C41.9283 36.6673 42.387 35.9819 43.0338 35.5109L45.1338 33.9859C45.3684 33.816 45.5514 33.5844 45.6622 33.3167C45.7731 33.0491 45.8075 32.7559 45.7617 32.4699L45.3618 29.9079C45.2381 29.1184 45.3982 28.3105 45.8137 27.6279L47.1658 25.4099C47.3168 25.1636 47.3967 24.8803 47.3967 24.5914C47.3967 24.3025 47.3168 24.0192 47.1658 23.7729L45.8137 21.5559C45.3979 20.873 45.2378 20.0648 45.3618 19.2749L45.7617 16.7139C45.8076 16.4278 45.7732 16.1346 45.6624 15.867C45.5515 15.5993 45.3685 15.3677 45.1338 15.1979L43.0338 13.6739C42.3867 13.2027 41.928 12.5169 41.7397 11.7389L41.1298 9.21689C41.0624 8.93554 40.9184 8.67834 40.7139 8.47377C40.5093 8.2692 40.2522 8.12526 39.9708 8.05789L37.4487 7.44789C36.6711 7.25938 35.9857 6.80079 35.5148 6.15389L33.9897 4.05389C33.8196 3.81949 33.588 3.63675 33.3204 3.52591C33.0529 3.41507 32.7598 3.38045 32.4738 3.42589L29.9117 3.82589C29.1219 3.95018 28.3135 3.79 27.6307 3.37389L25.4127 2.02189C25.1663 1.8711 24.8831 1.79131 24.5942 1.79131C24.3054 1.79131 24.0221 1.8711 23.7758 2.02189L21.5608 3.38489C20.8781 3.80117 20.0697 3.96136 19.2798 3.83689L16.7188 3.43689C16.4327 3.39133 16.1397 3.4259 15.8721 3.53675C15.6045 3.6476 15.3728 3.8304 15.2028 4.06489L13.6787 6.16489C13.2075 6.81198 12.5218 7.2706 11.7438 7.45889L9.2218 8.06889C8.94059 8.13632 8.68352 8.2803 8.47913 8.48487C8.27473 8.68944 8.13091 8.94662 8.06372 9.22789L7.45374 11.7499C7.26506 12.5275 6.80656 13.2128 6.15979 13.6839L4.05981 15.2089C3.82524 15.3788 3.64235 15.6105 3.53149 15.8781C3.42063 16.1457 3.38609 16.4388 3.43176 16.7249L3.83179 19.2869C3.95566 20.0764 3.79547 20.8843 3.37976 21.5669L2.02783 23.7849C1.87672 24.0312 1.79663 24.3145 1.79663 24.6034C1.79663 24.8923 1.87672 25.1756 2.02783 25.4219L3.37976 27.6389C3.79579 28.3217 3.95599 29.13 3.83179 29.9199L3.43176 32.4809C3.38597 32.7669 3.42038 33.0601 3.53125 33.3277C3.64212 33.5954 3.82516 33.827 4.05981 33.9969L6.15979 35.5209C6.80676 35.9922 7.26528 36.678 7.45374 37.4559L8.06372 39.9779C8.13091 40.2592 8.27473 40.5163 8.47913 40.7209C8.68352 40.9255 8.94059 41.0695 9.2218 41.1369L11.7438 41.7469C12.5217 41.9353 13.2075 42.3939 13.6787 43.0409L15.2037 45.1409C15.3494 45.3411 15.5402 45.5041 15.7607 45.6167C15.9812 45.7293 16.2252 45.7883 16.4728 45.7889C16.5555 45.789 16.638 45.7826 16.7197 45.7699L19.2817 45.3699C19.4537 45.338 19.6279 45.3197 19.8027 45.3149V45.3179Z" fill="white"/>
<path d="M30.939 35.767C30.6418 35.7659 30.3499 35.6888 30.091 35.543L24.591 32.466L19.091 35.543C18.8323 35.6887 18.5408 35.7658 18.244 35.767C17.9886 35.7656 17.7365 35.7078 17.5059 35.5978C17.2753 35.4878 17.0719 35.3282 16.9101 35.1305C16.7482 34.9328 16.6321 34.7018 16.5698 34.454C16.5076 34.2062 16.5009 33.9477 16.5501 33.697L17.778 27.519L13.153 23.242C12.9106 23.0175 12.7377 22.7284 12.6544 22.4087C12.5712 22.089 12.5812 21.7522 12.6834 21.438C12.7855 21.1239 12.9754 20.8455 13.2307 20.6359C13.486 20.4263 13.796 20.2941 14.124 20.255L20.379 19.513L23.017 13.793C23.1555 13.4931 23.3771 13.2392 23.6554 13.0612C23.9337 12.8832 24.2572 12.7886 24.5875 12.7886C24.9179 12.7886 25.2414 12.8832 25.5197 13.0612C25.798 13.2392 26.0194 13.4931 26.158 13.793L28.796 19.513L35.051 20.255C35.3793 20.2939 35.6895 20.4261 35.945 20.6358C36.2004 20.8455 36.3904 21.124 36.4926 21.4383C36.5947 21.7527 36.6048 22.0897 36.5214 22.4095C36.438 22.7293 36.2646 23.0186 36.022 23.243L31.397 27.52L32.625 33.698C32.6742 33.9487 32.6674 34.2072 32.6051 34.455C32.5429 34.7028 32.4267 34.9338 32.2649 35.1315C32.1031 35.3292 31.8997 35.4888 31.6691 35.5988C31.4385 35.7088 31.1865 35.7666 30.931 35.768L30.939 35.767Z" fill="#FFA800"/>
</g>
<defs>
<clipPath id="clip0_433_12">
<rect width="49.193" height="64.962" fill="white"/>
</clipPath>
</defs>
</svg>
