<svg width="2854" height="383" viewBox="0 0 2854 383" fill="none" xmlns="http://www.w3.org/2000/svg">
<g clip-path="url(#clip0_675_18)">
<rect x="1513" width="1341" height="383" rx="100" fill="#F1142E"/>
<path d="M68.3807 298H6.59091L76.2074 87.0909H154.474L224.091 298H162.301L116.165 145.173H114.517L68.3807 298ZM56.8466 214.79H173.011V257.631H56.8466V214.79ZM244.404 298V87.0909H335.441C351.095 87.0909 364.791 90.1804 376.531 96.3594C388.271 102.538 397.403 111.223 403.925 122.414C410.447 133.605 413.708 146.684 413.708 161.651C413.708 176.755 410.344 189.834 403.616 200.887C396.956 211.941 387.585 220.454 375.502 226.427C363.487 232.4 349.447 235.386 333.382 235.386H279.007V190.898H321.847C328.576 190.898 334.308 189.731 339.046 187.396C343.852 184.993 347.525 181.595 350.065 177.201C352.674 172.807 353.978 167.624 353.978 161.651C353.978 155.609 352.674 150.46 350.065 146.203C347.525 141.878 343.852 138.582 339.046 136.317C334.308 133.982 328.576 132.815 321.847 132.815H301.663V298H244.404ZM463.166 298H401.376L470.993 87.0909H549.26L618.876 298H557.086L510.95 145.173H509.302L463.166 298ZM451.632 214.79H567.797V257.631H451.632V214.79ZM696.963 298V87.0909H754.221V172.361H757.105L820.542 87.0909H887.275L816.011 181.011L888.923 298H820.542L773.17 218.909L754.221 243.625V298H696.963ZM959.055 298H897.265L966.881 87.0909H1045.15L1114.76 298H1052.97L1006.84 145.173H1005.19L959.055 298ZM947.52 214.79H1063.69V257.631H947.52V214.79ZM1102.69 133.227V87.0909H1286V133.227H1222.56V298H1166.13V133.227H1102.69ZM1335.71 298H1273.92L1343.54 87.0909H1421.81L1491.42 298H1429.64L1383.5 145.173H1381.85L1335.71 298ZM1324.18 214.79H1440.35V257.631H1324.18V214.79Z" fill="#F1142E"/>
<path d="M1682.07 298H1620.28L1689.9 87.0909H1768.17L1837.78 298H1775.99L1729.86 145.173H1728.21L1682.07 298ZM1670.54 214.79H1786.7V257.631H1670.54V214.79ZM1858.1 298V87.0909H1915.35V251.864H2000.62V298H1858.1ZM2148.58 87.0909H2205.84V222.205C2205.84 238.27 2202 252.173 2194.31 263.913C2186.69 275.584 2176.05 284.612 2162.38 290.997C2148.72 297.313 2132.86 300.472 2114.81 300.472C2096.61 300.472 2080.68 297.313 2067.02 290.997C2053.36 284.612 2042.72 275.584 2035.1 263.913C2027.55 252.173 2023.77 238.27 2023.77 222.205V87.0909H2081.03V217.261C2081.03 223.784 2082.47 229.619 2085.35 234.768C2088.24 239.849 2092.22 243.831 2097.3 246.714C2102.45 249.598 2108.28 251.04 2114.81 251.04C2121.4 251.04 2127.23 249.598 2132.31 246.714C2137.39 243.831 2141.38 239.849 2144.26 234.768C2147.14 229.619 2148.58 223.784 2148.58 217.261V87.0909ZM2233.06 87.0909H2304.32L2353.34 206.551H2355.81L2404.83 87.0909H2476.1V298H2420.07V176.068H2418.43L2371.47 296.352H2337.69L2290.73 175.244H2289.08V298H2233.06V87.0909ZM2685.72 87.0909V298H2637.93L2561.73 187.19H2560.49V298H2503.23V87.0909H2551.84L2626.81 197.489H2628.46V87.0909H2685.72ZM2770.06 87.0909V298H2712.8V87.0909H2770.06Z" fill="white"/>
</g>
<defs>
<clipPath id="clip0_675_18">
<rect width="2854" height="383" fill="white"/>
</clipPath>
</defs>
</svg>
