<svg width="597" height="132" viewBox="0 0 597 132" fill="none" xmlns="http://www.w3.org/2000/svg">
<path d="M24.96 46.648H10.24V36.664C14.2507 36.664 17.4507 36.3227 19.84 35.64C22.3147 34.9573 24.2773 33.848 25.728 32.312C27.1787 30.6907 28.4587 28.3867 29.568 25.4H39.04V115H24.96V46.648ZM76.85 116.28C69.938 116.28 64.6473 114.317 60.978 110.392C57.3087 106.467 55.474 100.92 55.474 93.752V46.648C55.474 39.48 57.3087 33.9333 60.978 30.008C64.6473 26.0827 69.938 24.12 76.85 24.12C83.762 24.12 89.0527 26.0827 92.722 30.008C96.3913 33.9333 98.226 39.48 98.226 46.648V93.752C98.226 100.92 96.3913 106.467 92.722 110.392C89.0527 114.317 83.762 116.28 76.85 116.28ZM76.85 103.48C81.714 103.48 84.146 100.536 84.146 94.648V45.752C84.146 39.864 81.714 36.92 76.85 36.92C71.986 36.92 69.554 39.864 69.554 45.752V94.648C69.554 100.536 71.986 103.48 76.85 103.48ZM128.1 116.28C121.188 116.28 115.897 114.317 112.228 110.392C108.559 106.467 106.724 100.92 106.724 93.752V46.648C106.724 39.48 108.559 33.9333 112.228 30.008C115.897 26.0827 121.188 24.12 128.1 24.12C135.012 24.12 140.303 26.0827 143.972 30.008C147.641 33.9333 149.476 39.48 149.476 46.648V93.752C149.476 100.92 147.641 106.467 143.972 110.392C140.303 114.317 135.012 116.28 128.1 116.28ZM128.1 103.48C132.964 103.48 135.396 100.536 135.396 94.648V45.752C135.396 39.864 132.964 36.92 128.1 36.92C123.236 36.92 120.804 39.864 120.804 45.752V94.648C120.804 100.536 123.236 103.48 128.1 103.48ZM171.798 75.192C167.361 75.192 163.99 73.9547 161.686 71.48C159.382 69.0053 158.23 65.464 158.23 60.856V38.456C158.23 33.848 159.382 30.3067 161.686 27.832C163.99 25.3573 167.361 24.12 171.798 24.12C176.235 24.12 179.606 25.3573 181.91 27.832C184.214 30.3067 185.366 33.848 185.366 38.456V60.856C185.366 65.464 184.214 69.0053 181.91 71.48C179.606 73.9547 176.235 75.192 171.798 75.192ZM204.31 25.4H213.27L178.582 115H169.622L204.31 25.4ZM171.798 67.128C174.87 67.128 176.406 65.2507 176.406 61.496V37.816C176.406 34.0613 174.87 32.184 171.798 32.184C168.726 32.184 167.19 34.0613 167.19 37.816V61.496C167.19 65.2507 168.726 67.128 171.798 67.128ZM211.094 116.28C206.657 116.28 203.286 115.043 200.982 112.568C198.678 110.093 197.526 106.552 197.526 101.944V79.544C197.526 74.936 198.678 71.3947 200.982 68.92C203.286 66.4453 206.657 65.208 211.094 65.208C215.531 65.208 218.902 66.4453 221.206 68.92C223.51 71.3947 224.662 74.936 224.662 79.544V101.944C224.662 106.552 223.51 110.093 221.206 112.568C218.902 115.043 215.531 116.28 211.094 116.28ZM211.094 108.216C214.166 108.216 215.702 106.339 215.702 102.584V78.904C215.702 75.1493 214.166 73.272 211.094 73.272C208.022 73.272 206.486 75.1493 206.486 78.904V102.584C206.486 106.339 208.022 108.216 211.094 108.216Z" fill="url(#paint0_linear_420_21)"/>
<path d="M288.368 51.776L288.656 52.208L288.32 56H270.128L270.464 46.736L270.128 25.184H288.416L288.704 25.616L288.32 29.408L281.024 29.216L275.168 29.264L275.024 38.24L280.592 38.336L285.68 38.192L286.016 38.576L285.632 42.368L280.208 42.224L274.976 42.32L274.928 46.304L275.072 51.968L280.928 52.016L288.368 51.776ZM318.28 46.784L318.424 56H313.096L298.6 32.912H298.264L298.216 45.68L298.36 56H293.848L294.088 46.88L293.896 25.184H299.128L313.672 48.272H314.056L313.96 25.424L318.568 25.088L318.28 46.784ZM335.871 24.848C338.303 24.848 340.735 25.36 343.167 26.384L342.351 30.896L341.583 31.184C340.559 30.448 339.503 29.872 338.415 29.456C337.327 29.04 336.287 28.832 335.295 28.832C333.727 28.832 332.479 29.264 331.551 30.128C330.623 30.992 330.159 32 330.159 33.152C330.159 34.272 330.623 35.2 331.551 35.936C332.479 36.64 333.935 37.456 335.919 38.384C337.647 39.216 339.039 39.968 340.095 40.64C341.183 41.312 342.111 42.208 342.879 43.328C343.647 44.416 344.031 45.728 344.031 47.264C344.031 48.928 343.567 50.464 342.639 51.872C341.743 53.248 340.463 54.352 338.799 55.184C337.167 55.984 335.295 56.384 333.183 56.384C331.775 56.384 330.319 56.208 328.815 55.856C327.311 55.504 325.887 54.992 324.543 54.32L325.167 49.424L325.791 49.136C326.975 50.256 328.271 51.104 329.679 51.68C331.119 52.224 332.447 52.496 333.663 52.496C335.327 52.496 336.655 52.064 337.647 51.2C338.639 50.304 339.135 49.248 339.135 48.032C339.135 46.816 338.655 45.84 337.695 45.104C336.735 44.336 335.263 43.488 333.279 42.56C331.583 41.76 330.207 41.04 329.151 40.4C328.095 39.728 327.183 38.848 326.415 37.76C325.679 36.672 325.311 35.36 325.311 33.824C325.311 32.16 325.759 30.64 326.655 29.264C327.551 27.888 328.799 26.816 330.399 26.048C331.999 25.248 333.823 24.848 335.871 24.848ZM372.802 40.832L372.754 44.48C372.818 48.256 371.794 51.184 369.682 53.264C367.57 55.344 364.578 56.384 360.706 56.384C356.962 56.384 354.098 55.392 352.114 53.408C350.13 51.392 349.17 48.544 349.234 44.864L349.33 40.592L349.234 25.184H354.13L353.938 44.192C353.906 46.88 354.482 48.88 355.666 50.192C356.85 51.504 358.642 52.16 361.042 52.16C365.842 52.16 368.226 49.664 368.194 44.672L367.954 25.184H372.946L372.802 40.832ZM394.443 43.664C396.619 47.152 399.195 50.88 402.171 54.848L402.123 55.424C400.587 55.936 399.003 56.272 397.371 56.432L396.795 56.048C394.139 51.696 391.995 48.016 390.363 45.008H385.131V46.304L385.371 56H380.331L380.667 46.736L380.331 25.184L390.795 25.136C393.899 25.136 396.299 25.92 397.995 27.488C399.691 29.024 400.539 31.232 400.539 34.112C400.539 36.16 399.995 38.016 398.907 39.68C397.851 41.312 396.363 42.64 394.443 43.664ZM385.227 40.976L390.507 41.12C393.739 40.128 395.355 37.92 395.355 34.496C395.355 32.704 394.859 31.36 393.867 30.464C392.907 29.568 391.435 29.088 389.451 29.024L385.371 29.168L385.227 40.976ZM425.946 51.776L426.234 52.208L425.898 56H407.706L408.042 46.736L407.706 25.184H425.994L426.282 25.616L425.898 29.408L418.602 29.216L412.746 29.264L412.602 38.24L418.17 38.336L423.258 38.192L423.594 38.576L423.21 42.368L417.786 42.224L412.554 42.32L412.506 46.304L412.65 51.968L418.506 52.016L425.946 51.776ZM440.402 24.848C442.834 24.848 445.266 25.36 447.698 26.384L446.882 30.896L446.114 31.184C445.09 30.448 444.034 29.872 442.946 29.456C441.858 29.04 440.818 28.832 439.826 28.832C438.258 28.832 437.01 29.264 436.082 30.128C435.154 30.992 434.69 32 434.69 33.152C434.69 34.272 435.154 35.2 436.082 35.936C437.01 36.64 438.466 37.456 440.45 38.384C442.178 39.216 443.57 39.968 444.626 40.64C445.714 41.312 446.642 42.208 447.41 43.328C448.178 44.416 448.562 45.728 448.562 47.264C448.562 48.928 448.098 50.464 447.17 51.872C446.274 53.248 444.994 54.352 443.33 55.184C441.698 55.984 439.826 56.384 437.714 56.384C436.306 56.384 434.85 56.208 433.346 55.856C431.842 55.504 430.418 54.992 429.074 54.32L429.698 49.424L430.322 49.136C431.506 50.256 432.802 51.104 434.21 51.68C435.65 52.224 436.978 52.496 438.194 52.496C439.858 52.496 441.186 52.064 442.178 51.2C443.17 50.304 443.666 49.248 443.666 48.032C443.666 46.816 443.186 45.84 442.226 45.104C441.266 44.336 439.794 43.488 437.81 42.56C436.114 41.76 434.738 41.04 433.682 40.4C432.626 39.728 431.714 38.848 430.946 37.76C430.21 36.672 429.842 35.36 429.842 33.824C429.842 32.16 430.29 30.64 431.186 29.264C432.082 27.888 433.33 26.816 434.93 26.048C436.53 25.248 438.354 24.848 440.402 24.848Z" fill="#24245A"/>
<path d="M288.368 103.776L288.656 104.208L288.32 108H270.128L270.464 98.736L270.128 77.184H288.416L288.704 77.616L288.32 81.408L281.024 81.216L275.168 81.264L275.024 90.24L280.592 90.336L285.68 90.192L286.016 90.576L285.632 94.368L280.208 94.224L274.976 94.32L274.928 98.304L275.072 103.968L280.928 104.016L288.368 103.776ZM325.048 108H320.632L320.008 98.64L318.568 84.72H318.232L310.312 104.592H306.376L299.032 84.72H298.6L297.16 98.208L296.392 108H292.216L295.432 77.184H301.096L302.536 81.792L308.44 98.16H308.824L315.064 81.648L316.504 77.184H322.12L325.048 108ZM342.28 77.136C345.384 77.136 347.768 77.936 349.432 79.536C351.128 81.104 351.976 83.376 351.976 86.352C351.976 89.808 350.904 92.544 348.76 94.56C346.648 96.576 343.736 97.584 340.023 97.584H336.616V98.304L336.856 108H331.816L332.152 98.736L331.816 77.184L342.28 77.136ZM341.464 93.744C343.224 93.392 344.552 92.64 345.448 91.488C346.376 90.304 346.84 88.736 346.84 86.784C346.84 84.864 346.344 83.44 345.352 82.512C344.392 81.584 342.92 81.088 340.936 81.024L336.856 81.168L336.664 93.648L341.464 93.744ZM373.536 104.304L373.152 108H357.312L357.648 98.736L357.312 77.184H362.4L362.112 98.304L362.208 103.872H373.2L373.536 104.304ZM387.775 76.8C392.031 76.8 395.311 78.112 397.615 80.736C399.919 83.36 401.071 87.104 401.071 91.968C401.071 97.216 399.839 101.28 397.375 104.16C394.911 107.008 391.407 108.432 386.863 108.432C382.639 108.432 379.375 107.088 377.071 104.4C374.799 101.68 373.663 97.84 373.663 92.88C373.663 87.728 374.879 83.76 377.311 80.976C379.775 78.192 383.263 76.8 387.775 76.8ZM387.391 80.832C384.479 80.832 382.303 81.776 380.863 83.664C379.455 85.52 378.751 88.4 378.751 92.304C378.751 96.56 379.439 99.68 380.815 101.664C382.223 103.616 384.383 104.592 387.295 104.592C390.239 104.592 392.415 103.648 393.823 101.76C395.231 99.872 395.935 96.928 395.935 92.928C395.935 88.736 395.231 85.68 393.823 83.76C392.447 81.808 390.303 80.832 387.391 80.832ZM415.738 99.168L415.93 108H410.986L411.226 99.168L411.178 97.296L401.434 77.184H406.714L407.338 79.104L413.434 92.016H413.818L420.586 79.2L421.354 77.184H426.49L415.786 97.056L415.738 99.168ZM451.702 108H446.614L445.894 104.544L444.55 100.272L438.022 100.128L432.118 100.272L430.678 104.304L429.91 108H424.966L435.958 77.184H441.766L451.702 108ZM443.302 96.24L438.886 82.032H438.549L433.51 96.24L438.358 96.336L443.302 96.24ZM471.137 91.968C473.281 92.416 474.865 93.264 475.889 94.512C476.945 95.728 477.473 97.344 477.473 99.36C477.473 105.248 473.073 108.192 464.273 108.192C461.233 108.192 458.737 108.128 456.785 108H456.737L457.073 98.736L456.737 77.184L466.337 77.136C469.313 77.136 471.617 77.792 473.249 79.104C474.913 80.384 475.745 82.256 475.745 84.72C475.745 86.448 475.345 87.936 474.545 89.184C473.745 90.4 472.609 91.328 471.137 91.968ZM470.657 85.296C470.657 83.76 470.225 82.656 469.361 81.984C468.497 81.312 467.041 80.976 464.993 80.976H461.729L461.585 90.432L466.529 90.576C467.937 90.224 468.977 89.632 469.649 88.8C470.321 87.936 470.657 86.768 470.657 85.296ZM465.089 104.352C467.457 104.352 469.281 103.904 470.561 103.008C471.841 102.112 472.481 100.8 472.481 99.072C472.481 96.32 470.705 94.704 467.153 94.224L461.537 94.272L461.489 98.304L461.633 104.208C462.881 104.304 464.033 104.352 465.089 104.352ZM488.116 98.304L488.356 108H483.316L483.652 98.736L483.316 77.184H488.404L488.116 98.304ZM512.802 104.304L512.418 108H496.578L496.914 98.736L496.578 77.184H501.666L501.378 98.304L501.474 103.872H512.466L512.802 104.304ZM521.819 98.304L522.059 108H517.019L517.355 98.736L517.019 77.184H522.107L521.819 98.304ZM548.677 77.616L548.389 81.36L542.821 81.072H540.229L539.989 98.304L540.229 108H535.237L535.525 98.736L535.285 81.072H532.693L527.029 81.36L526.693 80.928L527.077 77.184H548.389L548.677 77.616ZM564.379 99.168L564.571 108H559.627L559.867 99.168L559.819 97.296L550.075 77.184H555.355L555.979 79.104L562.075 92.016H562.459L569.227 79.2L569.995 77.184H575.131L564.427 97.056L564.379 99.168Z" fill="#24245A"/>
<defs>
<linearGradient id="paint0_linear_420_21" x1="39.5" y1="97.4219" x2="251.444" y2="10.8635" gradientUnits="userSpaceOnUse">
<stop stop-color="#FFA800"/>
<stop offset="1" stop-color="#24245A"/>
</linearGradient>
</defs>
</svg>
