<svg width="70" height="61" viewBox="0 0 70 61" fill="none" xmlns="http://www.w3.org/2000/svg">
<g clip-path="url(#clip0_433_51)">
<path d="M34.5658 11.741C33.4047 11.741 32.2695 11.3967 31.304 10.7516C30.3386 10.1065 29.5861 9.18955 29.1417 8.11676C28.6973 7.04398 28.5811 5.86351 28.8076 4.72465C29.0342 3.58579 29.5933 2.53968 30.4144 1.7186C31.2355 0.897528 32.2816 0.33837 33.4204 0.111836C34.5593 -0.114698 35.7397 0.00156683 36.8125 0.445929C37.8853 0.890291 38.8022 1.64279 39.4474 2.60827C40.0925 3.57375 40.4368 4.70885 40.4368 5.87003C40.4352 7.42662 39.8162 8.91901 38.7155 10.0197C37.6148 11.1204 36.1224 11.7394 34.5658 11.741Z" fill="#FFA800"/>
<path d="M26.4682 27.5751C26.2535 27.5748 26.0476 27.4894 25.8958 27.3376C25.7439 27.1857 25.6585 26.9798 25.6582 26.7651V22.7161C25.6582 20.3537 26.5967 18.088 28.2672 16.4175C29.9376 14.7471 32.2033 13.8086 34.5657 13.8086C36.9282 13.8086 39.1938 14.7471 40.8643 16.4175C42.5347 18.088 43.4732 20.3537 43.4732 22.7161V26.7651C43.4729 26.9798 43.3876 27.1857 43.2357 27.3376C43.0839 27.4894 42.878 27.5748 42.6632 27.5751H26.4682Z" fill="#FFA800"/>
<path d="M17.4189 60.7881C17.1302 60.7879 16.8533 60.673 16.6492 60.4689C16.445 60.2647 16.3302 59.9879 16.33 59.6991V52.2071L9.62994 48.8571C6.73674 47.4103 4.30354 45.1864 2.60303 42.4346C0.902512 39.6829 0.00186659 36.5119 0.00195313 33.2771V14.7911C0.00195313 13.4197 0.546729 12.1044 1.51648 11.1347C2.48623 10.1649 3.80154 9.62012 5.17297 9.62012C6.54441 9.62012 7.85966 10.1649 8.82941 11.1347C9.79916 12.1044 10.3439 13.4197 10.3439 14.7911V25.9501H10.616C11.2953 25.9483 11.9681 26.0813 12.5957 26.3413C13.2233 26.6014 13.793 26.9834 14.272 27.4651L17.9979 31.1911C18.7219 31.9141 20.935 33.6511 25.838 34.1541L25.8989 34.1611C27.8716 34.4415 29.6743 35.4316 30.9692 36.946C32.2641 38.4603 32.9622 40.3949 32.9329 42.3871V59.7001C32.9327 59.9889 32.8179 60.2657 32.6137 60.4699C32.4095 60.674 32.1327 60.7889 31.8439 60.7891L17.4189 60.7881ZM5.17194 11.7981C4.37836 11.7997 3.61778 12.1157 3.05664 12.6768C2.4955 13.2379 2.1795 13.9986 2.17792 14.7921V33.2781C2.16843 36.1106 2.95273 38.889 4.44183 41.2984C5.93094 43.7079 8.06532 45.6519 10.603 46.9101L17.903 50.5611C18.0839 50.6513 18.236 50.7903 18.342 50.9624C18.4481 51.1346 18.5038 51.333 18.5029 51.5351V58.6111H30.7499V42.3821C30.7842 40.9276 30.2877 39.5104 29.3532 38.3953C28.4187 37.2802 27.11 36.5436 25.6719 36.3231H25.6569C22.2929 35.8691 18.844 35.1181 16.457 32.7291L12.731 29.0031C12.3333 28.6052 11.8316 28.3274 11.2833 28.2016C10.7349 28.0758 10.1622 28.1072 9.63092 28.2921H9.61792L9.60492 28.2981C9.13029 28.469 8.70659 28.7571 8.37311 29.1355C8.03962 29.514 7.8072 29.9707 7.69745 30.463C7.5877 30.9554 7.60419 31.4675 7.74536 31.9518C7.88654 32.4361 8.14781 32.8768 8.50494 33.2331L15.4739 40.2031C15.5767 40.3039 15.6586 40.424 15.7147 40.5565C15.7707 40.6891 15.8 40.8315 15.8007 40.9754C15.8014 41.1193 15.7736 41.262 15.7189 41.3951C15.6641 41.5282 15.5835 41.6492 15.4818 41.7509C15.38 41.8527 15.259 41.9333 15.1259 41.9881C14.9928 42.0428 14.8502 42.0706 14.7062 42.0699C14.5623 42.0692 14.4199 42.0399 14.2874 41.9838C14.1548 41.9277 14.0347 41.8459 13.934 41.7431L6.96497 34.7731C6.48325 34.2942 6.1013 33.7244 5.84125 33.0969C5.5812 32.4693 5.44821 31.7964 5.44995 31.1171C5.45186 30.2098 5.69163 29.3188 6.14539 28.533C6.59914 27.7473 7.25102 27.0943 8.03595 26.6391L8.17194 26.5601V14.7911C8.17035 13.9963 7.85342 13.2347 7.29077 12.6733C6.72812 12.112 5.96574 11.7969 5.17096 11.7971L5.17194 11.7981Z" fill="white"/>
<path d="M37.2872 60.7881C36.9984 60.7879 36.7216 60.673 36.5175 60.4689C36.3133 60.2647 36.1985 59.9879 36.1982 59.6991V42.3821C36.1684 40.3917 36.8651 38.4586 38.1578 36.9448C39.4505 35.431 41.2506 34.4403 43.2212 34.1581H43.2392C43.4552 34.1201 43.6872 34.0821 43.9322 34.0421C46.0022 33.7041 49.1322 33.1921 51.1322 31.1891L54.8582 27.4631C55.3372 26.9814 55.9069 26.5995 56.5344 26.3394C57.162 26.0794 57.8349 25.9464 58.5142 25.9481H58.7862V14.7911C58.7862 13.4197 59.331 12.1044 60.3007 11.1347C61.2705 10.1649 62.5858 9.62012 63.9572 9.62012C65.3287 9.62012 66.6439 10.1649 67.6137 11.1347C68.5834 12.1044 69.1282 13.4197 69.1282 14.7911V33.2771C69.126 36.1825 68.3991 39.0415 67.0132 41.5951C66.9195 41.7674 66.7811 41.9113 66.6125 42.0114C66.4439 42.1116 66.2513 42.1643 66.0552 42.1641C65.8666 42.1638 65.6812 42.1145 65.5174 42.021C65.3536 41.9276 65.2168 41.7932 65.1205 41.631C65.0243 41.4687 64.9718 41.2843 64.9682 41.0957C64.9646 40.9071 65.0101 40.7208 65.1002 40.5551C66.3125 38.3207 66.9484 35.8192 66.9502 33.2771V14.7911C66.9502 13.9971 66.6347 13.2355 66.0732 12.674C65.5118 12.1126 64.7502 11.7971 63.9562 11.7971C63.1621 11.7971 62.4006 12.1126 61.8391 12.674C61.2776 13.2355 60.9622 13.9971 60.9622 14.7911V26.5641L61.0982 26.6431C61.7852 27.0396 62.3717 27.5888 62.8124 28.2482C63.2531 28.9076 63.5362 29.6596 63.6397 30.446C63.7433 31.2323 63.6645 32.032 63.4095 32.783C63.1545 33.5341 62.7301 34.2164 62.1692 34.7771L55.2002 41.7471C55.1002 41.8528 54.98 41.9374 54.8467 41.9959C54.7135 42.0544 54.5699 42.0856 54.4244 42.0876C54.2789 42.0897 54.1344 42.0625 53.9996 42.0078C53.8647 41.9531 53.7422 41.8719 53.6393 41.769C53.5364 41.6661 53.4551 41.5437 53.4003 41.4089C53.3455 41.2741 53.3182 41.1297 53.3202 40.9842C53.3221 40.8387 53.3532 40.695 53.4116 40.5617C53.47 40.4284 53.5546 40.3082 53.6602 40.2081L60.6292 33.2381C60.9859 32.8817 61.2467 32.441 61.3876 31.9569C61.5285 31.4728 61.5448 30.9609 61.4351 30.4688C61.3253 29.9767 61.0931 29.5203 60.76 29.1419C60.4268 28.7634 60.0034 28.4753 59.5292 28.3041L59.5102 28.2971C58.9775 28.1095 58.4026 28.0764 57.8519 28.2017C57.3013 28.327 56.7973 28.6055 56.3982 29.0051L52.6722 32.7311C50.2812 35.1201 46.8312 35.8711 43.4602 36.3311C42.0207 36.5503 40.7102 37.2864 39.7741 38.4018C38.838 39.5172 38.3404 40.9354 38.3742 42.3911V58.6151H50.6212V51.5391C50.6205 51.337 50.6762 51.1386 50.7822 50.9665C50.8883 50.7944 51.0403 50.6554 51.2212 50.5651L56.4272 47.9651C56.5551 47.901 56.6944 47.8628 56.837 47.8526C56.9797 47.8424 57.123 47.8604 57.2587 47.9057C57.3944 47.9509 57.5199 48.0224 57.6279 48.1162C57.7359 48.21 57.8243 48.3241 57.8882 48.4521C58.0171 48.7105 58.0381 49.0094 57.9468 49.2833C57.8555 49.5573 57.6593 49.7837 57.4012 49.9131L52.8012 52.2131V59.7051C52.8009 59.9939 52.6861 60.2707 52.4819 60.4749C52.2778 60.679 52.0009 60.7938 51.7122 60.7941L37.2872 60.7881Z" fill="white"/>
</g>
<defs>
<clipPath id="clip0_433_51">
<rect width="69.131" height="60.788" fill="white"/>
</clipPath>
</defs>
</svg>
