<svg width="408" height="479" viewBox="0 0 408 479" fill="none" xmlns="http://www.w3.org/2000/svg">
<mask id="path-1-outside-1_936_535" maskUnits="userSpaceOnUse" x="73.3399" y="88.428" width="243.968" height="318.353" fill="black">
<rect fill="white" x="73.3399" y="88.428" width="243.968" height="318.353"/>
<path d="M102.934 364.502L100.369 368.082C99.1881 367.556 98.0183 367.278 96.8597 367.248C95.708 367.209 94.5987 367.376 93.5316 367.747C92.4619 368.102 91.4682 368.635 90.5507 369.346C89.6331 370.057 88.8227 370.904 88.1193 371.885C86.8368 373.675 86.1271 375.62 85.9904 377.721C85.8605 379.812 86.369 381.917 87.5161 384.035C88.67 386.144 90.5266 388.115 93.0859 389.949C95.6452 391.783 98.1086 392.908 100.476 393.323C102.85 393.729 105.007 393.534 106.946 392.739C108.891 391.934 110.505 390.637 111.788 388.848C112.491 387.866 113.032 386.827 113.411 385.729C113.79 384.632 113.98 383.523 113.982 382.403C113.981 381.266 113.777 380.159 113.37 379.081C112.96 377.986 112.321 376.968 111.453 376.025L114.018 372.446C115.336 373.798 116.336 375.257 117.019 376.824C117.701 378.391 118.082 380.004 118.161 381.662C118.23 383.314 118.008 384.954 117.497 386.582C116.992 388.201 116.205 389.756 115.136 391.247C113.33 393.768 111.107 395.568 108.469 396.649C105.831 397.729 102.973 398.018 99.8957 397.516C96.8182 397.015 93.7209 395.647 90.6035 393.413C87.4862 391.179 85.1956 388.685 83.7317 385.932C82.2678 383.179 81.6234 380.38 81.7985 377.535C81.9737 374.689 82.9645 372.006 84.7711 369.485C85.8399 367.994 87.0596 366.749 88.4304 365.751C89.808 364.743 91.2946 364.01 92.8901 363.552C94.4761 363.086 96.1207 362.925 97.824 363.068C99.5177 363.204 101.221 363.682 102.934 364.502ZM130.494 337.752C133.611 339.986 135.902 342.48 137.366 345.233C138.83 347.986 139.474 350.785 139.299 353.63C139.124 356.476 138.133 359.159 136.327 361.679C134.52 364.2 132.298 366.001 129.659 367.081C127.021 368.161 124.163 368.45 121.086 367.949C118.009 367.447 114.911 366.079 111.794 363.845C108.677 361.611 106.386 359.117 104.922 356.364C103.458 353.611 102.814 350.812 102.989 347.967C103.164 345.122 104.155 342.438 105.961 339.918C107.768 337.397 109.99 335.596 112.629 334.516C115.267 333.436 118.125 333.147 121.202 333.648C124.279 334.15 127.377 335.518 130.494 337.752ZM128.012 341.216C125.452 339.381 122.986 338.262 120.611 337.856C118.244 337.441 116.087 337.636 114.142 338.44C112.203 339.235 110.592 340.528 109.31 342.317C108.027 344.107 107.317 346.052 107.181 348.153C107.051 350.244 107.559 352.349 108.706 354.467C109.86 356.576 111.717 358.547 114.276 360.381C116.835 362.216 119.299 363.34 121.666 363.755C124.041 364.161 126.197 363.966 128.136 363.171C130.082 362.367 131.696 361.069 132.978 359.28C134.261 357.49 134.967 355.55 135.097 353.458C135.234 351.357 134.725 349.253 133.571 347.144C132.424 345.026 130.571 343.05 128.012 341.216ZM120.029 321.142L123.09 316.871L154.824 324.409L155.072 324.063L137.736 296.435L140.798 292.163L170.354 313.345L167.955 316.694L145.499 300.6L145.292 300.888L161.128 326.219L158.812 329.452L129.736 322.594L129.529 322.883L151.985 338.977L149.586 342.325L120.029 321.142ZM148.506 281.407L178.063 302.59L175.498 306.169L145.941 284.986L148.506 281.407ZM170.446 250.793L200.003 271.976L197.521 275.439L162.771 274.914L162.564 275.203L185.771 291.834L183.206 295.413L153.649 274.231L156.131 270.767L190.98 271.276L191.187 270.988L167.922 254.315L170.446 250.793ZM199.295 230.046C198.096 229.667 196.925 229.461 195.783 229.429C194.639 229.381 193.537 229.516 192.478 229.835C191.426 230.144 190.436 230.643 189.506 231.331C188.576 232.019 187.728 232.897 186.963 233.965C185.708 235.716 185.019 237.632 184.896 239.714C184.773 241.796 185.288 243.891 186.442 245.999C187.596 248.108 189.453 250.079 192.012 251.913C194.571 253.748 197.038 254.867 199.413 255.273C201.787 255.679 203.95 255.474 205.903 254.66C207.855 253.846 209.487 252.524 210.797 250.696C212.01 249.003 212.718 247.253 212.921 245.447C213.12 243.624 212.815 241.876 212.004 240.202C211.191 238.513 209.88 237.02 208.071 235.723L209.088 234.792L202.717 243.682L199.542 241.407L207.609 230.15L210.784 232.425C213.219 234.17 214.963 236.206 216.017 238.535C217.079 240.854 217.453 243.278 217.141 245.806C216.826 248.318 215.828 250.748 214.145 253.096C212.27 255.713 210.006 257.571 207.354 258.671C204.709 259.76 201.854 260.045 198.791 259.524C195.734 258.993 192.647 257.611 189.53 255.377C187.192 253.702 185.313 251.882 183.895 249.919C182.474 247.939 181.518 245.9 181.027 243.801C180.537 241.702 180.506 239.611 180.934 237.53C181.363 235.449 182.256 233.46 183.614 231.565C184.732 230.006 186.008 228.722 187.445 227.713C188.879 226.688 190.404 225.953 192.019 225.508C193.631 225.047 195.284 224.884 196.977 225.02C198.661 225.15 200.317 225.593 201.943 226.351L199.295 230.046ZM224.389 191.13C222.803 190.255 221.164 190.144 219.473 190.796C217.782 191.448 216.296 192.669 215.013 194.459C214.075 195.767 213.466 197.064 213.187 198.349C212.913 199.624 212.951 200.801 213.299 201.881C213.653 202.95 214.302 203.823 215.245 204.499C216.034 205.064 216.847 205.363 217.683 205.394C218.517 205.409 219.335 205.253 220.138 204.926C220.931 204.591 221.683 204.183 222.392 203.701C223.092 203.212 223.71 202.745 224.248 202.3L227.207 199.878C227.961 199.253 228.854 198.596 229.885 197.909C230.924 197.211 232.062 196.65 233.298 196.226C234.532 195.785 235.828 195.621 237.187 195.736C238.547 195.851 239.919 196.405 241.305 197.398C242.902 198.543 244.045 199.996 244.734 201.757C245.431 203.508 245.587 205.455 245.202 207.597C244.824 209.729 243.822 211.931 242.195 214.201C240.678 216.318 239.022 217.906 237.229 218.965C235.443 220.015 233.621 220.545 231.765 220.554C229.916 220.554 228.142 220.033 226.442 218.99L229.09 215.295C230.275 215.999 231.468 216.285 232.668 216.155C233.865 216.009 235.004 215.558 236.084 214.802C237.161 214.031 238.121 213.058 238.962 211.884C239.941 210.518 240.599 209.133 240.935 207.728C241.262 206.317 241.254 205.008 240.911 203.8C240.558 202.586 239.842 201.593 238.765 200.821C237.783 200.117 236.788 199.819 235.779 199.926C234.77 200.033 233.753 200.396 232.727 201.015C231.701 201.634 230.671 202.36 229.638 203.192L225.992 206.084C223.673 207.918 221.416 209.067 219.219 209.531C217.022 209.996 214.927 209.514 212.936 208.087C211.281 206.901 210.158 205.419 209.568 203.642C208.975 201.848 208.882 199.946 209.288 197.936C209.692 195.91 210.569 193.954 211.921 192.068C213.286 190.163 214.841 188.714 216.586 187.722C218.322 186.723 220.087 186.211 221.881 186.187C223.682 186.152 225.346 186.646 226.872 187.666L224.389 191.13ZM256.641 161.734C259.758 163.969 262.049 166.462 263.512 169.215C264.976 171.968 265.621 174.767 265.446 177.613C265.27 180.458 264.28 183.141 262.473 185.662C260.666 188.183 258.444 189.983 255.806 191.063C253.168 192.144 250.31 192.433 247.232 191.931C244.155 191.43 241.058 190.062 237.94 187.828C234.823 185.594 232.532 183.1 231.068 180.347C229.605 177.594 228.96 174.795 229.135 171.949C229.31 169.104 230.301 166.421 232.108 163.9C233.914 161.379 236.137 159.579 238.775 158.499C241.413 157.419 244.271 157.129 247.348 157.631C250.426 158.132 253.523 159.5 256.641 161.734ZM254.158 165.198C251.599 163.364 249.132 162.244 246.758 161.839C244.39 161.423 242.234 161.618 240.288 162.423C238.349 163.218 236.739 164.51 235.456 166.3C234.174 168.089 233.464 170.035 233.327 172.136C233.197 174.227 233.706 176.332 234.853 178.45C236.007 180.558 237.863 182.53 240.423 184.364C242.982 186.198 245.445 187.323 247.813 187.738C250.187 188.143 252.344 187.949 254.283 187.154C256.228 186.349 257.842 185.052 259.125 183.262C260.407 181.473 261.114 179.532 261.243 177.441C261.38 175.34 260.872 173.235 259.718 171.127C258.571 169.008 256.718 167.032 254.158 165.198ZM278.826 130.778C281.944 133.012 284.234 135.505 285.698 138.258C287.162 141.011 287.807 143.81 287.631 146.656C287.456 149.501 286.465 152.184 284.659 154.705C282.852 157.226 280.63 159.026 277.992 160.107C275.353 161.187 272.496 161.476 269.418 160.974C266.341 160.473 263.244 159.105 260.126 156.871C257.009 154.637 254.718 152.143 253.254 149.39C251.79 146.637 251.146 143.838 251.321 140.993C251.496 138.147 252.487 135.464 254.294 132.943C256.1 130.422 258.323 128.622 260.961 127.542C263.599 126.462 266.457 126.172 269.534 126.674C272.612 127.176 275.709 128.543 278.826 130.778ZM276.344 134.241C273.785 132.407 271.318 131.287 268.944 130.882C266.576 130.467 264.419 130.661 262.474 131.466C260.535 132.261 258.925 133.553 257.642 135.343C256.359 137.132 255.65 139.078 255.513 141.179C255.383 143.27 255.892 145.375 257.039 147.493C258.193 149.602 260.049 151.573 262.609 153.407C265.168 155.241 267.631 156.366 269.999 156.781C272.373 157.187 274.53 156.992 276.468 156.197C278.414 155.392 280.028 154.095 281.311 152.305C282.593 150.516 283.299 148.575 283.429 146.484C283.566 144.383 283.057 142.278 281.904 140.17C280.757 138.052 278.903 136.075 276.344 134.241ZM285.158 90.7304L314.715 111.913L312.233 115.377L277.483 114.851L277.276 115.14L300.483 131.772L297.918 135.351L268.361 114.168L270.843 110.704L305.692 111.213L305.899 110.925L282.634 94.2518L285.158 90.7304Z"/>
</mask>
<path d="M102.934 364.502L100.369 368.082C99.1881 367.556 98.0183 367.278 96.8597 367.248C95.708 367.209 94.5987 367.376 93.5316 367.747C92.4619 368.102 91.4682 368.635 90.5507 369.346C89.6331 370.057 88.8227 370.904 88.1193 371.885C86.8368 373.675 86.1271 375.62 85.9904 377.721C85.8605 379.812 86.369 381.917 87.5161 384.035C88.67 386.144 90.5266 388.115 93.0859 389.949C95.6452 391.783 98.1086 392.908 100.476 393.323C102.85 393.729 105.007 393.534 106.946 392.739C108.891 391.934 110.505 390.637 111.788 388.848C112.491 387.866 113.032 386.827 113.411 385.729C113.79 384.632 113.98 383.523 113.982 382.403C113.981 381.266 113.777 380.159 113.37 379.081C112.96 377.986 112.321 376.968 111.453 376.025L114.018 372.446C115.336 373.798 116.336 375.257 117.019 376.824C117.701 378.391 118.082 380.004 118.161 381.662C118.23 383.314 118.008 384.954 117.497 386.582C116.992 388.201 116.205 389.756 115.136 391.247C113.33 393.768 111.107 395.568 108.469 396.649C105.831 397.729 102.973 398.018 99.8957 397.516C96.8182 397.015 93.7209 395.647 90.6035 393.413C87.4862 391.179 85.1956 388.685 83.7317 385.932C82.2678 383.179 81.6234 380.38 81.7985 377.535C81.9737 374.689 82.9645 372.006 84.7711 369.485C85.8399 367.994 87.0596 366.749 88.4304 365.751C89.808 364.743 91.2946 364.01 92.8901 363.552C94.4761 363.086 96.1207 362.925 97.824 363.068C99.5177 363.204 101.221 363.682 102.934 364.502ZM130.494 337.752C133.611 339.986 135.902 342.48 137.366 345.233C138.83 347.986 139.474 350.785 139.299 353.63C139.124 356.476 138.133 359.159 136.327 361.679C134.52 364.2 132.298 366.001 129.659 367.081C127.021 368.161 124.163 368.45 121.086 367.949C118.009 367.447 114.911 366.079 111.794 363.845C108.677 361.611 106.386 359.117 104.922 356.364C103.458 353.611 102.814 350.812 102.989 347.967C103.164 345.122 104.155 342.438 105.961 339.918C107.768 337.397 109.99 335.596 112.629 334.516C115.267 333.436 118.125 333.147 121.202 333.648C124.279 334.15 127.377 335.518 130.494 337.752ZM128.012 341.216C125.452 339.381 122.986 338.262 120.611 337.856C118.244 337.441 116.087 337.636 114.142 338.44C112.203 339.235 110.592 340.528 109.31 342.317C108.027 344.107 107.317 346.052 107.181 348.153C107.051 350.244 107.559 352.349 108.706 354.467C109.86 356.576 111.717 358.547 114.276 360.381C116.835 362.216 119.299 363.34 121.666 363.755C124.041 364.161 126.197 363.966 128.136 363.171C130.082 362.367 131.696 361.069 132.978 359.28C134.261 357.49 134.967 355.55 135.097 353.458C135.234 351.357 134.725 349.253 133.571 347.144C132.424 345.026 130.571 343.05 128.012 341.216ZM120.029 321.142L123.09 316.871L154.824 324.409L155.072 324.063L137.736 296.435L140.798 292.163L170.354 313.345L167.955 316.694L145.499 300.6L145.292 300.888L161.128 326.219L158.812 329.452L129.736 322.594L129.529 322.883L151.985 338.977L149.586 342.325L120.029 321.142ZM148.506 281.407L178.063 302.59L175.498 306.169L145.941 284.986L148.506 281.407ZM170.446 250.793L200.003 271.976L197.521 275.439L162.771 274.914L162.564 275.203L185.771 291.834L183.206 295.413L153.649 274.231L156.131 270.767L190.98 271.276L191.187 270.988L167.922 254.315L170.446 250.793ZM199.295 230.046C198.096 229.667 196.925 229.461 195.783 229.429C194.639 229.381 193.537 229.516 192.478 229.835C191.426 230.144 190.436 230.643 189.506 231.331C188.576 232.019 187.728 232.897 186.963 233.965C185.708 235.716 185.019 237.632 184.896 239.714C184.773 241.796 185.288 243.891 186.442 245.999C187.596 248.108 189.453 250.079 192.012 251.913C194.571 253.748 197.038 254.867 199.413 255.273C201.787 255.679 203.95 255.474 205.903 254.66C207.855 253.846 209.487 252.524 210.797 250.696C212.01 249.003 212.718 247.253 212.921 245.447C213.12 243.624 212.815 241.876 212.004 240.202C211.191 238.513 209.88 237.02 208.071 235.723L209.088 234.792L202.717 243.682L199.542 241.407L207.609 230.15L210.784 232.425C213.219 234.17 214.963 236.206 216.017 238.535C217.079 240.854 217.453 243.278 217.141 245.806C216.826 248.318 215.828 250.748 214.145 253.096C212.27 255.713 210.006 257.571 207.354 258.671C204.709 259.76 201.854 260.045 198.791 259.524C195.734 258.993 192.647 257.611 189.53 255.377C187.192 253.702 185.313 251.882 183.895 249.919C182.474 247.939 181.518 245.9 181.027 243.801C180.537 241.702 180.506 239.611 180.934 237.53C181.363 235.449 182.256 233.46 183.614 231.565C184.732 230.006 186.008 228.722 187.445 227.713C188.879 226.688 190.404 225.953 192.019 225.508C193.631 225.047 195.284 224.884 196.977 225.02C198.661 225.15 200.317 225.593 201.943 226.351L199.295 230.046ZM224.389 191.13C222.803 190.255 221.164 190.144 219.473 190.796C217.782 191.448 216.296 192.669 215.013 194.459C214.075 195.767 213.466 197.064 213.187 198.349C212.913 199.624 212.951 200.801 213.299 201.881C213.653 202.95 214.302 203.823 215.245 204.499C216.034 205.064 216.847 205.363 217.683 205.394C218.517 205.409 219.335 205.253 220.138 204.926C220.931 204.591 221.683 204.183 222.392 203.701C223.092 203.212 223.71 202.745 224.248 202.3L227.207 199.878C227.961 199.253 228.854 198.596 229.885 197.909C230.924 197.211 232.062 196.65 233.298 196.226C234.532 195.785 235.828 195.621 237.187 195.736C238.547 195.851 239.919 196.405 241.305 197.398C242.902 198.543 244.045 199.996 244.734 201.757C245.431 203.508 245.587 205.455 245.202 207.597C244.824 209.729 243.822 211.931 242.195 214.201C240.678 216.318 239.022 217.906 237.229 218.965C235.443 220.015 233.621 220.545 231.765 220.554C229.916 220.554 228.142 220.033 226.442 218.99L229.09 215.295C230.275 215.999 231.468 216.285 232.668 216.155C233.865 216.009 235.004 215.558 236.084 214.802C237.161 214.031 238.121 213.058 238.962 211.884C239.941 210.518 240.599 209.133 240.935 207.728C241.262 206.317 241.254 205.008 240.911 203.8C240.558 202.586 239.842 201.593 238.765 200.821C237.783 200.117 236.788 199.819 235.779 199.926C234.77 200.033 233.753 200.396 232.727 201.015C231.701 201.634 230.671 202.36 229.638 203.192L225.992 206.084C223.673 207.918 221.416 209.067 219.219 209.531C217.022 209.996 214.927 209.514 212.936 208.087C211.281 206.901 210.158 205.419 209.568 203.642C208.975 201.848 208.882 199.946 209.288 197.936C209.692 195.91 210.569 193.954 211.921 192.068C213.286 190.163 214.841 188.714 216.586 187.722C218.322 186.723 220.087 186.211 221.881 186.187C223.682 186.152 225.346 186.646 226.872 187.666L224.389 191.13ZM256.641 161.734C259.758 163.969 262.049 166.462 263.512 169.215C264.976 171.968 265.621 174.767 265.446 177.613C265.27 180.458 264.28 183.141 262.473 185.662C260.666 188.183 258.444 189.983 255.806 191.063C253.168 192.144 250.31 192.433 247.232 191.931C244.155 191.43 241.058 190.062 237.94 187.828C234.823 185.594 232.532 183.1 231.068 180.347C229.605 177.594 228.96 174.795 229.135 171.949C229.31 169.104 230.301 166.421 232.108 163.9C233.914 161.379 236.137 159.579 238.775 158.499C241.413 157.419 244.271 157.129 247.348 157.631C250.426 158.132 253.523 159.5 256.641 161.734ZM254.158 165.198C251.599 163.364 249.132 162.244 246.758 161.839C244.39 161.423 242.234 161.618 240.288 162.423C238.349 163.218 236.739 164.51 235.456 166.3C234.174 168.089 233.464 170.035 233.327 172.136C233.197 174.227 233.706 176.332 234.853 178.45C236.007 180.558 237.863 182.53 240.423 184.364C242.982 186.198 245.445 187.323 247.813 187.738C250.187 188.143 252.344 187.949 254.283 187.154C256.228 186.349 257.842 185.052 259.125 183.262C260.407 181.473 261.114 179.532 261.243 177.441C261.38 175.34 260.872 173.235 259.718 171.127C258.571 169.008 256.718 167.032 254.158 165.198ZM278.826 130.778C281.944 133.012 284.234 135.505 285.698 138.258C287.162 141.011 287.807 143.81 287.631 146.656C287.456 149.501 286.465 152.184 284.659 154.705C282.852 157.226 280.63 159.026 277.992 160.107C275.353 161.187 272.496 161.476 269.418 160.974C266.341 160.473 263.244 159.105 260.126 156.871C257.009 154.637 254.718 152.143 253.254 149.39C251.79 146.637 251.146 143.838 251.321 140.993C251.496 138.147 252.487 135.464 254.294 132.943C256.1 130.422 258.323 128.622 260.961 127.542C263.599 126.462 266.457 126.172 269.534 126.674C272.612 127.176 275.709 128.543 278.826 130.778ZM276.344 134.241C273.785 132.407 271.318 131.287 268.944 130.882C266.576 130.467 264.419 130.661 262.474 131.466C260.535 132.261 258.925 133.553 257.642 135.343C256.359 137.132 255.65 139.078 255.513 141.179C255.383 143.27 255.892 145.375 257.039 147.493C258.193 149.602 260.049 151.573 262.609 153.407C265.168 155.241 267.631 156.366 269.999 156.781C272.373 157.187 274.53 156.992 276.468 156.197C278.414 155.392 280.028 154.095 281.311 152.305C282.593 150.516 283.299 148.575 283.429 146.484C283.566 144.383 283.057 142.278 281.904 140.17C280.757 138.052 278.903 136.075 276.344 134.241ZM285.158 90.7304L314.715 111.913L312.233 115.377L277.483 114.851L277.276 115.14L300.483 131.772L297.918 135.351L268.361 114.168L270.843 110.704L305.692 111.213L305.899 110.925L282.634 94.2518L285.158 90.7304Z" fill="black" fill-opacity="0.28"/>
<path d="M102.934 364.502L103.747 365.085L104.442 364.115L103.366 363.6L102.934 364.502ZM100.369 368.082L99.9624 368.995L100.707 369.327L101.182 368.664L100.369 368.082ZM96.8597 367.248L96.8259 368.248L96.8344 368.248L96.8597 367.248ZM93.5316 367.747L93.8464 368.696L93.8533 368.694L93.8602 368.691L93.5316 367.747ZM90.5507 369.346L91.1634 370.136L91.1634 370.136L90.5507 369.346ZM85.9904 377.721L84.9925 377.656L84.9923 377.659L85.9904 377.721ZM87.5161 384.035L86.6367 384.511L86.6388 384.515L87.5161 384.035ZM100.476 393.323L100.303 394.308L100.308 394.309L100.476 393.323ZM106.946 392.739L107.325 393.664L107.328 393.663L106.946 392.739ZM113.411 385.729L112.466 385.403L112.466 385.403L113.411 385.729ZM113.982 382.403L114.982 382.404L114.982 382.402L113.982 382.403ZM113.37 379.081L112.433 379.431L112.434 379.434L113.37 379.081ZM111.453 376.025L110.64 375.443L110.166 376.104L110.718 376.703L111.453 376.025ZM114.018 372.446L114.734 371.748L113.901 370.893L113.205 371.863L114.018 372.446ZM117.019 376.824L116.102 377.224L116.102 377.224L117.019 376.824ZM118.161 381.662L119.16 381.621L119.16 381.615L118.161 381.662ZM117.497 386.582L116.543 386.282L116.542 386.284L117.497 386.582ZM108.469 396.649L108.848 397.574L108.848 397.574L108.469 396.649ZM99.8957 397.516L100.057 396.529L100.057 396.529L99.8957 397.516ZM88.4304 365.751L89.0191 366.559L89.0208 366.558L88.4304 365.751ZM92.8901 363.552L93.1663 364.513L93.1717 364.511L92.8901 363.552ZM97.824 363.068L97.7403 364.065L97.7439 364.065L97.824 363.068ZM102.122 363.92L99.5565 367.499L101.182 368.664L103.747 365.085L102.122 363.92ZM100.776 367.168C99.4887 366.595 98.1896 366.282 96.885 366.249L96.8344 368.248C97.8469 368.274 98.8876 368.516 99.9624 368.995L100.776 367.168ZM96.8935 366.249C95.6212 366.206 94.3888 366.39 93.203 366.802L93.8602 368.691C94.8085 368.361 95.7948 368.213 96.8259 368.248L96.8935 366.249ZM93.2169 366.798C92.0363 367.189 90.9424 367.777 89.938 368.556L91.1634 370.136C91.9941 369.492 92.8875 369.014 93.8464 368.696L93.2169 366.798ZM89.938 368.556C88.941 369.328 88.0639 370.246 87.3065 371.302L88.9322 372.467C89.5814 371.562 90.3252 370.786 91.1634 370.136L89.938 368.556ZM87.3065 371.302C85.9204 373.237 85.142 375.36 84.9925 377.656L86.9882 377.786C87.1123 375.88 87.7532 374.113 88.9322 372.467L87.3065 371.302ZM84.9923 377.659C84.8491 379.964 85.4141 382.254 86.6367 384.511L88.3954 383.559C87.3239 381.58 86.8718 379.661 86.9884 377.783L84.9923 377.659ZM86.6388 384.515C87.8835 386.79 89.8584 388.866 92.5034 390.762L93.6684 389.136C91.1948 387.364 89.4564 385.498 88.3933 383.555L86.6388 384.515ZM92.5034 390.762C95.1483 392.658 97.7496 393.86 100.303 394.308L100.649 392.338C98.4675 391.956 96.142 390.909 93.6684 389.136L92.5034 390.762ZM100.308 394.309C102.839 394.741 105.188 394.54 107.325 393.664L106.566 391.814C104.826 392.528 102.862 392.716 100.644 392.337L100.308 394.309ZM107.328 393.663C109.454 392.784 111.215 391.364 112.601 389.43L110.975 388.265C109.796 389.91 108.328 391.085 106.564 391.815L107.328 393.663ZM112.601 389.43C113.358 388.373 113.945 387.248 114.356 386.056L112.466 385.403C112.12 386.406 111.624 387.359 110.975 388.265L112.601 389.43ZM114.356 386.056C114.77 384.857 114.98 383.639 114.982 382.404L112.982 382.401C112.98 383.407 112.81 384.406 112.466 385.403L114.356 386.056ZM114.982 382.402C114.981 381.143 114.754 379.917 114.306 378.728L112.434 379.434C112.8 380.401 112.981 381.389 112.982 382.404L114.982 382.402ZM114.307 378.73C113.847 377.504 113.136 376.376 112.189 375.348L110.718 376.703C111.507 377.559 112.073 378.469 112.433 379.431L114.307 378.73ZM112.266 376.608L114.831 373.028L113.205 371.863L110.64 375.443L112.266 376.608ZM113.302 373.144C114.544 374.418 115.472 375.779 116.102 377.224L117.935 376.425C117.2 374.736 116.127 373.178 114.734 371.748L113.302 373.144ZM116.102 377.224C116.738 378.683 117.089 380.176 117.162 381.71L119.16 381.615C119.075 379.832 118.665 378.1 117.935 376.425L116.102 377.224ZM117.162 381.704C117.226 383.236 117.021 384.76 116.543 386.282L118.451 386.882C118.996 385.147 119.234 383.391 119.16 381.621L117.162 381.704ZM116.542 386.284C116.071 387.793 115.335 389.253 114.323 390.665L115.949 391.83C117.075 390.259 117.912 388.608 118.451 386.88L116.542 386.284ZM114.323 390.665C112.616 393.047 110.539 394.72 108.09 395.723L108.848 397.574C111.675 396.416 114.043 394.489 115.949 391.83L114.323 390.665ZM108.09 395.723C105.639 396.727 102.969 397.004 100.057 396.529L99.7348 398.503C102.977 399.032 106.023 398.731 108.848 397.574L108.09 395.723ZM100.057 396.529C97.1622 396.058 94.2064 394.765 91.1861 392.6L90.021 394.226C93.2353 396.529 96.4743 397.972 99.7348 398.503L100.057 396.529ZM91.1861 392.6C88.1657 390.435 85.9915 388.052 84.6146 385.463L82.8488 386.402C84.3997 389.318 86.8067 391.922 90.021 394.226L91.1861 392.6ZM84.6146 385.463C83.229 382.857 82.6339 380.24 82.7967 377.596L80.8004 377.473C80.6129 380.52 81.3066 383.502 82.8488 386.402L84.6146 385.463ZM82.7967 377.596C82.9592 374.955 83.8769 372.45 85.5839 370.068L83.9583 368.903C82.0522 371.563 80.9881 374.424 80.8004 377.473L82.7967 377.596ZM85.5839 370.068C86.5956 368.656 87.7414 367.49 89.019 366.559L87.8417 364.943C86.3779 366.009 85.0841 367.332 83.9583 368.903L85.5839 370.068ZM89.0208 366.558C90.3063 365.618 91.6869 364.938 93.1663 364.513L92.614 362.591C90.9022 363.082 89.3097 363.869 87.8399 364.944L89.0208 366.558ZM93.1717 364.511C94.6352 364.082 96.1557 363.932 97.7403 364.065L97.9077 362.072C96.0857 361.919 94.317 362.091 92.6086 362.592L93.1717 364.511ZM97.7439 364.065C99.302 364.19 100.887 364.631 102.503 365.404L103.366 363.6C101.555 362.734 99.7334 362.218 97.9041 362.071L97.7439 364.065ZM137.366 345.233L136.483 345.702L136.483 345.702L137.366 345.233ZM139.299 353.63L140.297 353.692L140.297 353.692L139.299 353.63ZM129.659 367.081L130.038 368.006L130.038 368.006L129.659 367.081ZM121.086 367.949L121.247 366.962L121.247 366.962L121.086 367.949ZM112.629 334.516L112.25 333.591L112.25 333.591L112.629 334.516ZM121.202 333.648L121.041 334.635L121.041 334.635L121.202 333.648ZM120.611 337.856L120.439 338.841L120.443 338.842L120.611 337.856ZM114.142 338.44L114.521 339.365L114.524 339.364L114.142 338.44ZM107.181 348.153L106.183 348.088L106.183 348.091L107.181 348.153ZM108.706 354.467L107.827 354.944L107.829 354.947L108.706 354.467ZM121.666 363.755L121.494 364.74L121.498 364.741L121.666 363.755ZM128.136 363.171L128.516 364.096L128.518 364.095L128.136 363.171ZM135.097 353.458L134.099 353.393L134.099 353.396L135.097 353.458ZM133.571 347.144L132.692 347.62L132.694 347.624L133.571 347.144ZM129.912 338.565C132.932 340.729 135.106 343.113 136.483 345.702L138.249 344.763C136.698 341.846 134.291 339.243 131.077 336.939L129.912 338.565ZM136.483 345.702C137.869 348.308 138.464 350.925 138.301 353.569L140.297 353.692C140.485 350.645 139.791 347.663 138.249 344.763L136.483 345.702ZM138.301 353.569C138.138 356.21 137.221 358.715 135.514 361.097L137.139 362.262C139.045 359.602 140.11 356.741 140.297 353.692L138.301 353.569ZM135.514 361.097C133.807 363.479 131.729 365.153 129.28 366.155L130.038 368.006C132.866 366.849 135.233 364.922 137.139 362.262L135.514 361.097ZM129.28 366.155C126.829 367.159 124.16 367.436 121.247 366.962L120.925 368.936C124.167 369.464 127.213 369.163 130.038 368.006L129.28 366.155ZM121.247 366.962C118.353 366.49 115.397 365.197 112.376 363.032L111.211 364.658C114.426 366.962 117.665 368.404 120.925 368.936L121.247 366.962ZM112.376 363.032C109.356 360.868 107.182 358.484 105.805 355.895L104.039 356.834C105.59 359.751 107.997 362.354 111.211 364.658L112.376 363.032ZM105.805 355.895C104.419 353.289 103.824 350.672 103.987 348.028L101.991 347.905C101.803 350.952 102.497 353.934 104.039 356.834L105.805 355.895ZM103.987 348.028C104.15 345.387 105.067 342.882 106.774 340.5L105.149 339.335C103.242 341.995 102.178 344.856 101.991 347.905L103.987 348.028ZM106.774 340.5C108.481 338.118 110.559 336.444 113.007 335.442L112.25 333.591C109.422 334.748 107.055 336.675 105.149 339.335L106.774 340.5ZM113.007 335.442C115.459 334.438 118.128 334.161 121.041 334.635L121.363 332.661C118.121 332.133 115.075 332.434 112.25 333.591L113.007 335.442ZM121.041 334.635C123.935 335.107 126.891 336.4 129.912 338.565L131.077 336.939C127.862 334.635 124.623 333.193 121.363 332.661L121.041 334.635ZM128.594 340.403C125.948 338.506 123.342 337.308 120.78 336.87L120.443 338.842C122.629 339.215 124.957 340.256 127.429 342.028L128.594 340.403ZM120.784 336.871C118.257 336.428 115.904 336.629 113.759 337.516L114.524 339.364C116.27 338.642 118.231 338.454 120.439 338.841L120.784 336.871ZM113.762 337.515C111.641 338.385 109.883 339.801 108.497 341.735L110.122 342.9C111.301 341.255 112.765 340.086 114.521 339.365L113.762 337.515ZM108.497 341.735C107.111 343.669 106.332 345.792 106.183 348.088L108.179 348.218C108.303 346.312 108.944 344.545 110.122 342.9L108.497 341.735ZM106.183 348.091C106.039 350.396 106.604 352.686 107.827 354.944L109.586 353.991C108.514 352.013 108.062 350.093 108.179 348.215L106.183 348.091ZM107.829 354.947C109.074 357.222 111.049 359.299 113.694 361.194L114.859 359.569C112.385 357.796 110.647 355.93 109.584 353.987L107.829 354.947ZM113.694 361.194C116.339 363.09 118.94 364.293 121.494 364.74L121.839 362.77C119.658 362.388 117.332 361.341 114.859 359.569L113.694 361.194ZM121.498 364.741C124.029 365.173 126.379 364.973 128.516 364.096L127.757 362.246C126.016 362.96 124.053 363.149 121.835 362.77L121.498 364.741ZM128.518 364.095C130.645 363.216 132.405 361.796 133.791 359.862L132.165 358.697C130.987 360.342 129.519 361.517 127.754 362.247L128.518 364.095ZM133.791 359.862C135.177 357.928 135.953 355.809 136.095 353.52L134.099 353.396C133.981 355.291 133.344 357.052 132.165 358.697L133.791 359.862ZM136.095 353.523C136.246 351.207 135.68 348.915 134.448 346.664L132.694 347.624C133.77 349.59 134.222 351.508 134.099 353.393L136.095 353.523ZM134.451 346.668C133.213 344.382 131.24 342.299 128.594 340.403L127.429 342.028C129.902 343.8 131.636 345.67 132.692 347.62L134.451 346.668ZM120.029 321.142L119.216 320.56L118.633 321.373L119.446 321.955L120.029 321.142ZM123.09 316.871L123.321 315.898L122.668 315.742L122.277 316.288L123.09 316.871ZM154.824 324.409L154.592 325.382L155.245 325.537L155.636 324.991L154.824 324.409ZM155.072 324.063L155.885 324.645L156.276 324.1L155.919 323.531L155.072 324.063ZM137.736 296.435L136.923 295.852L136.532 296.398L136.889 296.966L137.736 296.435ZM140.798 292.163L141.38 291.35L140.567 290.767L139.985 291.58L140.798 292.163ZM170.354 313.345L171.167 313.928L171.75 313.115L170.937 312.533L170.354 313.345ZM167.955 316.694L167.372 317.506L168.185 318.089L168.768 317.276L167.955 316.694ZM145.499 300.6L146.081 299.787L145.268 299.204L144.686 300.017L145.499 300.6ZM145.292 300.888L144.479 300.306L144.089 300.85L144.444 301.419L145.292 300.888ZM161.128 326.219L161.941 326.801L162.332 326.257L161.976 325.689L161.128 326.219ZM158.812 329.452L158.582 330.425L159.234 330.579L159.624 330.034L158.812 329.452ZM129.736 322.594L129.965 321.621L129.313 321.467L128.923 322.012L129.736 322.594ZM129.529 322.883L128.716 322.3L128.134 323.113L128.946 323.696L129.529 322.883ZM151.985 338.977L152.798 339.559L153.381 338.746L152.568 338.164L151.985 338.977ZM149.586 342.325L149.003 343.138L149.816 343.72L150.398 342.908L149.586 342.325ZM120.842 321.725L123.903 317.453L122.277 316.288L119.216 320.56L120.842 321.725ZM122.859 317.843L154.592 325.382L155.055 323.436L123.321 315.898L122.859 317.843ZM155.636 324.991L155.885 324.645L154.259 323.48L154.011 323.826L155.636 324.991ZM155.919 323.531L138.583 295.903L136.889 296.966L154.225 324.594L155.919 323.531ZM138.549 297.017L141.61 292.745L139.985 291.58L136.923 295.852L138.549 297.017ZM140.215 292.976L169.772 314.158L170.937 312.533L141.38 291.35L140.215 292.976ZM169.542 312.763L167.142 316.111L168.768 317.276L171.167 313.928L169.542 312.763ZM168.537 315.881L146.081 299.787L144.916 301.413L167.372 317.506L168.537 315.881ZM144.686 300.017L144.479 300.306L146.105 301.471L146.311 301.182L144.686 300.017ZM144.444 301.419L160.281 326.749L161.976 325.689L146.14 300.358L144.444 301.419ZM160.316 325.636L157.999 328.869L159.624 330.034L161.941 326.801L160.316 325.636ZM159.041 328.478L129.965 321.621L129.506 323.568L158.582 330.425L159.041 328.478ZM128.923 322.012L128.716 322.3L130.342 323.465L130.549 323.177L128.923 322.012ZM128.946 323.696L151.403 339.79L152.568 338.164L130.111 322.07L128.946 323.696ZM151.172 338.394L148.773 341.742L150.398 342.908L152.798 339.559L151.172 338.394ZM150.168 341.512L120.611 320.33L119.446 321.955L149.003 343.138L150.168 341.512ZM148.506 281.407L149.088 280.594L148.275 280.012L147.693 280.825L148.506 281.407ZM178.063 302.59L178.875 303.172L179.458 302.36L178.645 301.777L178.063 302.59ZM175.498 306.169L174.915 306.982L175.728 307.564L176.31 306.752L175.498 306.169ZM145.941 284.986L145.128 284.404L144.545 285.217L145.358 285.799L145.941 284.986ZM147.923 282.22L177.48 303.403L178.645 301.777L149.088 280.594L147.923 282.22ZM177.25 302.007L174.685 305.586L176.31 306.752L178.875 303.172L177.25 302.007ZM176.08 305.356L146.523 284.174L145.358 285.799L174.915 306.982L176.08 305.356ZM146.753 285.569L149.319 281.99L147.693 280.825L145.128 284.404L146.753 285.569ZM170.446 250.793L171.028 249.98L170.216 249.398L169.633 250.211L170.446 250.793ZM200.003 271.976L200.816 272.558L201.398 271.745L200.585 271.163L200.003 271.976ZM197.521 275.439L197.505 276.439L198.029 276.447L198.333 276.022L197.521 275.439ZM162.771 274.914L162.786 273.914L162.263 273.906L161.958 274.332L162.771 274.914ZM162.564 275.203L161.751 274.62L161.169 275.433L161.981 276.015L162.564 275.203ZM185.771 291.834L186.584 292.417L187.166 291.604L186.353 291.021L185.771 291.834ZM183.206 295.413L182.623 296.226L183.436 296.809L184.019 295.996L183.206 295.413ZM153.649 274.231L152.836 273.648L152.253 274.461L153.066 275.044L153.649 274.231ZM156.131 270.767L156.146 269.767L155.623 269.76L155.318 270.185L156.131 270.767ZM190.98 271.276L190.965 272.276L191.488 272.284L191.793 271.859L190.98 271.276ZM191.187 270.988L192 271.57L192.582 270.757L191.769 270.175L191.187 270.988ZM167.922 254.315L167.109 253.732L166.527 254.545L167.34 255.127L167.922 254.315ZM169.863 251.606L199.42 272.789L200.585 271.163L171.028 249.98L169.863 251.606ZM199.19 271.393L196.708 274.857L198.333 276.022L200.816 272.558L199.19 271.393ZM197.536 274.44L162.786 273.914L162.756 275.914L197.505 276.439L197.536 274.44ZM161.958 274.332L161.751 274.62L163.377 275.785L163.584 275.497L161.958 274.332ZM161.981 276.015L185.188 292.647L186.353 291.021L163.147 274.39L161.981 276.015ZM184.958 291.252L182.393 294.831L184.019 295.996L186.584 292.417L184.958 291.252ZM183.788 294.601L154.231 273.418L153.066 275.044L182.623 296.226L183.788 294.601ZM154.462 274.813L156.944 271.35L155.318 270.185L152.836 273.648L154.462 274.813ZM156.117 271.767L190.965 272.276L190.994 270.276L156.146 269.767L156.117 271.767ZM191.793 271.859L192 271.57L190.374 270.405L190.167 270.694L191.793 271.859ZM191.769 270.175L168.505 253.502L167.34 255.127L190.604 271.8L191.769 270.175ZM168.735 254.897L171.259 251.376L169.633 250.211L167.109 253.732L168.735 254.897ZM199.295 230.046L198.994 230.999L199.686 231.218L200.108 230.628L199.295 230.046ZM195.783 229.429L195.741 230.428L195.748 230.429L195.755 230.429L195.783 229.429ZM192.478 229.835L192.76 230.794L192.767 230.792L192.478 229.835ZM189.506 231.331L188.911 230.527L188.911 230.527L189.506 231.331ZM184.896 239.714L183.898 239.655L184.896 239.714ZM186.442 245.999L187.319 245.519L187.319 245.519L186.442 245.999ZM199.413 255.273L199.244 256.259L199.244 256.259L199.413 255.273ZM205.903 254.66L206.288 255.583L205.903 254.66ZM212.921 245.447L213.915 245.558L213.915 245.556L212.921 245.447ZM212.004 240.202L211.103 240.636L211.104 240.638L212.004 240.202ZM208.071 235.723L207.396 234.986L206.487 235.818L207.489 236.536L208.071 235.723ZM209.088 234.792L209.901 235.375L208.413 234.055L209.088 234.792ZM202.717 243.682L202.134 244.495L202.947 245.078L203.53 244.265L202.717 243.682ZM199.542 241.407L198.729 240.824L198.146 241.637L198.959 242.22L199.542 241.407ZM207.609 230.15L208.192 229.337L207.379 228.754L206.797 229.567L207.609 230.15ZM216.017 238.535L215.107 238.947L215.108 238.951L216.017 238.535ZM217.141 245.806L218.133 245.931L218.134 245.929L217.141 245.806ZM207.354 258.671L207.735 259.595L207.737 259.594L207.354 258.671ZM198.791 259.524L198.62 260.509L198.623 260.51L198.791 259.524ZM183.895 249.919L183.083 250.502L183.085 250.505L183.895 249.919ZM181.027 243.801L182.001 243.573L182.001 243.573L181.027 243.801ZM180.934 237.53L179.955 237.328L180.934 237.53ZM187.445 227.713L188.02 228.532L188.027 228.527L187.445 227.713ZM192.019 225.508L192.284 226.472L192.294 226.469L192.019 225.508ZM196.977 225.02L196.897 226.017L196.901 226.017L196.977 225.02ZM201.943 226.351L202.756 226.934L203.458 225.954L202.366 225.445L201.943 226.351ZM199.597 229.092C198.318 228.688 197.055 228.465 195.811 228.43L195.755 230.429C196.796 230.458 197.875 230.646 198.994 230.999L199.597 229.092ZM195.826 228.43C194.573 228.377 193.359 228.525 192.19 228.877L192.767 230.792C193.714 230.507 194.704 230.384 195.741 230.428L195.826 228.43ZM192.196 228.876C191.026 229.22 189.93 229.773 188.911 230.527L190.1 232.135C190.941 231.513 191.827 231.069 192.76 230.794L192.196 228.876ZM188.911 230.527C187.887 231.285 186.968 232.241 186.15 233.382L187.776 234.547C188.488 233.553 189.265 232.753 190.1 232.135L188.911 230.527ZM186.15 233.382C184.789 235.281 184.032 237.378 183.898 239.655L185.894 239.773C186.006 237.886 186.627 236.15 187.776 234.547L186.15 233.382ZM183.898 239.655C183.762 241.951 184.335 244.232 185.565 246.479L187.319 245.519C186.242 243.55 185.784 241.64 185.894 239.773L183.898 239.655ZM185.565 246.479C186.81 248.754 188.784 250.831 191.429 252.726L192.595 251.101C190.121 249.328 188.383 247.462 187.319 245.519L185.565 246.479ZM191.429 252.726C194.076 254.623 196.682 255.821 199.244 256.259L199.581 254.287C197.394 253.914 195.067 252.873 192.595 251.101L191.429 252.726ZM199.244 256.259C201.779 256.692 204.137 256.48 206.288 255.583L205.518 253.737C203.764 254.469 201.795 254.665 199.581 254.287L199.244 256.259ZM206.288 255.583C208.423 254.692 210.198 253.248 211.61 251.279L209.984 250.114C208.775 251.801 207.288 252.999 205.518 253.737L206.288 255.583ZM211.61 251.279C212.908 249.467 213.691 247.558 213.915 245.558L211.927 245.335C211.746 246.948 211.113 248.539 209.984 250.114L211.61 251.279ZM213.915 245.556C214.135 243.543 213.796 241.606 212.904 239.766L211.104 240.638C211.834 242.145 212.106 243.704 211.927 245.338L213.915 245.556ZM212.905 239.769C212.007 237.902 210.573 236.286 208.654 234.911L207.489 236.536C209.187 237.753 210.375 239.123 211.103 240.636L212.905 239.769ZM208.747 236.461L209.764 235.53L208.413 234.055L207.396 234.986L208.747 236.461ZM208.275 234.21L201.904 243.1L203.53 244.265L209.901 235.375L208.275 234.21ZM203.299 242.869L200.124 240.594L198.959 242.22L202.134 244.495L203.299 242.869ZM200.355 241.989L208.422 230.732L206.797 229.567L198.729 240.824L200.355 241.989ZM207.027 230.963L210.202 233.238L211.367 231.612L208.192 229.337L207.027 230.963ZM210.202 233.238C212.518 234.898 214.136 236.804 215.107 238.947L216.928 238.122C215.79 235.608 213.919 233.442 211.367 231.612L210.202 233.238ZM215.108 238.951C216.093 241.102 216.438 243.339 216.149 245.684L218.134 245.929C218.469 243.216 218.065 240.606 216.927 238.119L215.108 238.951ZM216.149 245.682C215.858 248.007 214.932 250.282 213.332 252.513L214.958 253.678C216.724 251.215 217.795 248.63 218.133 245.931L216.149 245.682ZM213.332 252.513C211.552 254.998 209.43 256.727 206.971 257.747L207.737 259.594C210.581 258.415 212.987 256.428 214.958 253.678L213.332 252.513ZM206.973 257.746C204.516 258.758 201.854 259.03 198.958 258.538L198.623 260.51C201.855 261.059 204.901 260.763 207.735 259.595L206.973 257.746ZM198.962 258.539C196.084 258.039 193.135 256.731 190.112 254.564L188.947 256.19C192.159 258.491 195.384 259.948 198.62 260.509L198.962 258.539ZM190.112 254.564C187.846 252.94 186.05 251.194 184.706 249.333L183.085 250.505C184.577 252.57 186.537 254.463 188.947 256.19L190.112 254.564ZM184.707 249.336C183.353 247.449 182.458 245.529 182.001 243.573L180.054 244.028C180.578 246.271 181.595 248.43 183.083 250.502L184.707 249.336ZM182.001 243.573C181.543 241.613 181.515 239.669 181.914 237.732L179.955 237.328C179.497 239.554 179.531 241.79 180.054 244.028L182.001 243.573ZM181.914 237.732C182.311 235.801 183.143 233.94 184.427 232.148L182.802 230.983C181.37 232.981 180.414 235.097 179.955 237.328L181.914 237.732ZM184.427 232.148C185.485 230.672 186.683 229.47 188.02 228.532L186.871 226.895C185.334 227.974 183.978 229.341 182.802 230.983L184.427 232.148ZM188.027 228.527C189.37 227.566 190.789 226.884 192.284 226.472L191.753 224.544C190.019 225.021 188.388 225.81 186.864 226.9L188.027 228.527ZM192.294 226.469C193.789 226.042 195.321 225.89 196.897 226.017L197.057 224.024C195.246 223.878 193.472 224.052 191.744 224.546L192.294 226.469ZM196.901 226.017C198.458 226.137 199.996 226.547 201.521 227.258L202.366 225.445C200.637 224.639 198.865 224.162 197.054 224.023L196.901 226.017ZM201.13 225.769L198.483 229.463L200.108 230.628L202.756 226.934L201.13 225.769ZM224.389 191.13L223.906 192.006L224.684 192.435L225.202 191.712L224.389 191.13ZM219.473 190.796L219.833 191.729L219.833 191.729L219.473 190.796ZM213.187 198.349L212.209 198.136L212.209 198.139L213.187 198.349ZM213.299 201.881L212.347 202.187L212.349 202.195L213.299 201.881ZM217.683 205.394L217.646 206.394L217.655 206.394L217.665 206.394L217.683 205.394ZM220.138 204.926L220.516 205.852L220.527 205.847L220.138 204.926ZM222.392 203.701L222.954 204.528L222.965 204.521L222.392 203.701ZM224.248 202.3L223.614 201.527L223.61 201.53L224.248 202.3ZM227.207 199.878L227.841 200.652L227.846 200.648L227.207 199.878ZM229.885 197.909L230.44 198.741L230.443 198.739L229.885 197.909ZM233.298 196.226L233.623 197.172L233.635 197.167L233.298 196.226ZM237.187 195.736L237.272 194.74L237.272 194.74L237.187 195.736ZM244.734 201.757L243.803 202.121L243.805 202.126L244.734 201.757ZM245.202 207.597L244.218 207.42L244.217 207.422L245.202 207.597ZM237.229 218.965L237.736 219.828L237.738 219.826L237.229 218.965ZM231.765 220.554L231.765 221.554L231.77 221.554L231.765 220.554ZM226.442 218.99L225.63 218.407L225.004 219.28L225.919 219.842L226.442 218.99ZM229.09 215.295L229.601 214.435L228.812 213.967L228.277 214.713L229.09 215.295ZM232.668 216.155L232.776 217.15L232.79 217.148L232.668 216.155ZM236.084 214.802L236.657 215.622L236.666 215.615L236.084 214.802ZM240.935 207.728L241.908 207.961L241.91 207.954L240.935 207.728ZM240.911 203.8L241.872 203.527L241.871 203.521L240.911 203.8ZM235.779 199.926L235.674 198.932L235.674 198.932L235.779 199.926ZM232.727 201.015L233.243 201.872L233.243 201.872L232.727 201.015ZM229.638 203.192L230.259 203.976L230.265 203.971L229.638 203.192ZM225.992 206.084L226.612 206.869L226.614 206.868L225.992 206.084ZM219.219 209.531L219.425 210.509L219.425 210.509L219.219 209.531ZM209.568 203.642L208.619 203.955L208.619 203.957L209.568 203.642ZM209.288 197.936L210.268 198.134L210.269 198.131L209.288 197.936ZM216.586 187.722L217.081 188.592L217.085 188.589L216.586 187.722ZM221.881 186.187L221.895 187.187L221.9 187.186L221.881 186.187ZM226.872 187.666L227.684 188.249L228.286 187.409L227.428 186.835L226.872 187.666ZM224.872 190.254C223.027 189.237 221.08 189.104 219.113 189.863L219.833 191.729C221.248 191.183 222.579 191.273 223.906 192.006L224.872 190.254ZM219.113 189.863C217.205 190.599 215.572 191.963 214.2 193.876L215.826 195.041C217.02 193.376 218.36 192.297 219.833 191.729L219.113 189.863ZM214.2 193.876C213.201 195.271 212.524 196.692 212.209 198.136L214.164 198.562C214.409 197.436 214.95 196.263 215.826 195.041L214.2 193.876ZM212.209 198.139C211.904 199.56 211.938 200.918 212.347 202.187L214.25 201.574C213.964 200.685 213.922 199.688 214.164 198.558L212.209 198.139ZM212.349 202.195C212.773 203.472 213.553 204.517 214.662 205.312L215.828 203.686C215.051 203.13 214.534 202.429 214.248 201.566L212.349 202.195ZM214.662 205.312C215.585 205.973 216.583 206.354 217.646 206.394L217.721 204.395C217.11 204.372 216.483 204.156 215.828 203.686L214.662 205.312ZM217.665 206.394C218.64 206.412 219.593 206.228 220.516 205.851L219.76 204C219.078 204.278 218.394 204.407 217.701 204.395L217.665 206.394ZM220.527 205.847C221.38 205.487 222.19 205.047 222.954 204.528L221.83 202.874C221.175 203.319 220.482 203.695 219.75 204.004L220.527 205.847ZM222.965 204.521C223.682 204.02 224.323 203.536 224.886 203.071L223.61 201.53C223.098 201.954 222.502 202.405 221.819 202.881L222.965 204.521ZM224.881 203.074L227.841 200.652L226.574 199.104L223.614 201.527L224.881 203.074ZM227.846 200.648C228.567 200.05 229.43 199.414 230.44 198.741L229.331 197.077C228.277 197.779 227.355 198.456 226.569 199.108L227.846 200.648ZM230.443 198.739C231.406 198.092 232.465 197.569 233.623 197.171L232.973 195.28C231.658 195.732 230.442 196.331 229.328 197.078L230.443 198.739ZM233.635 197.167C234.728 196.776 235.88 196.629 237.103 196.733L237.272 194.74C235.776 194.613 234.335 194.793 232.961 195.284L233.635 197.167ZM237.103 196.733C238.243 196.829 239.447 197.297 240.722 198.211L241.887 196.586C240.391 195.514 238.85 194.874 237.272 194.74L237.103 196.733ZM240.722 198.211C242.169 199.248 243.187 200.548 243.803 202.121L245.666 201.392C244.903 199.444 243.635 197.838 241.887 196.586L240.722 198.211ZM243.805 202.126C244.422 203.679 244.574 205.433 244.218 207.42L246.186 207.773C246.599 205.477 246.439 203.338 245.664 201.387L243.805 202.126ZM244.217 207.422C243.872 209.371 242.946 211.436 241.382 213.619L243.007 214.784C244.697 212.426 245.777 210.087 246.187 207.771L244.217 207.422ZM241.382 213.619C239.926 215.65 238.368 217.131 236.721 218.104L237.738 219.826C239.677 218.681 241.429 216.986 243.007 214.784L241.382 213.619ZM236.722 218.103C235.07 219.074 233.42 219.546 231.76 219.554L231.77 221.554C233.823 221.544 235.815 220.956 237.736 219.828L236.722 218.103ZM231.765 219.554C230.115 219.554 228.52 219.092 226.965 218.137L225.919 219.842C227.763 220.974 229.717 221.554 231.765 221.554L231.765 219.554ZM227.255 219.572L229.903 215.878L228.277 214.713L225.63 218.407L227.255 219.572ZM228.58 216.155C229.923 216.953 231.331 217.306 232.776 217.149L232.56 215.161C231.605 215.265 230.627 215.045 229.601 214.435L228.58 216.155ZM232.79 217.148C234.164 216.979 235.456 216.462 236.657 215.622L235.511 213.983C234.552 214.653 233.567 215.038 232.546 215.163L232.79 217.148ZM236.666 215.615C237.84 214.775 238.875 213.722 239.775 212.467L238.149 211.302C237.366 212.395 236.482 213.287 235.502 213.99L236.666 215.615ZM239.775 212.467C240.817 211.013 241.537 209.51 241.908 207.961L239.963 207.495C239.661 208.755 239.065 210.024 238.149 211.302L239.775 212.467ZM241.91 207.954C242.269 206.404 242.269 204.92 241.872 203.527L239.949 204.074C240.239 205.095 240.256 206.231 239.961 207.503L241.91 207.954ZM241.871 203.521C241.452 202.081 240.597 200.904 239.347 200.008L238.182 201.633C239.087 202.282 239.663 203.092 239.95 204.08L241.871 203.521ZM239.347 200.008C238.206 199.19 236.971 198.794 235.674 198.932L235.885 200.921C236.605 200.844 237.36 201.044 238.182 201.633L239.347 200.008ZM235.674 198.932C234.495 199.057 233.339 199.478 232.21 200.159L233.243 201.872C234.167 201.315 235.045 201.01 235.885 200.921L235.674 198.932ZM232.21 200.159C231.142 200.804 230.075 201.556 229.01 202.413L230.265 203.971C231.267 203.164 232.26 202.465 233.243 201.872L232.21 200.159ZM229.016 202.409L225.371 205.301L226.614 206.868L230.259 203.976L229.016 202.409ZM225.372 205.3C223.137 207.067 221.018 208.129 219.012 208.553L219.425 210.509C221.813 210.005 224.209 208.769 226.612 206.869L225.372 205.3ZM219.012 208.553C217.116 208.953 215.305 208.554 213.518 207.274L212.353 208.899C214.55 210.474 216.927 211.038 219.425 210.509L219.012 208.553ZM213.518 207.274C212.019 206.2 211.035 204.886 210.517 203.326L208.619 203.957C209.282 205.952 210.543 207.602 212.353 208.899L213.518 207.274ZM210.518 203.328C209.984 201.713 209.893 199.989 210.268 198.134L208.308 197.738C207.87 199.903 207.966 201.983 208.619 203.955L210.518 203.328ZM210.269 198.131C210.641 196.261 211.455 194.435 212.734 192.651L211.108 191.485C209.684 193.473 208.742 195.559 208.307 197.741L210.269 198.131ZM212.734 192.651C214.029 190.843 215.481 189.501 217.081 188.592L216.092 186.853C214.202 187.928 212.543 189.482 211.108 191.485L212.734 192.651ZM217.085 188.589C218.69 187.665 220.29 187.209 221.895 187.187L221.867 185.187C219.883 185.214 217.953 185.782 216.087 186.856L217.085 188.589ZM221.9 187.186C223.493 187.156 224.956 187.588 226.316 188.497L227.428 186.835C225.735 185.703 223.872 185.149 221.862 185.187L221.9 187.186ZM226.059 187.084L223.576 190.547L225.202 191.712L227.684 188.249L226.059 187.084ZM263.512 169.215L262.629 169.685L262.629 169.685L263.512 169.215ZM265.446 177.613L266.444 177.674L266.444 177.674L265.446 177.613ZM255.806 191.063L256.185 191.989L256.185 191.989L255.806 191.063ZM247.232 191.931L247.393 190.944L247.393 190.944L247.232 191.931ZM238.775 158.499L238.396 157.573L238.396 157.573L238.775 158.499ZM247.348 157.631L247.188 158.618L247.188 158.618L247.348 157.631ZM246.758 161.839L246.585 162.824L246.589 162.824L246.758 161.839ZM240.288 162.423L240.667 163.348L240.67 163.347L240.288 162.423ZM233.327 172.136L232.329 172.071L232.329 172.074L233.327 172.136ZM234.853 178.45L233.973 178.926L233.976 178.93L234.853 178.45ZM247.813 187.738L247.64 188.723L247.645 188.724L247.813 187.738ZM254.283 187.154L254.662 188.079L254.665 188.078L254.283 187.154ZM261.243 177.441L260.246 177.376L260.245 177.379L261.243 177.441ZM259.718 171.127L258.838 171.603L258.84 171.607L259.718 171.127ZM256.058 162.547C259.078 164.712 261.253 167.095 262.629 169.685L264.395 168.746C262.844 165.829 260.437 163.225 257.223 160.922L256.058 162.547ZM262.629 169.685C264.015 172.29 264.61 174.907 264.447 177.551L266.444 177.674C266.631 174.627 265.937 171.646 264.395 168.746L262.629 169.685ZM264.447 177.551C264.285 180.193 263.367 182.697 261.66 185.079L263.286 186.244C265.192 183.585 266.256 180.724 266.444 177.674L264.447 177.551ZM261.66 185.079C259.953 187.461 257.876 189.135 255.427 190.138L256.185 191.989C259.012 190.831 261.38 188.904 263.286 186.244L261.66 185.079ZM255.427 190.138C252.975 191.142 250.306 191.419 247.393 190.944L247.072 192.918C250.313 193.447 253.36 193.145 256.185 191.989L255.427 190.138ZM247.393 190.944C244.499 190.472 241.543 189.179 238.523 187.015L237.358 188.64C240.572 190.944 243.811 192.387 247.072 192.918L247.393 190.944ZM238.523 187.015C235.502 184.85 233.328 182.467 231.951 179.877L230.186 180.816C231.737 183.733 234.143 186.337 237.358 188.64L238.523 187.015ZM231.951 179.877C230.566 177.272 229.971 174.655 230.133 172.011L228.137 171.888C227.95 174.935 228.643 177.916 230.186 180.816L231.951 179.877ZM230.133 172.011C230.296 169.37 231.214 166.865 232.921 164.483L231.295 163.318C229.389 165.977 228.325 168.839 228.137 171.888L230.133 172.011ZM232.921 164.483C234.628 162.101 236.705 160.427 239.154 159.424L238.396 157.573C235.569 158.731 233.201 160.658 231.295 163.318L232.921 164.483ZM239.154 159.424C241.606 158.42 244.275 158.143 247.188 158.618L247.509 156.644C244.267 156.115 241.221 156.417 238.396 157.573L239.154 159.424ZM247.188 158.618C250.082 159.09 253.038 160.383 256.058 162.547L257.223 160.922C254.009 158.618 250.77 157.175 247.509 156.644L247.188 158.618ZM254.741 164.385C252.095 162.489 249.488 161.29 246.926 160.853L246.589 162.824C248.776 163.198 251.103 164.239 253.576 166.011L254.741 164.385ZM246.93 160.854C244.403 160.41 242.051 160.612 239.906 161.499L240.67 163.347C242.417 162.625 244.377 162.436 246.585 162.824L246.93 160.854ZM239.909 161.498C237.787 162.368 236.029 163.783 234.643 165.717L236.269 166.882C237.448 165.237 238.912 164.068 240.667 163.348L239.909 161.498ZM234.643 165.717C233.257 167.651 232.479 169.774 232.329 172.071L234.325 172.201C234.449 170.295 235.09 168.527 236.269 166.882L234.643 165.717ZM232.329 172.074C232.186 174.379 232.751 176.668 233.973 178.926L235.732 177.974C234.661 175.995 234.209 174.075 234.325 172.198L232.329 172.074ZM233.976 178.93C235.22 181.204 237.195 183.281 239.84 185.177L241.005 183.551C238.532 181.778 236.793 179.913 235.73 177.97L233.976 178.93ZM239.84 185.177C242.485 187.072 245.086 188.275 247.64 188.723L247.986 186.753C245.804 186.37 243.479 185.324 241.005 183.551L239.84 185.177ZM247.645 188.724C250.175 189.156 252.525 188.955 254.662 188.079L253.903 186.228C252.162 186.942 250.199 187.131 247.981 186.752L247.645 188.724ZM254.665 188.078C256.791 187.198 258.551 185.779 259.938 183.845L258.312 182.68C257.133 184.325 255.665 185.5 253.9 186.23L254.665 188.078ZM259.938 183.845C261.324 181.911 262.099 179.791 262.241 177.503L260.245 177.379C260.128 179.273 259.491 181.035 258.312 182.68L259.938 183.845ZM262.241 177.506C262.392 175.19 261.827 172.897 260.595 170.647L258.84 171.607C259.917 173.573 260.368 175.49 260.246 177.376L262.241 177.506ZM260.597 170.65C259.359 168.365 257.387 166.282 254.741 164.385L253.576 166.011C256.048 167.783 257.782 169.652 258.838 171.603L260.597 170.65ZM285.698 138.258L284.815 138.728L284.815 138.728L285.698 138.258ZM287.631 146.656L288.63 146.717L288.63 146.717L287.631 146.656ZM277.992 160.107L278.371 161.032L278.371 161.032L277.992 160.107ZM269.418 160.974L269.579 159.987L269.579 159.987L269.418 160.974ZM260.961 127.542L260.582 126.616L260.582 126.616L260.961 127.542ZM269.534 126.674L269.373 127.661L269.373 127.661L269.534 126.674ZM268.944 130.882L268.771 131.867L268.775 131.867L268.944 130.882ZM262.474 131.466L262.853 132.391L262.856 132.39L262.474 131.466ZM255.513 141.179L254.515 141.114L254.515 141.117L255.513 141.179ZM257.039 147.493L256.159 147.969L256.161 147.973L257.039 147.493ZM269.999 156.781L269.826 157.766L269.83 157.767L269.999 156.781ZM276.468 156.197L276.848 157.122L276.851 157.121L276.468 156.197ZM283.429 146.484L282.431 146.419L282.431 146.422L283.429 146.484ZM281.904 140.17L281.024 140.646L281.026 140.65L281.904 140.17ZM278.244 131.59C281.264 133.755 283.439 136.138 284.815 138.728L286.581 137.789C285.03 134.872 282.623 132.268 279.409 129.965L278.244 131.59ZM284.815 138.728C286.201 141.334 286.796 143.95 286.633 146.594L288.63 146.717C288.817 143.671 288.123 140.689 286.581 137.789L284.815 138.728ZM286.633 146.594C286.471 149.236 285.553 151.741 283.846 154.123L285.472 155.288C287.378 152.628 288.442 149.767 288.63 146.717L286.633 146.594ZM283.846 154.123C282.139 156.504 280.062 158.178 277.613 159.181L278.371 161.032C281.198 159.874 283.566 157.947 285.472 155.288L283.846 154.123ZM277.613 159.181C275.161 160.185 272.492 160.462 269.579 159.987L269.257 161.961C272.499 162.49 275.546 162.189 278.371 161.032L277.613 159.181ZM269.579 159.987C266.685 159.516 263.729 158.223 260.709 156.058L259.544 157.684C262.758 159.987 265.997 161.43 269.257 161.961L269.579 159.987ZM260.709 156.058C257.688 153.893 255.514 151.51 254.137 148.921L252.371 149.86C253.922 152.776 256.329 155.38 259.544 157.684L260.709 156.058ZM254.137 148.921C252.752 146.315 252.157 143.698 252.319 141.054L250.323 140.931C250.136 143.978 250.829 146.959 252.371 149.86L254.137 148.921ZM252.319 141.054C252.482 138.413 253.399 135.908 255.107 133.526L253.481 132.361C251.575 135.02 250.511 137.882 250.323 140.931L252.319 141.054ZM255.107 133.526C256.814 131.144 258.891 129.47 261.34 128.467L260.582 126.616C257.755 127.774 255.387 129.701 253.481 132.361L255.107 133.526ZM261.34 128.467C263.791 127.464 266.461 127.186 269.373 127.661L269.695 125.687C266.453 125.159 263.407 125.46 260.582 126.616L261.34 128.467ZM269.373 127.661C272.268 128.133 275.224 129.426 278.244 131.59L279.409 129.965C276.195 127.661 272.956 126.218 269.695 125.687L269.373 127.661ZM276.927 133.428C274.28 131.532 271.674 130.334 269.112 129.896L268.775 131.867C270.962 132.241 273.289 133.282 275.762 135.054L276.927 133.428ZM269.116 129.897C266.589 129.454 264.237 129.655 262.092 130.542L262.856 132.39C264.602 131.668 266.563 131.48 268.771 131.867L269.116 129.897ZM262.094 130.541C259.973 131.411 258.215 132.826 256.829 134.76L258.455 135.925C259.634 134.28 261.097 133.111 262.853 132.391L262.094 130.541ZM256.829 134.76C255.443 136.694 254.665 138.818 254.515 141.114L256.511 141.244C256.635 139.338 257.276 137.57 258.455 135.925L256.829 134.76ZM254.515 141.117C254.372 143.422 254.937 145.712 256.159 147.969L257.918 147.017C256.847 145.038 256.394 143.118 256.511 141.241L254.515 141.117ZM256.161 147.973C257.406 150.247 259.381 152.324 262.026 154.22L263.191 152.594C260.717 150.822 258.979 148.956 257.916 147.013L256.161 147.973ZM262.026 154.22C264.671 156.115 267.272 157.318 269.826 157.766L270.171 155.796C267.99 155.414 265.665 154.367 263.191 152.594L262.026 154.22ZM269.83 157.767C272.361 158.199 274.711 157.998 276.848 157.122L276.089 155.272C274.348 155.985 272.385 156.174 270.167 155.795L269.83 157.767ZM276.851 157.121C278.977 156.242 280.737 154.822 282.123 152.888L280.498 151.723C279.319 153.368 277.851 154.543 276.086 155.273L276.851 157.121ZM282.123 152.888C283.51 150.954 284.285 148.835 284.427 146.546L282.431 146.422C282.314 148.316 281.677 150.078 280.498 151.723L282.123 152.888ZM284.427 146.549C284.578 144.233 284.013 141.941 282.781 139.69L281.026 140.65C282.102 142.616 282.554 144.533 282.431 146.419L284.427 146.549ZM282.783 139.694C281.545 137.408 279.573 135.325 276.927 133.428L275.762 135.054C278.234 136.826 279.968 138.695 281.024 140.646L282.783 139.694ZM285.158 90.7304L285.741 89.9175L284.928 89.335L284.345 90.1478L285.158 90.7304ZM314.715 111.913L315.528 112.495L316.11 111.683L315.298 111.1L314.715 111.913ZM312.233 115.377L312.218 116.377L312.741 116.384L313.046 115.959L312.233 115.377ZM277.483 114.851L277.498 113.851L276.975 113.843L276.67 114.269L277.483 114.851ZM277.276 115.14L276.463 114.557L275.881 115.37L276.694 115.953L277.276 115.14ZM300.483 131.772L301.296 132.354L301.878 131.541L301.066 130.959L300.483 131.772ZM297.918 135.351L297.335 136.163L298.148 136.746L298.731 135.933L297.918 135.351ZM268.361 114.168L267.548 113.586L266.966 114.398L267.778 114.981L268.361 114.168ZM270.843 110.704L270.858 109.704L270.335 109.697L270.031 110.122L270.843 110.704ZM305.692 111.213L305.677 112.213L306.2 112.221L306.505 111.796L305.692 111.213ZM305.899 110.925L306.712 111.507L307.294 110.695L306.481 110.112L305.899 110.925ZM282.634 94.2518L281.822 93.6693L281.239 94.4821L282.052 95.0646L282.634 94.2518ZM284.576 91.5432L314.133 112.726L315.298 111.1L285.741 89.9175L284.576 91.5432ZM313.902 111.33L311.42 114.794L313.046 115.959L315.528 112.495L313.902 111.33ZM312.248 114.377L277.498 113.851L277.468 115.851L312.218 116.377L312.248 114.377ZM276.67 114.269L276.463 114.557L278.089 115.722L278.296 115.434L276.67 114.269ZM276.694 115.953L299.9 132.584L301.066 130.959L277.859 114.327L276.694 115.953ZM299.67 131.189L297.105 134.768L298.731 135.933L301.296 132.354L299.67 131.189ZM298.5 134.538L268.944 113.355L267.778 114.981L297.335 136.163L298.5 134.538ZM269.174 114.751L271.656 111.287L270.031 110.122L267.548 113.586L269.174 114.751ZM270.829 111.704L305.677 112.213L305.707 110.214L270.858 109.704L270.829 111.704ZM306.505 111.796L306.712 111.507L305.086 110.342L304.879 110.631L306.505 111.796ZM306.481 110.112L283.217 93.439L282.052 95.0646L305.316 111.738L306.481 110.112ZM283.447 94.8343L285.971 91.3129L284.345 90.1478L281.822 93.6693L283.447 94.8343Z" fill="black" fill-opacity="0.5" mask="url(#path-1-outside-1_936_535)"/>
<line x1="303.054" y1="0.302656" x2="0.398428" y2="398.297" stroke="black" stroke-opacity="0.5"/>
<line x1="407.054" y1="80.3027" x2="104.398" y2="478.297" stroke="black" stroke-opacity="0.5"/>
</svg>
