<svg width="66" height="63" viewBox="0 0 66 63" fill="none" xmlns="http://www.w3.org/2000/svg">
<g clip-path="url(#clip0_433_30)">
<path d="M52.2699 41.6541C52.0152 39.9393 51.6595 38.241 51.2049 36.5681C51.3049 36.5061 51.3998 36.4381 51.4928 36.3681C51.331 36.4906 51.1595 36.5996 50.9799 36.6941C50.9429 36.7141 50.9058 36.7321 50.8678 36.7511C50.8128 36.7781 50.7589 36.8031 50.7019 36.8271C50.6449 36.8511 50.6178 36.8631 50.5758 36.8781L50.5509 36.8881C50.5099 36.9051 50.4679 36.9191 50.4259 36.9341L50.4109 36.9391C50.3699 36.9531 50.3288 36.9661 50.2888 36.9771L50.2478 36.9901C50.2048 37.0031 50.1629 37.0141 50.1189 37.0241C50.0749 37.0341 50.0189 37.0481 49.9739 37.0581L49.9448 37.0631C49.9068 37.0721 49.8679 37.0781 49.8299 37.0851C49.7919 37.0921 49.7359 37.1001 49.6889 37.1071C49.6419 37.1141 49.5758 37.1211 49.5178 37.1261C49.4798 37.1301 49.4415 37.1327 49.4029 37.1341C49.3269 37.1391 49.2489 37.1421 49.1709 37.1421C48.6539 37.1442 48.1416 37.0422 47.6648 36.8421C48.2056 37.0738 48.7924 37.1785 49.3799 37.1481C49.806 38.7246 50.1399 40.3247 50.3799 41.9401C50.4228 42.1862 50.5603 42.4057 50.7631 42.5517C50.9658 42.6976 51.2177 42.7584 51.4647 42.7211C51.7118 42.6837 51.9343 42.5511 52.0847 42.3517C52.2352 42.1523 52.3017 41.9019 52.2699 41.6541ZM52.2699 41.6541C52.0152 39.9393 51.6595 38.241 51.2049 36.5681C51.3049 36.5061 51.3998 36.4381 51.4928 36.3681C51.331 36.4906 51.1595 36.5996 50.9799 36.6941C50.9429 36.7141 50.9058 36.7321 50.8678 36.7511C50.8128 36.7781 50.7589 36.8031 50.7019 36.8271C50.6449 36.8511 50.6178 36.8631 50.5758 36.8781L50.5509 36.8881C50.5099 36.9051 50.4679 36.9191 50.4259 36.9341L50.4109 36.9391C50.3699 36.9531 50.3288 36.9661 50.2888 36.9771L50.2478 36.9901C50.2048 37.0031 50.1629 37.0141 50.1189 37.0241C50.0749 37.0341 50.0189 37.0481 49.9739 37.0581L49.9448 37.0631C49.9068 37.0721 49.8679 37.0781 49.8299 37.0851C49.7919 37.0921 49.7359 37.1001 49.6889 37.1071C49.6419 37.1141 49.5758 37.1211 49.5178 37.1261C49.4798 37.1301 49.4415 37.1327 49.4029 37.1341C49.3269 37.1391 49.2489 37.1421 49.1709 37.1421C48.6539 37.1442 48.1416 37.0422 47.6648 36.8421C48.2056 37.0738 48.7924 37.1785 49.3799 37.1481C49.806 38.7246 50.1399 40.3247 50.3799 41.9401C50.4228 42.1862 50.5603 42.4057 50.7631 42.5517C50.9658 42.6976 51.2177 42.7584 51.4647 42.7211C51.7118 42.6837 51.9343 42.5511 52.0847 42.3517C52.2352 42.1523 52.3017 41.9019 52.2699 41.6541ZM52.2699 41.6541C52.0152 39.9393 51.6595 38.241 51.2049 36.5681C51.3049 36.5061 51.3998 36.4381 51.4928 36.3681C51.331 36.4906 51.1595 36.5996 50.9799 36.6941C50.9429 36.7141 50.9058 36.7321 50.8678 36.7511C50.8128 36.7781 50.7589 36.8031 50.7019 36.8271C50.6449 36.8511 50.6178 36.8631 50.5758 36.8781L50.5509 36.8881C50.5099 36.9051 50.4679 36.9191 50.4259 36.9341L50.4109 36.9391C50.3699 36.9531 50.3288 36.9661 50.2888 36.9771L50.2478 36.9901C50.2048 37.0031 50.1629 37.0141 50.1189 37.0241C50.0749 37.0341 50.0189 37.0481 49.9739 37.0581L49.9448 37.0631C49.9068 37.0721 49.8679 37.0781 49.8299 37.0851C49.7919 37.0921 49.7359 37.1001 49.6889 37.1071C49.6419 37.1141 49.5758 37.1211 49.5178 37.1261C49.4798 37.1301 49.4415 37.1327 49.4029 37.1341C49.3269 37.1391 49.2489 37.1421 49.1709 37.1421C48.6539 37.1442 48.1416 37.0422 47.6648 36.8421C48.2056 37.0738 48.7924 37.1785 49.3799 37.1481C49.806 38.7246 50.1399 40.3247 50.3799 41.9401C50.4228 42.1862 50.5603 42.4057 50.7631 42.5517C50.9658 42.6976 51.2177 42.7584 51.4647 42.7211C51.7118 42.6837 51.9343 42.5511 52.0847 42.3517C52.2352 42.1523 52.3017 41.9019 52.2699 41.6541ZM52.2699 41.6541C52.0152 39.9393 51.6595 38.241 51.2049 36.5681C51.3049 36.5061 51.3998 36.4381 51.4928 36.3681C51.331 36.4906 51.1595 36.5996 50.9799 36.6941C50.9429 36.7141 50.9058 36.7321 50.8678 36.7511C50.8128 36.7781 50.7589 36.8031 50.7019 36.8271C50.6449 36.8511 50.6178 36.8631 50.5758 36.8781L50.5509 36.8881C50.5099 36.9051 50.4679 36.9191 50.4259 36.9341L50.4109 36.9391C50.3699 36.9531 50.3288 36.9661 50.2888 36.9771L50.2478 36.9901C50.2048 37.0031 50.1629 37.0141 50.1189 37.0241C50.0749 37.0341 50.0189 37.0481 49.9739 37.0581L49.9448 37.0631C49.9068 37.0721 49.8679 37.0781 49.8299 37.0851C49.7919 37.0921 49.7359 37.1001 49.6889 37.1071C49.6419 37.1141 49.5758 37.1211 49.5178 37.1261C49.4798 37.1301 49.4415 37.1327 49.4029 37.1341C49.3269 37.1391 49.2489 37.1421 49.1709 37.1421C48.6539 37.1442 48.1416 37.0422 47.6648 36.8421C48.2056 37.0738 48.7924 37.1785 49.3799 37.1481C49.806 38.7246 50.1399 40.3247 50.3799 41.9401C50.4228 42.1862 50.5603 42.4057 50.7631 42.5517C50.9658 42.6976 51.2177 42.7584 51.4647 42.7211C51.7118 42.6837 51.9343 42.5511 52.0847 42.3517C52.2352 42.1523 52.3017 41.9019 52.2699 41.6541ZM52.2699 41.6541C52.0152 39.9393 51.6595 38.241 51.2049 36.5681C51.3049 36.5061 51.3998 36.4381 51.4928 36.3681C51.331 36.4906 51.1595 36.5996 50.9799 36.6941C50.9429 36.7141 50.9058 36.7321 50.8678 36.7511C50.8128 36.7781 50.7589 36.8031 50.7019 36.8271C50.6449 36.8511 50.6178 36.8631 50.5758 36.8781L50.5509 36.8881C50.5099 36.9051 50.4679 36.9191 50.4259 36.9341L50.4109 36.9391C50.3699 36.9531 50.3288 36.9661 50.2888 36.9771L50.2478 36.9901C50.2048 37.0031 50.1629 37.0141 50.1189 37.0241C50.0749 37.0341 50.0189 37.0481 49.9739 37.0581L49.9448 37.0631C49.9068 37.0721 49.8679 37.0781 49.8299 37.0851C49.7919 37.0921 49.7359 37.1001 49.6889 37.1071C49.6419 37.1141 49.5758 37.1211 49.5178 37.1261C49.4798 37.1301 49.4415 37.1327 49.4029 37.1341C49.3269 37.1391 49.2489 37.1421 49.1709 37.1421C48.6539 37.1442 48.1416 37.0422 47.6648 36.8421C48.2056 37.0738 48.7924 37.1785 49.3799 37.1481C49.806 38.7246 50.1399 40.3247 50.3799 41.9401C50.4228 42.1862 50.5603 42.4057 50.7631 42.5517C50.9658 42.6976 51.2177 42.7584 51.4647 42.7211C51.7118 42.6837 51.9343 42.5511 52.0847 42.3517C52.2352 42.1523 52.3017 41.9019 52.2699 41.6541ZM52.2699 41.6541C52.0152 39.9393 51.6595 38.241 51.2049 36.5681C51.3049 36.5061 51.3998 36.4381 51.4928 36.3681C51.331 36.4906 51.1595 36.5996 50.9799 36.6941C50.9429 36.7141 50.9058 36.7321 50.8678 36.7511C50.8128 36.7781 50.7589 36.8031 50.7019 36.8271C50.6449 36.8511 50.6178 36.8631 50.5758 36.8781L50.5509 36.8881C50.5099 36.9051 50.4679 36.9191 50.4259 36.9341L50.4109 36.9391C50.3699 36.9531 50.3288 36.9661 50.2888 36.9771L50.2478 36.9901C50.2048 37.0031 50.1629 37.0141 50.1189 37.0241C50.0749 37.0341 50.0189 37.0481 49.9739 37.0581L49.9448 37.0631C49.9068 37.0721 49.8679 37.0781 49.8299 37.0851C49.7919 37.0921 49.7359 37.1001 49.6889 37.1071C49.6419 37.1141 49.5758 37.1211 49.5178 37.1261C49.4798 37.1301 49.4415 37.1327 49.4029 37.1341C49.3269 37.1391 49.2489 37.1421 49.1709 37.1421C48.6539 37.1442 48.1416 37.0422 47.6648 36.8421C48.2056 37.0738 48.7924 37.1785 49.3799 37.1481C49.806 38.7246 50.1399 40.3247 50.3799 41.9401C50.4228 42.1862 50.5603 42.4057 50.7631 42.5517C50.9658 42.6976 51.2177 42.7584 51.4647 42.7211C51.7118 42.6837 51.9343 42.5511 52.0847 42.3517C52.2352 42.1523 52.3017 41.9019 52.2699 41.6541ZM60.8969 15.3691C61.4733 14.6949 61.8008 13.8432 61.8247 12.9565C61.8486 12.0698 61.5674 11.2018 61.0281 10.4975C60.4888 9.79327 59.7241 9.29547 58.8618 9.08734C57.9996 8.87921 57.0921 8.97337 56.2909 9.35408C55.6242 8.67008 54.9242 8.01741 54.1908 7.39608C54.5055 6.57336 54.5302 5.66793 54.2608 4.82931C53.9913 3.99069 53.4439 3.26903 52.709 2.7835C51.9741 2.29797 51.0955 2.07761 50.2184 2.1588C49.3413 2.23999 48.5182 2.61789 47.8849 3.23008C43.5366 1.08074 38.7471 -0.0251622 33.8966 0.00018183C29.0462 0.0255258 24.2685 1.18142 19.9429 3.37608C19.3153 2.69427 18.4637 2.26052 17.5432 2.15377C16.6227 2.04702 15.6945 2.27438 14.9275 2.79446C14.1605 3.31454 13.6057 4.09276 13.3643 4.98743C13.1228 5.8821 13.2107 6.83373 13.6118 7.66908C12.5517 8.59572 11.5548 9.59228 10.6278 10.6521C9.82783 11.5651 11.2749 12.8161 12.0669 11.9091C12.9294 10.9236 13.856 9.99624 14.8408 9.13308C15.2972 9.4521 15.8167 9.66956 16.3642 9.77079C16.9117 9.87202 17.4745 9.85467 18.0147 9.7199C18.5549 9.58513 19.0598 9.33608 19.4956 8.98954C19.9314 8.64301 20.2879 8.20706 20.5409 7.71108C23.9761 8.69737 27.2698 10.1221 30.3408 11.9501C30.0859 12.8908 30.1886 13.8926 30.6289 14.7621C28.1015 16.9453 25.8308 19.4092 23.8609 22.1061C24.4838 22.2927 25.0494 22.6339 25.5049 23.0981C27.3692 20.5665 29.5116 18.252 31.8919 16.1981C32.5317 16.6293 33.2858 16.8596 34.0574 16.8596C34.829 16.8596 35.5831 16.6293 36.2229 16.1981C40.6964 20.0723 44.3101 24.8394 46.8319 30.1931C47.5765 29.6269 48.5009 29.3499 49.4341 29.4134C50.3673 29.4768 51.2458 29.8764 51.9069 30.5381L51.8869 30.5161C54.4874 26.1914 56.529 21.5544 57.9629 16.7161C58.4285 16.7176 58.8904 16.6339 59.3258 16.4691C61.5033 20.2367 62.8256 24.437 63.199 28.7725C63.5724 33.108 62.9879 37.4726 61.4868 41.5571C58.8372 38.9253 55.9477 36.5467 52.8559 34.4521C52.6586 35.0691 52.3088 35.6263 51.8389 36.0721C55.0298 38.2386 57.9972 40.7175 60.6969 43.4721C59.0085 47.2041 56.5588 50.5421 53.5049 53.2721C53.1963 53.0409 52.8548 52.8572 52.4918 52.7271C52.6804 50.9519 52.7613 49.167 52.7339 47.3821C52.723 47.1335 52.6156 46.899 52.4346 46.7283C52.2535 46.5576 52.0131 46.4642 51.7643 46.468C51.5155 46.4718 51.278 46.5724 51.1022 46.7485C50.9264 46.9246 50.8262 47.1623 50.8229 47.4111C50.8491 49.1269 50.7709 50.8427 50.5889 52.5491C50.052 52.6427 49.5406 52.8473 49.0873 53.1498C48.634 53.4524 48.2489 53.8461 47.9564 54.306C47.664 54.7659 47.4708 55.2817 47.3891 55.8205C47.3073 56.3593 47.3389 56.9092 47.4818 57.4351C43.3512 59.5758 38.7684 60.6978 34.116 60.7074C29.4635 60.7169 24.8763 59.6138 20.7368 57.4901C20.5223 58.1049 20.1556 58.6553 19.6709 59.0901C24.1145 61.3999 29.0489 62.6058 34.0569 62.6058C39.0649 62.6058 43.9993 61.3999 48.4429 59.0901C49.082 59.7347 49.9275 60.1339 50.8313 60.2177C51.7352 60.3015 52.6397 60.0646 53.3864 59.5485C54.1331 59.0324 54.6744 58.27 54.9154 57.3949C55.1565 56.5198 55.082 55.5877 54.7049 54.7621C58.1488 51.7048 60.8754 47.9248 62.6898 43.6921C62.7089 43.6531 62.7257 43.6131 62.7399 43.5721C64.6429 39.0506 65.4671 34.1482 65.1472 29.253C64.8274 24.3579 63.3721 19.6044 60.8969 15.3691ZM17.0899 7.94908C16.7048 7.94907 16.3283 7.83505 16.008 7.62139C15.6876 7.40774 15.4377 7.10401 15.2897 6.74851C15.1417 6.39301 15.1023 6.00165 15.1764 5.62377C15.2505 5.2459 15.4349 4.89842 15.7062 4.62516C15.9775 4.3519 16.3236 4.16508 16.701 4.08827C17.0783 4.01146 17.4699 4.04808 17.8264 4.19353C18.183 4.33897 18.4885 4.58673 18.7045 4.90556C18.9204 5.22439 19.0371 5.60001 19.0398 5.98508C19.0409 6.50439 18.8359 7.00289 18.4697 7.37112C18.1036 7.73936 17.6061 7.94723 17.0868 7.94908H17.0899ZM50.5968 4.02108C50.9819 4.02109 51.3584 4.13511 51.6787 4.34877C51.9991 4.56242 52.2491 4.86615 52.3971 5.22165C52.5451 5.57715 52.5845 5.96851 52.5104 6.34639C52.4363 6.72426 52.2519 7.07173 51.9806 7.345C51.7093 7.61826 51.3632 7.80507 50.9859 7.88189C50.6085 7.9587 50.2168 7.92208 49.8603 7.77663C49.5037 7.63118 49.1983 7.38343 48.9823 7.0646C48.7664 6.74577 48.6496 6.37014 48.6469 5.98508C48.6458 5.46629 48.8504 4.96824 49.216 4.60009C49.5815 4.23194 50.078 4.02372 50.5968 4.02108ZM34.0598 14.9541C33.539 14.9541 33.0395 14.7472 32.6712 14.3788C32.3028 14.0105 32.0958 13.511 32.0958 12.9901C32.0958 12.4692 32.3028 11.9696 32.6712 11.6013C33.0395 11.233 33.539 11.0261 34.0598 11.0261C34.3178 11.0262 34.5732 11.0771 34.8114 11.176C35.0497 11.2748 35.2661 11.4196 35.4484 11.602C35.6307 11.7845 35.7752 12.0011 35.8738 12.2394C35.9724 12.4777 36.023 12.7332 36.0229 12.9911C36.0227 13.249 35.9718 13.5044 35.8729 13.7426C35.7741 13.9808 35.6294 14.1973 35.4469 14.3795C35.2645 14.5618 35.0479 14.7064 34.8096 14.805C34.5713 14.9035 34.3158 14.9542 34.0579 14.9541H34.0598ZM31.2909 10.2931C28.05 8.36733 24.573 6.87017 20.9469 5.83908C20.9379 5.57842 20.902 5.31938 20.8399 5.06608C24.8736 3.02501 29.3251 1.94547 33.8457 1.91198C38.3663 1.8785 42.8333 2.89199 46.8969 4.87308C46.7908 5.22777 46.7363 5.59587 46.7349 5.96608C43.2658 6.991 39.9382 8.44455 36.8289 10.2931C36.4668 9.92639 36.0355 9.63525 35.56 9.43654C35.0845 9.23783 34.5742 9.1355 34.0589 9.1355C33.5435 9.1355 33.0333 9.23783 32.5578 9.43654C32.0823 9.63525 31.651 9.92639 31.2888 10.2931H31.2909ZM50.2409 29.5471C49.7057 29.395 49.1442 29.3588 48.5939 29.4411C45.9613 23.8258 42.1799 18.8254 37.4939 14.7631C37.9357 13.8944 38.0383 12.8923 37.7819 11.9521C40.7381 10.1908 43.9017 8.80356 47.1999 7.82208C47.4722 8.32584 47.853 8.76283 48.3148 9.10148C48.7766 9.44013 49.3079 9.67198 49.8703 9.78029C50.4326 9.88861 51.0119 9.87067 51.5664 9.72779C52.121 9.58491 52.637 9.32064 53.0769 8.95408C53.6829 9.47608 54.2699 10.0241 54.8319 10.5931C54.522 11.0405 54.3084 11.5476 54.2051 12.082C54.1018 12.6164 54.1108 13.1665 54.2316 13.6973C54.3524 14.228 54.5822 14.7278 54.9066 15.1649C55.231 15.602 55.6428 15.9668 56.1159 16.2361C54.7248 20.9029 52.7497 25.3752 50.2378 29.5471H50.2409ZM57.9739 14.8061C57.5849 14.8089 57.2037 14.696 56.8789 14.4819C56.5541 14.2678 56.3002 13.962 56.1494 13.6034C55.9986 13.2448 55.9577 12.8495 56.0319 12.4676C56.1061 12.0857 56.2921 11.7344 56.5662 11.4583C56.8403 11.1823 57.1902 10.9938 57.5716 10.9169C57.9529 10.84 58.3485 10.878 58.7082 11.0263C59.0678 11.1745 59.3755 11.4262 59.5919 11.7495C59.8084 12.0728 59.9238 12.453 59.9239 12.8421C59.9239 13.3611 59.7185 13.859 59.3526 14.227C58.9866 14.595 58.4898 14.8032 57.9708 14.8061H57.9739ZM51.1989 58.3461C50.8138 58.3461 50.4373 58.232 50.117 58.0184C49.7966 57.8047 49.5467 57.501 49.3987 57.1455C49.2507 56.79 49.2113 56.3986 49.2854 56.0208C49.3595 55.6429 49.5438 55.2954 49.8151 55.0222C50.0864 54.7489 50.4326 54.5621 50.81 54.4853C51.1873 54.4085 51.5789 54.4451 51.9354 54.5905C52.292 54.736 52.5976 54.9837 52.8135 55.3026C53.0294 55.6214 53.1461 55.997 53.1488 56.3821C53.1499 56.9011 52.945 57.3994 52.579 57.7674C52.213 58.1355 51.716 58.3432 51.1969 58.3451L51.1989 58.3461ZM5.72793 23.9461C6.46867 21.0499 7.64905 18.2845 9.22793 15.7461C9.34706 15.5314 9.37904 15.2791 9.3174 15.0415C9.25577 14.8038 9.10521 14.5989 8.89675 14.4692C8.68829 14.3395 8.43786 14.2948 8.19741 14.3445C7.95696 14.3942 7.74487 14.5344 7.60488 14.7361C5.92452 17.4351 4.66726 20.3755 3.87685 23.4551C2.93482 23.4561 2.0254 23.7998 1.31814 24.4221C0.610877 25.0443 0.154061 25.9026 0.0331034 26.8369C-0.0878542 27.7711 0.135202 28.7175 0.660667 29.4993C1.18613 30.2812 1.9781 30.8452 2.88882 31.0861C2.86609 35.5686 3.7985 40.0045 5.6238 44.0986C7.4491 48.1927 10.1255 51.851 13.4749 54.8301C13.709 54.2227 14.0933 53.6846 14.5918 53.2661C8.35582 47.6811 4.79885 38.3211 4.79885 31.0851C5.63229 30.882 6.37254 30.4028 6.89907 29.7256C7.4256 29.0483 7.70747 28.2129 7.69887 27.3551C11.4074 26.7473 15.1452 26.3338 18.8969 26.1161C18.8879 26.0161 18.8839 25.9161 18.8839 25.8161C18.8833 25.2599 19.0034 24.7103 19.2359 24.2051C15.207 24.2294 11.1909 24.6613 7.24892 25.4941C6.89908 24.8423 6.37073 24.3036 5.72585 23.9411L5.72793 23.9461ZM3.84487 29.2921C3.32399 29.2921 2.8244 29.0852 2.45608 28.7168C2.08776 28.3485 1.88088 27.849 1.88088 27.3281C1.88088 26.8072 2.08776 26.3076 2.45608 25.9393C2.8244 25.571 3.32399 25.3641 3.84487 25.3641C4.36509 25.3643 4.86392 25.5713 5.23159 25.9393C5.59925 26.3073 5.80559 26.8064 5.80532 27.3266C5.80506 27.8468 5.59817 28.3456 5.23012 28.7133C4.86208 29.0809 4.36314 29.2873 3.84292 29.2871L3.84487 29.2921ZM18.4718 52.6061C18.4827 52.6098 18.4935 52.6142 18.5039 52.6191L18.4729 52.6061H18.4718ZM16.1948 59.9841C17.1099 60.2233 18.0821 60.0994 18.9079 59.6381C18.3483 59.9361 17.7238 60.0914 17.0899 60.0901C16.7888 60.0885 16.4891 60.0509 16.1969 59.9781L16.1948 59.9841ZM17.9549 52.4501C17.9705 52.4526 17.9859 52.4562 18.0009 52.4611H18.0149C17.9944 52.4539 17.9733 52.4482 17.9519 52.4441L17.9549 52.4501ZM13.2938 56.9771C13.2758 56.8871 13.2609 56.7941 13.2489 56.7011C13.2569 56.7891 13.2729 56.8811 13.2919 56.9711L13.2938 56.9771ZM13.2489 56.7011C13.2379 56.6081 13.2299 56.5141 13.2249 56.4191C13.2269 56.5061 13.2338 56.6061 13.2468 56.6951L13.2489 56.7011ZM52.2719 41.6601C52.0171 39.9453 51.6616 38.247 51.2069 36.5741C51.3069 36.5121 51.4019 36.4441 51.4949 36.3741C51.3331 36.4966 51.1615 36.6056 50.9818 36.7001C50.9448 36.7201 50.9079 36.7381 50.8699 36.7571C50.8149 36.7841 50.7609 36.8091 50.7039 36.8331C50.6469 36.8571 50.6199 36.8691 50.5779 36.8841L50.5529 36.8941C50.5119 36.9111 50.4699 36.9251 50.4279 36.9401L50.4129 36.9451C50.3719 36.9591 50.3309 36.9721 50.2909 36.9831L50.2499 36.9961C50.2069 37.0091 50.1649 37.0201 50.1209 37.0301C50.0769 37.0401 50.0209 37.0541 49.9759 37.0641L49.9469 37.0691C49.9089 37.0781 49.8699 37.0841 49.8319 37.0911C49.7939 37.0981 49.7378 37.1061 49.6908 37.1131C49.6438 37.1201 49.5779 37.1271 49.5199 37.1321C49.4819 37.1361 49.4436 37.1387 49.4049 37.1401C49.3289 37.1451 49.2509 37.1481 49.1729 37.1481C48.6558 37.1502 48.1436 37.0482 47.6669 36.8481C48.2077 37.0798 48.7943 37.1845 49.3819 37.1541C49.808 38.7306 50.1419 40.3307 50.3819 41.9461C50.4294 42.1883 50.5688 42.4028 50.7709 42.5446C50.973 42.6864 51.2221 42.7445 51.4661 42.7068C51.7101 42.669 51.93 42.5384 52.0799 42.3422C52.2297 42.146 52.2978 41.8994 52.2699 41.6541L52.2719 41.6601ZM52.2719 41.6601C52.0171 39.9453 51.6616 38.247 51.2069 36.5741C51.3069 36.5121 51.4019 36.4441 51.4949 36.3741C51.3331 36.4966 51.1615 36.6056 50.9818 36.7001C50.9448 36.7201 50.9079 36.7381 50.8699 36.7571C50.8149 36.7841 50.7609 36.8091 50.7039 36.8331C50.6469 36.8571 50.6199 36.8691 50.5779 36.8841L50.5529 36.8941C50.5119 36.9111 50.4699 36.9251 50.4279 36.9401L50.4129 36.9451C50.3719 36.9591 50.3309 36.9721 50.2909 36.9831L50.2499 36.9961C50.2069 37.0091 50.1649 37.0201 50.1209 37.0301C50.0769 37.0401 50.0209 37.0541 49.9759 37.0641L49.9469 37.0691C49.9089 37.0781 49.8699 37.0841 49.8319 37.0911C49.7939 37.0981 49.7378 37.1061 49.6908 37.1131C49.6438 37.1201 49.5779 37.1271 49.5199 37.1321C49.4819 37.1361 49.4436 37.1387 49.4049 37.1401C49.3289 37.1451 49.2509 37.1481 49.1729 37.1481C48.6558 37.1502 48.1436 37.0482 47.6669 36.8481C48.2077 37.0798 48.7943 37.1845 49.3819 37.1541C49.808 38.7306 50.1419 40.3307 50.3819 41.9461C50.4294 42.1883 50.5688 42.4028 50.7709 42.5446C50.973 42.6864 51.2221 42.7445 51.4661 42.7068C51.7101 42.669 51.93 42.5384 52.0799 42.3422C52.2297 42.146 52.2978 41.8994 52.2699 41.6541L52.2719 41.6601ZM52.2719 41.6601C52.0171 39.9453 51.6616 38.247 51.2069 36.5741C51.3069 36.5121 51.4019 36.4441 51.4949 36.3741C51.3331 36.4966 51.1615 36.6056 50.9818 36.7001C50.9448 36.7201 50.9079 36.7381 50.8699 36.7571C50.8149 36.7841 50.7609 36.8091 50.7039 36.8331C50.6469 36.8571 50.6199 36.8691 50.5779 36.8841L50.5529 36.8941C50.5119 36.9111 50.4699 36.9251 50.4279 36.9401L50.4129 36.9451C50.3719 36.9591 50.3309 36.9721 50.2909 36.9831L50.2499 36.9961C50.2069 37.0091 50.1649 37.0201 50.1209 37.0301C50.0769 37.0401 50.0209 37.0541 49.9759 37.0641L49.9469 37.0691C49.9089 37.0781 49.8699 37.0841 49.8319 37.0911C49.7939 37.0981 49.7378 37.1061 49.6908 37.1131C49.6438 37.1201 49.5779 37.1271 49.5199 37.1321C49.4819 37.1361 49.4436 37.1387 49.4049 37.1401C49.3289 37.1451 49.2509 37.1481 49.1729 37.1481C48.6558 37.1502 48.1436 37.0482 47.6669 36.8481C48.2077 37.0798 48.7943 37.1845 49.3819 37.1541C49.808 38.7306 50.1419 40.3307 50.3819 41.9461C50.4294 42.1883 50.5688 42.4028 50.7709 42.5446C50.973 42.6864 51.2221 42.7445 51.4661 42.7068C51.7101 42.669 51.93 42.5384 52.0799 42.3422C52.2297 42.146 52.2978 41.8994 52.2699 41.6541L52.2719 41.6601ZM52.2719 41.6601C52.0171 39.9453 51.6616 38.247 51.2069 36.5741C51.3069 36.5121 51.4019 36.4441 51.4949 36.3741C51.3331 36.4966 51.1615 36.6056 50.9818 36.7001C50.9448 36.7201 50.9079 36.7381 50.8699 36.7571C50.8149 36.7841 50.7609 36.8091 50.7039 36.8331C50.6469 36.8571 50.6199 36.8691 50.5779 36.8841L50.5529 36.8941C50.5119 36.9111 50.4699 36.9251 50.4279 36.9401L50.4129 36.9451C50.3719 36.9591 50.3309 36.9721 50.2909 36.9831L50.2499 36.9961C50.2069 37.0091 50.1649 37.0201 50.1209 37.0301C50.0769 37.0401 50.0209 37.0541 49.9759 37.0641L49.9469 37.0691C49.9089 37.0781 49.8699 37.0841 49.8319 37.0911C49.7939 37.0981 49.7378 37.1061 49.6908 37.1131C49.6438 37.1201 49.5779 37.1271 49.5199 37.1321C49.4819 37.1361 49.4436 37.1387 49.4049 37.1401C49.3289 37.1451 49.2509 37.1481 49.1729 37.1481C48.6558 37.1502 48.1436 37.0482 47.6669 36.8481C48.2077 37.0798 48.7943 37.1845 49.3819 37.1541C49.808 38.7306 50.1419 40.3307 50.3819 41.9461C50.4294 42.1883 50.5688 42.4028 50.7709 42.5446C50.973 42.6864 51.2221 42.7445 51.4661 42.7068C51.7101 42.669 51.93 42.5384 52.0799 42.3422C52.2297 42.146 52.2978 41.8994 52.2699 41.6541L52.2719 41.6601ZM52.2719 41.6601C52.0171 39.9453 51.6616 38.247 51.2069 36.5741C51.3069 36.5121 51.4019 36.4441 51.4949 36.3741C51.3331 36.4966 51.1615 36.6056 50.9818 36.7001C50.9448 36.7201 50.9079 36.7381 50.8699 36.7571C50.8149 36.7841 50.7609 36.8091 50.7039 36.8331C50.6469 36.8571 50.6199 36.8691 50.5779 36.8841L50.5529 36.8941C50.5119 36.9111 50.4699 36.9251 50.4279 36.9401L50.4129 36.9451C50.3719 36.9591 50.3309 36.9721 50.2909 36.9831L50.2499 36.9961C50.2069 37.0091 50.1649 37.0201 50.1209 37.0301C50.0769 37.0401 50.0209 37.0541 49.9759 37.0641L49.9469 37.0691C49.9089 37.0781 49.8699 37.0841 49.8319 37.0911C49.7939 37.0981 49.7378 37.1061 49.6908 37.1131C49.6438 37.1201 49.5779 37.1271 49.5199 37.1321C49.4819 37.1361 49.4436 37.1387 49.4049 37.1401C49.3289 37.1451 49.2509 37.1481 49.1729 37.1481C48.6558 37.1502 48.1436 37.0482 47.6669 36.8481C48.2077 37.0798 48.7943 37.1845 49.3819 37.1541C49.808 38.7306 50.1419 40.3307 50.3819 41.9461C50.4294 42.1883 50.5688 42.4028 50.7709 42.5446C50.973 42.6864 51.2221 42.7445 51.4661 42.7068C51.7101 42.669 51.93 42.5384 52.0799 42.3422C52.2297 42.146 52.2978 41.8994 52.2699 41.6541L52.2719 41.6601ZM52.2719 41.6601C52.0171 39.9453 51.6616 38.247 51.2069 36.5741C51.3069 36.5121 51.4019 36.4441 51.4949 36.3741C51.3331 36.4966 51.1615 36.6056 50.9818 36.7001C50.9448 36.7201 50.9079 36.7381 50.8699 36.7571C50.8149 36.7841 50.7609 36.8091 50.7039 36.8331C50.6469 36.8571 50.6199 36.8691 50.5779 36.8841L50.5529 36.8941C50.5119 36.9111 50.4699 36.9251 50.4279 36.9401L50.4129 36.9451C50.3719 36.9591 50.3309 36.9721 50.2909 36.9831L50.2499 36.9961C50.2069 37.0091 50.1649 37.0201 50.1209 37.0301C50.0769 37.0401 50.0209 37.0541 49.9759 37.0641L49.9469 37.0691C49.9089 37.0781 49.8699 37.0841 49.8319 37.0911C49.7939 37.0981 49.7378 37.1061 49.6908 37.1131C49.6438 37.1201 49.5779 37.1271 49.5199 37.1321C49.4819 37.1361 49.4436 37.1387 49.4049 37.1401C49.3289 37.1451 49.2509 37.1481 49.1729 37.1481C48.6558 37.1502 48.1436 37.0482 47.6669 36.8481C48.2077 37.0798 48.7943 37.1845 49.3819 37.1541C49.808 38.7306 50.1419 40.3307 50.3819 41.9461C50.4294 42.1883 50.5688 42.4028 50.7709 42.5446C50.973 42.6864 51.2221 42.7445 51.4661 42.7068C51.7101 42.669 51.93 42.5384 52.0799 42.3422C52.2297 42.146 52.2978 41.8994 52.2699 41.6541L52.2719 41.6601ZM52.2719 41.6601C52.0171 39.9453 51.6616 38.247 51.2069 36.5741C51.3069 36.5121 51.4019 36.4441 51.4949 36.3741C51.3331 36.4966 51.1615 36.6056 50.9818 36.7001C50.9448 36.7201 50.9079 36.7381 50.8699 36.7571C50.8149 36.7841 50.7609 36.8091 50.7039 36.8331C50.6469 36.8571 50.6199 36.8691 50.5779 36.8841L50.5529 36.8941C50.5119 36.9111 50.4699 36.9251 50.4279 36.9401L50.4129 36.9451C50.3719 36.9591 50.3309 36.9721 50.2909 36.9831L50.2499 36.9961C50.2069 37.0091 50.1649 37.0201 50.1209 37.0301C50.0769 37.0401 50.0209 37.0541 49.9759 37.0641L49.9469 37.0691C49.9089 37.0781 49.8699 37.0841 49.8319 37.0911C49.7939 37.0981 49.7378 37.1061 49.6908 37.1131C49.6438 37.1201 49.5779 37.1271 49.5199 37.1321C49.4819 37.1361 49.4436 37.1387 49.4049 37.1401C49.3289 37.1451 49.2509 37.1481 49.1729 37.1481C48.6558 37.1502 48.1436 37.0482 47.6669 36.8481C48.2077 37.0798 48.7943 37.1845 49.3819 37.1541C49.808 38.7306 50.1419 40.3307 50.3819 41.9461C50.4294 42.1883 50.5688 42.4028 50.7709 42.5446C50.973 42.6864 51.2221 42.7445 51.4661 42.7068C51.7101 42.669 51.93 42.5384 52.0799 42.3422C52.2297 42.146 52.2978 41.8994 52.2699 41.6541L52.2719 41.6601ZM52.2719 41.6601C52.0171 39.9453 51.6616 38.247 51.2069 36.5741C51.3069 36.5121 51.4019 36.4441 51.4949 36.3741C51.3331 36.4966 51.1615 36.6056 50.9818 36.7001C50.9448 36.7201 50.9079 36.7381 50.8699 36.7571C50.8149 36.7841 50.7609 36.8091 50.7039 36.8331C50.6469 36.8571 50.6199 36.8691 50.5779 36.8841L50.5529 36.8941C50.5119 36.9111 50.4699 36.9251 50.4279 36.9401L50.4129 36.9451C50.3719 36.9591 50.3309 36.9721 50.2909 36.9831L50.2499 36.9961C50.2069 37.0091 50.1649 37.0201 50.1209 37.0301C50.0769 37.0401 50.0209 37.0541 49.9759 37.0641L49.9469 37.0691C49.9089 37.0781 49.8699 37.0841 49.8319 37.0911C49.7939 37.0981 49.7378 37.1061 49.6908 37.1131C49.6438 37.1201 49.5779 37.1271 49.5199 37.1321C49.4819 37.1361 49.4436 37.1387 49.4049 37.1401C49.3289 37.1451 49.2509 37.1481 49.1729 37.1481C48.6558 37.1502 48.1436 37.0482 47.6669 36.8481C48.2077 37.0798 48.7943 37.1845 49.3819 37.1541C49.808 38.7306 50.1419 40.3307 50.3819 41.9461C50.4294 42.1883 50.5688 42.4028 50.7709 42.5446C50.973 42.6864 51.2221 42.7445 51.4661 42.7068C51.7101 42.669 51.93 42.5384 52.0799 42.3422C52.2297 42.146 52.2978 41.8994 52.2699 41.6541L52.2719 41.6601Z" fill="white"/>
<path d="M46.3522 30.6241C45.9074 31.0951 45.5888 31.6709 45.4261 32.298C39.5143 29.3018 33.1272 27.3548 26.5492 26.5441C26.5531 26.5303 26.5557 26.5163 26.5571 26.5021C26.5661 26.4591 26.5741 26.4151 26.5791 26.3721C26.5931 26.2721 26.6041 26.1781 26.6101 26.0791C26.6101 26.0521 26.6151 26.0251 26.6151 25.9991C26.6158 25.9917 26.6158 25.9844 26.6151 25.9771C26.6151 25.9241 26.6151 25.867 26.6151 25.813C26.6151 25.759 26.6151 25.6841 26.6101 25.6221C26.6114 25.6051 26.6114 25.588 26.6101 25.5711C26.6101 25.54 26.6081 25.5089 26.6041 25.4781C26.6054 25.4658 26.6054 25.4534 26.6041 25.4411C26.6053 25.4267 26.6053 25.4124 26.6041 25.3981C26.6041 25.3981 26.6041 25.3981 26.6041 25.3931C26.6041 25.3501 26.5951 25.3081 26.5881 25.2641C26.5881 25.2441 26.5831 25.2231 26.5791 25.2041C26.5625 25.0915 26.5395 24.98 26.5101 24.8701C26.5044 24.8406 26.4968 24.8115 26.4872 24.7831C26.4874 24.7764 26.4856 24.7698 26.4822 24.7641C26.4812 24.7556 26.4784 24.7474 26.4741 24.7401C26.4716 24.7243 26.4673 24.7088 26.4612 24.6941C26.4594 24.6834 26.4564 24.673 26.4521 24.6631C26.4468 24.6422 26.4398 24.6218 26.4312 24.6021C33.3755 25.4147 40.1205 27.4536 46.3522 30.6241Z" fill="#FFA800"/>
<path d="M18.4691 52.601L18.4401 52.591C18.4372 52.5898 18.434 52.5898 18.4312 52.591L18.4691 52.601Z" fill="#FF5F00"/>
<path d="M23.29 29.6441C22.7262 29.7324 22.1497 29.6896 21.6051 29.5191C18.1172 36.5959 16.6961 44.513 17.505 52.3611C17.7797 52.3906 18.0501 52.4513 18.311 52.5421L18.245 52.5221L18.2041 52.5091L18.1891 52.5041L18.17 52.4991H18.1591L18.144 52.4941L18.088 52.4791C18.0789 52.4763 18.0695 52.4743 18.0601 52.4731C18.0515 52.4692 18.0424 52.4665 18.0331 52.4651L18.0131 52.4601H17.999C17.984 52.4552 17.9686 52.4515 17.953 52.4491L17.915 52.4401L17.874 52.4311H17.8611H17.843C17.798 52.4221 17.754 52.4131 17.708 52.4071L17.6521 52.3981H17.625H17.6061L17.547 52.3921H17.525L17.479 52.3861L17.3971 52.3801C17.3751 52.3801 17.3541 52.3801 17.3311 52.3801H17.295H17.2421C17.1921 52.3801 17.1421 52.3801 17.0901 52.3801C16.446 52.379 15.812 52.5396 15.2461 52.8471C15.3649 52.7794 15.4877 52.7193 15.614 52.6671C14.7358 44.363 16.2478 35.9809 19.972 28.5071C20.3321 28.8798 20.7636 29.176 21.2407 29.3781C21.7179 29.5801 22.2308 29.6839 22.749 29.6831C22.9301 29.6831 23.1109 29.67 23.29 29.6441Z" fill="#FFA800"/>
<path d="M47.546 36.7839C40.647 45.538 31.4314 52.1822 20.9459 55.9619C20.9059 55.3155 20.7023 54.6899 20.354 54.1439C30.4899 50.4775 39.3964 44.046 46.0649 35.5779C46.4502 36.0972 46.9594 36.5118 47.546 36.7839Z" fill="#FFA800"/>
<path opacity="0.63" d="M20.9468 55.9619H20.9388C20.9702 56.4796 20.8995 56.9984 20.7308 57.4889C20.7308 57.4889 20.7308 57.4889 20.7368 57.4889C20.8815 57.0777 20.9553 56.6448 20.9548 56.2089C20.9548 56.1239 20.9528 56.0449 20.9468 55.9619ZM19.6209 53.2919C19.9035 53.5406 20.149 53.8285 20.3499 54.1469H20.3549C20.1535 53.8271 19.9057 53.539 19.6198 53.2919H19.6209ZM18.1818 52.5039L18.2048 52.5099L18.1898 52.5049L18.1818 52.5039ZM17.9988 52.4559H18.0128C17.9932 52.4499 17.9731 52.4452 17.9528 52.4419C17.9681 52.4451 17.9832 52.4494 17.9978 52.4549L17.9988 52.4559ZM13.5518 57.7849C13.7932 58.3288 14.157 58.8098 14.6147 59.1901C15.0725 59.5705 15.6118 59.8401 16.1908 59.9779C15.6153 59.8306 15.0796 59.5576 14.6224 59.1783C14.1652 58.7991 13.7979 58.3232 13.5468 57.7849H13.5518ZM13.2178 56.2139C13.2171 56.2249 13.2171 56.2359 13.2178 56.2469C13.2198 55.762 13.3086 55.2815 13.4799 54.8279C13.4799 54.8279 13.4799 54.8279 13.4749 54.8229C13.3037 55.2666 13.2171 55.7383 13.2178 56.2139Z" fill="#FF5F00"/>
<path d="M20.9391 55.9649H20.9472C20.9072 55.3185 20.7035 54.6929 20.3551 54.1469H20.3501C20.1492 53.8286 19.9037 53.5406 19.6211 53.2919C19.5801 53.2559 19.5381 53.2219 19.4961 53.1919C19.4541 53.1619 19.3961 53.1089 19.3371 53.0719C19.329 53.0637 19.3195 53.0569 19.3091 53.0519C19.2711 53.0239 19.2322 52.9969 19.1932 52.9729C19.1542 52.9489 19.1272 52.9299 19.0932 52.9089C18.9838 52.8422 18.8704 52.7813 18.7531 52.7259L18.6311 52.6699L18.5622 52.6409L18.5011 52.6169L18.4692 52.6039L18.4401 52.5939C18.4372 52.5927 18.4341 52.5927 18.4312 52.5939L18.3952 52.5809H18.3902H18.3821H18.3761L18.3111 52.5579L18.2452 52.5379L18.2041 52.5249L18.1812 52.5189C18.1775 52.5184 18.1737 52.5184 18.1701 52.5189H18.1591L18.1452 52.4959L18.0892 52.4809C18.08 52.4781 18.0706 52.4762 18.0611 52.4749C18.0525 52.471 18.0434 52.4683 18.0341 52.4669L18.0141 52.4619H18.0002C17.9851 52.457 17.9697 52.4534 17.9541 52.4509L17.9162 52.4419L17.8752 52.4329H17.8621H17.8442C17.7992 52.4239 17.7551 52.4149 17.7091 52.4089L17.6531 52.3999H17.6261L17.5481 52.3909H17.5262L17.4801 52.3849L17.3981 52.3789C17.3761 52.3789 17.3552 52.3789 17.3322 52.3789H17.2962H17.2431C17.1931 52.3789 17.1431 52.3789 17.0911 52.3789C16.447 52.3778 15.813 52.5384 15.2471 52.8459C15.1921 52.8749 15.1371 52.9059 15.0841 52.9389L14.9541 53.0219C14.9071 53.0529 14.8611 53.0839 14.8161 53.1219C14.7711 53.1599 14.7461 53.1739 14.7161 53.2009C14.6861 53.2279 14.6381 53.2629 14.6001 53.2949C14.1016 53.7135 13.7173 54.2516 13.4831 54.8589C13.4831 54.8589 13.4831 54.8589 13.4881 54.8639C13.3168 55.3175 13.2281 55.7981 13.2261 56.2829C13.2248 56.2935 13.2248 56.3043 13.2261 56.3149C13.2261 56.3596 13.2261 56.4043 13.2261 56.4489C13.2311 56.5429 13.2392 56.6379 13.2502 56.7309C13.2612 56.8239 13.2771 56.9169 13.2951 57.0069C13.3309 57.1868 13.3794 57.3639 13.4401 57.5369C13.4611 57.5969 13.4831 57.6549 13.5091 57.7139C13.5231 57.7492 13.5384 57.7849 13.5551 57.8209C13.8057 58.3587 14.1723 58.8343 14.6286 59.2134C15.0849 59.5926 15.6196 59.866 16.1941 60.0139C16.4888 60.0852 16.791 60.1208 17.0942 60.1199C17.7281 60.1212 18.3526 59.966 18.9122 59.6679L19.0191 59.6079C19.0571 59.5859 19.0941 59.5629 19.1311 59.5399L19.2481 59.4639C19.293 59.4355 19.3364 59.4049 19.3781 59.3719C19.4031 59.3539 19.4292 59.3349 19.4532 59.3149L19.5741 59.2149C19.5827 59.2093 19.5907 59.2029 19.5982 59.1959C19.6262 59.1729 19.6511 59.1499 19.6781 59.1259C20.1629 58.6911 20.5296 58.1407 20.7442 57.5259H20.7381C20.9089 57.0243 20.9773 56.4935 20.9391 55.9649Z" fill="#FFA800"/>
<path opacity="0.63" d="M26.542 26.5431C26.3847 27.3287 25.9901 28.0471 25.4116 28.6015C24.8331 29.1558 24.0986 29.5194 23.307 29.6431C24.1025 29.5272 24.8421 29.1664 25.4231 28.6108C26.0041 28.0553 26.3977 27.3326 26.5491 26.5431H26.542ZM26.423 24.6031C26.2371 24.0388 25.9229 23.5254 25.505 23.1031V23.1081C25.9205 23.5313 26.2329 24.0446 26.418 24.6081L26.423 24.6031ZM19.233 24.2031H19.2421C19.5869 23.4685 20.1514 22.8591 20.8575 22.4592C21.5637 22.0594 22.3766 21.8888 23.184 21.9711C23.04 21.9538 22.895 21.9454 22.75 21.9461C22.0092 21.9454 21.2838 22.1577 20.6603 22.5577C20.0367 22.9577 19.5413 23.5285 19.233 24.2021V24.2031ZM18.8931 26.1161C18.9522 26.9042 19.2539 27.6546 19.757 28.2641C19.2596 27.6519 18.961 26.9025 18.901 26.1161H18.8931Z" fill="#FF5F00"/>
<path d="M26.6132 25.6229C26.6145 25.606 26.6145 25.5889 26.6132 25.5719C26.6132 25.5399 26.6132 25.5099 26.6072 25.4789C26.6084 25.4666 26.6084 25.4542 26.6072 25.4419C26.6084 25.4276 26.6084 25.4133 26.6072 25.3989C26.6072 25.3989 26.6072 25.3989 26.6072 25.3939C26.6072 25.3509 26.5972 25.3089 26.5912 25.2649C26.5912 25.2449 26.5862 25.2239 26.5822 25.2049C26.5655 25.0924 26.5425 24.9809 26.5132 24.8709C26.5072 24.8419 26.4991 24.8119 26.4901 24.7839C26.4903 24.7773 26.4887 24.7707 26.4852 24.7649C26.4842 24.7565 26.4815 24.7483 26.4772 24.7409C26.4746 24.7252 26.4702 24.7097 26.4641 24.6949C26.4623 24.6843 26.4594 24.6739 26.4552 24.6639C26.4499 24.6431 26.4428 24.6227 26.4342 24.6029H26.4252C26.2401 24.0394 25.9277 23.5262 25.5122 23.1029V23.0979C25.0564 22.6337 24.4905 22.2924 23.8672 22.1059L23.7332 22.0689L23.7141 22.0639C23.6671 22.0509 23.6142 22.0409 23.5702 22.0309L23.5222 22.0209C23.4862 22.0129 23.4492 22.0059 23.4122 22.0009L23.3842 21.9959C23.3842 21.9959 23.3842 21.9959 23.3782 21.9959L23.3162 21.9859C23.2742 21.9799 23.2332 21.9749 23.1912 21.9709C22.3838 21.8885 21.5707 22.059 20.8645 22.4589C20.1583 22.8588 19.5938 23.4682 19.2491 24.2029H19.2391C19.0066 24.7082 18.8866 25.2578 18.8872 25.8139C18.8872 25.9139 18.8871 26.0139 18.9001 26.1139H18.9082C18.9682 26.9004 19.2668 27.6498 19.7642 28.2619C19.7962 28.3009 19.8291 28.3409 19.8641 28.3789C19.8991 28.4169 19.9372 28.4589 19.9752 28.4989C19.9756 28.5006 19.9764 28.5022 19.9774 28.5035C19.9784 28.5049 19.9797 28.5061 19.9812 28.5069C20.3412 28.8797 20.7726 29.1759 21.2498 29.378C21.7269 29.5801 22.24 29.6838 22.7582 29.6829C22.9389 29.6832 23.1194 29.6705 23.2982 29.6449H23.3142C24.1058 29.5212 24.8403 29.1577 25.4188 28.6033C25.9973 28.049 26.3919 27.3305 26.5492 26.5449C26.5531 26.5312 26.5568 26.5172 26.5582 26.5029C26.5672 26.4609 26.5732 26.4159 26.5802 26.3729C26.5942 26.2729 26.6052 26.1789 26.6112 26.0799C26.6112 26.0529 26.6112 26.0269 26.6162 25.9999C26.6169 25.9926 26.6169 25.9853 26.6162 25.9779C26.6162 25.9249 26.6162 25.8679 26.6162 25.8139C26.6162 25.7599 26.6172 25.6849 26.6132 25.6229Z" fill="#FFA800"/>
<path opacity="0.63" d="M46.832 30.1909C46.6618 30.3217 46.503 30.4665 46.3571 30.6239C46.3571 30.6239 46.3571 30.6239 46.3511 30.6239C46.4984 30.4658 46.6593 30.3209 46.832 30.1909Z" fill="#FF5F00"/>
<path d="M53.0221 33.0059C53.0048 32.7696 52.9663 32.5353 52.9071 32.3059C52.8941 32.2599 52.8831 32.2139 52.8691 32.1699C52.8551 32.1259 52.8412 32.0779 52.8262 32.0339C52.8112 31.9899 52.7952 31.9439 52.7792 31.8999C52.72 31.7422 52.6505 31.5885 52.5712 31.4399C52.5562 31.4109 52.5402 31.3809 52.5242 31.3529C52.5182 31.3399 52.5102 31.3289 52.5042 31.3159C52.4822 31.2789 52.4611 31.2429 52.4381 31.2079C52.4151 31.1729 52.4091 31.1599 52.3931 31.1369L52.3682 31.0989C52.3572 31.0839 52.3461 31.0669 52.3351 31.0519C52.3241 31.0369 52.3111 31.0159 52.2991 30.9999L52.2611 30.9479C52.2271 30.9019 52.1921 30.8579 52.1611 30.8139C52.1592 30.8103 52.1564 30.8072 52.1531 30.8049C52.1121 30.7549 52.0701 30.7049 52.0261 30.6589C51.9821 30.6129 51.9511 30.5769 51.9111 30.5389C51.2501 29.8772 50.3715 29.4776 49.4384 29.4142C48.5052 29.3507 47.5806 29.6278 46.8361 30.1939C46.6659 30.3247 46.507 30.4695 46.3611 30.6269C46.3611 30.6269 46.3611 30.6269 46.3551 30.6269C45.9103 31.098 45.5918 31.6738 45.4291 32.3009C45.3473 32.6188 45.306 32.9457 45.3062 33.2739C45.3065 34.0124 45.518 34.7355 45.9155 35.3579C46.3131 35.9802 46.8802 36.4761 47.5502 36.7869L47.6691 36.8389C48.1458 37.039 48.6581 37.1411 49.1752 37.1389C49.2532 37.1389 49.3301 37.1389 49.4071 37.1309C49.4451 37.1309 49.4834 37.1282 49.5221 37.1229C49.5791 37.1179 49.6371 37.1119 49.6931 37.1039C49.7491 37.0959 49.7871 37.0909 49.8341 37.0819C49.8811 37.0729 49.9101 37.0689 49.9491 37.0599L49.9781 37.0549C50.0268 37.0449 50.0752 37.0336 50.1232 37.0209C50.1662 37.0109 50.2081 36.9989 50.2521 36.9869L50.2931 36.9739C50.3341 36.9629 50.3752 36.9499 50.4152 36.9359L50.4301 36.9309C50.4721 36.9159 50.5141 36.9019 50.5551 36.8849L50.5801 36.8749C50.6221 36.8599 50.6641 36.8419 50.7061 36.8239C50.7481 36.8059 50.8171 36.7739 50.8711 36.7479C50.9091 36.7289 50.9462 36.7109 50.9832 36.6909C51.1628 36.5964 51.3343 36.4874 51.4961 36.3649L51.5651 36.3119C51.5891 36.2939 51.6121 36.2749 51.6351 36.2559C51.6581 36.2369 51.6971 36.2039 51.7281 36.1759C51.7591 36.1479 51.7901 36.1219 51.8201 36.0939L51.8431 36.0719C52.3128 35.6261 52.6623 35.0688 52.8591 34.4519C52.8741 34.4019 52.8901 34.3519 52.9021 34.3019C52.9098 34.2786 52.9162 34.2549 52.9211 34.2309C52.9321 34.1849 52.9441 34.1389 52.9531 34.0929C52.9621 34.0469 52.9771 33.9729 52.9871 33.9119C52.9971 33.8509 53.0051 33.7909 53.0131 33.7299C53.039 33.4894 53.0421 33.247 53.0221 33.0059Z" fill="#FFA800"/>
<path opacity="0.63" d="M53.04 33.271C53.0404 33.6722 52.9779 34.071 52.855 34.453C53.0275 33.9003 53.0757 33.3163 52.996 32.7429C52.9163 32.1694 52.7107 31.6207 52.394 31.136C52.8162 31.7679 53.041 32.511 53.04 33.271Z" fill="#FF5F00"/>
<path opacity="0.63" d="M52.2612 30.9451C52.3072 31.0071 52.3512 31.0704 52.3932 31.1351C52.3512 31.0711 52.3082 31.0051 52.2612 30.9451Z" fill="#FF5F00"/>
<path d="M22.7502 27.3231C23.5825 27.3231 24.2572 26.6484 24.2572 25.8161C24.2572 24.9838 23.5825 24.3091 22.7502 24.3091C21.9179 24.3091 21.2432 24.9838 21.2432 25.8161C21.2432 26.6484 21.9179 27.3231 22.7502 27.3231Z" fill="white"/>
<path d="M49.0539 34.7789C49.8862 34.7789 50.5609 34.1042 50.5609 33.2719C50.5609 32.4396 49.8862 31.7649 49.0539 31.7649C48.2216 31.7649 47.5469 32.4396 47.5469 33.2719C47.5469 34.1042 48.2216 34.7789 49.0539 34.7789Z" fill="white"/>
<path d="M17.0822 57.722C17.9145 57.722 18.5892 57.0473 18.5892 56.215C18.5892 55.3827 17.9145 54.708 17.0822 54.708C16.2499 54.708 15.5752 55.3827 15.5752 56.215C15.5752 57.0473 16.2499 57.722 17.0822 57.722Z" fill="white"/>
</g>
<defs>
<clipPath id="clip0_433_30">
<rect width="65.216" height="62.609" fill="white"/>
</clipPath>
</defs>
</svg>
