<svg width="75" height="58" viewBox="0 0 75 58" fill="none" xmlns="http://www.w3.org/2000/svg">
<g clip-path="url(#clip0_433_24)">
<path d="M48.1746 38.302C48.3152 38.3023 48.4545 38.2748 48.5844 38.2211C48.7143 38.1674 48.8323 38.0885 48.9316 37.989C49.0311 37.8896 49.11 37.7716 49.1639 37.6418C49.2177 37.5119 49.2454 37.3726 49.2454 37.232C49.2454 37.0914 49.2177 36.9522 49.1639 36.8223C49.11 36.6924 49.0311 36.5744 48.9316 36.475L47.3966 34.94C47.2973 34.8405 47.1793 34.7616 47.0494 34.7078C46.9195 34.654 46.7802 34.6262 46.6396 34.6262C46.499 34.6262 46.3598 34.654 46.2299 34.7078C46.1 34.7616 45.982 34.8405 45.8826 34.94C45.7832 35.0394 45.7042 35.1574 45.6504 35.2873C45.5965 35.4172 45.5688 35.5564 45.5688 35.697C45.5688 35.8376 45.5965 35.9769 45.6504 36.1068C45.7042 36.2366 45.7832 36.3546 45.8826 36.454L47.4176 37.989C47.517 38.0885 47.635 38.1674 47.7649 38.2211C47.8948 38.2748 48.0341 38.3023 48.1746 38.302Z" fill="white"/>
<path d="M73.6338 15.6449L64.2208 6.23191C64.02 6.03155 63.748 5.91903 63.4643 5.91903C63.1807 5.91903 62.9086 6.03155 62.7078 6.23191C62.6083 6.33128 62.5294 6.44929 62.4756 6.57918C62.4217 6.70907 62.394 6.8483 62.394 6.98891C62.394 7.12952 62.4217 7.26875 62.4756 7.39864C62.5294 7.52853 62.6083 7.64653 62.7078 7.74591L71.9678 17.0059L66.0118 22.9639L51.2358 8.18991L57.1918 2.23391L59.1598 4.20191C59.3608 4.40232 59.633 4.51487 59.9168 4.51487C60.2007 4.51487 60.4729 4.40232 60.6738 4.20191C60.8742 4.00095 60.9868 3.72873 60.9868 3.44491C60.9868 3.1611 60.8742 2.88886 60.6738 2.68791L58.5538 0.568905C58.3754 0.389396 58.1632 0.247038 57.9294 0.150059C57.6956 0.0530796 57.4449 0.00340913 57.1918 0.00391C56.9387 0.00340913 56.688 0.0530796 56.4543 0.150059C56.2205 0.247038 56.0083 0.389396 55.8298 0.568905L49.5708 6.82791C49.3913 7.00633 49.249 7.21857 49.152 7.45235C49.055 7.68613 49.0053 7.93681 49.0058 8.18991C49.0062 8.41553 49.0465 8.63932 49.1248 8.85091L46.6378 11.3379C46.4584 11.5176 46.2426 11.6569 46.0049 11.7464C45.7673 11.8359 45.5132 11.8736 45.2598 11.8569L32.1598 11.0029C31.4948 10.9585 30.829 11.0776 30.2206 11.3499C29.6122 11.6222 29.0798 12.0393 28.6698 12.5649C28.2273 12.3027 27.8194 11.9859 27.4558 11.6219L25.0878 9.25291C24.9929 9.50482 24.8452 9.73358 24.6548 9.92391L23.6928 10.8849L25.9438 13.1359C26.4513 13.6441 27.0228 14.0841 27.6438 14.4449L26.9278 15.8989C26.8122 16.1333 26.663 16.3496 26.4848 16.5409L22.6268 20.6829C22.3868 20.9413 22.2114 21.253 22.1151 21.5923C22.0188 21.9316 22.0043 22.2889 22.0728 22.6349C22.1426 22.9804 22.2934 23.3044 22.5128 23.5803C22.7322 23.8562 23.0139 24.0761 23.3348 24.2219L24.9678 24.9629C25.6278 25.201 26.3242 25.3219 27.0258 25.3199C28.4671 25.319 29.8629 24.8146 30.9718 23.8939L34.1118 21.3029C34.1541 21.2682 34.2037 21.2437 34.257 21.2312C34.3102 21.2187 34.3656 21.2186 34.4188 21.2309L43.7188 23.3789C43.8188 23.4009 43.9098 23.4209 44.0048 23.4399L44.1508 23.9699C44.334 24.6303 44.6843 25.2323 45.1678 25.7179L59.4898 40.0399C59.6903 40.2409 59.8028 40.5131 59.8028 40.7969C59.8028 41.0807 59.6903 41.353 59.4898 41.5539L57.5068 43.5379C57.4073 43.6374 57.2891 43.7164 57.1591 43.7701C57.029 43.8238 56.8895 43.8513 56.7488 43.8509C56.6084 43.851 56.4694 43.8235 56.3396 43.7697C56.2099 43.716 56.092 43.6373 55.9928 43.5379L54.3928 41.9379L52.7148 40.2599C52.6156 40.1603 52.4977 40.0813 52.3679 40.0274C52.2381 39.9735 52.0989 39.9458 51.9583 39.9458C51.8177 39.9458 51.6786 39.9735 51.5488 40.0274C51.4189 40.0813 51.301 40.1603 51.2018 40.2599C51.1022 40.3591 51.0233 40.477 50.9694 40.6068C50.9155 40.7367 50.8877 40.8758 50.8877 41.0164C50.8877 41.157 50.9155 41.2962 50.9694 41.426C51.0233 41.5558 51.1022 41.6737 51.2018 41.7729L53.3448 43.9179C53.5452 44.1187 53.6577 44.3908 53.6577 44.6744C53.6577 44.9581 53.5452 45.2301 53.3448 45.4309L51.3608 47.4149C51.2616 47.5146 51.1437 47.5936 51.0137 47.6473C50.8838 47.7011 50.7444 47.7285 50.6038 47.7279C50.4632 47.7282 50.324 47.7007 50.1941 47.6469C50.0642 47.5932 49.9462 47.5144 49.8468 47.4149L42.3918 39.9599C42.2302 39.7987 42.0213 39.6933 41.7956 39.6589C41.5699 39.6246 41.3391 39.6631 41.1368 39.7689C41.0418 39.8194 40.9548 39.8838 40.8788 39.9599C40.7792 40.0591 40.7003 40.177 40.6464 40.3068C40.5925 40.4367 40.5647 40.5758 40.5647 40.7164C40.5647 40.857 40.5925 40.9961 40.6464 41.126C40.7003 41.2558 40.7792 41.3737 40.8788 41.4729L47.1788 47.7729C47.3792 47.9737 47.4917 48.2458 47.4917 48.5294C47.4917 48.8131 47.3792 49.0851 47.1788 49.2859L45.1948 51.2699C44.994 51.4703 44.722 51.5828 44.4383 51.5828C44.1547 51.5828 43.8826 51.4703 43.6818 51.2699L37.3818 44.9699C37.2826 44.8703 37.1647 44.7913 37.0349 44.7374C36.9051 44.6835 36.7659 44.6558 36.6253 44.6558C36.4848 44.6558 36.3456 44.6835 36.2158 44.7374C36.0859 44.7913 35.9681 44.8703 35.8688 44.9699C35.8316 45.0073 35.7982 45.0481 35.7688 45.0919L35.0688 44.3919C34.7272 44.0507 34.3129 43.7912 33.8568 43.6329C33.9751 43.2947 34.036 42.9392 34.0368 42.5809C34.0379 42.159 33.9552 41.741 33.7937 41.3512C33.6322 40.9614 33.395 40.6075 33.0958 40.3099L31.1118 38.3259C30.8138 38.0264 30.4597 37.7886 30.0698 37.6259C29.6802 37.4647 29.2625 37.3821 28.8408 37.3829C28.4816 37.3836 28.125 37.4445 27.7858 37.5629C27.629 37.1066 27.3701 36.6921 27.0288 36.3509L25.0448 34.3669C24.5265 33.8509 23.8478 33.527 23.1207 33.4485C22.3936 33.3699 21.6614 33.5415 21.0448 33.9349C20.8863 33.5769 20.6633 33.2512 20.3868 32.9739L18.4028 30.9899C18.1156 30.7027 17.7762 30.4729 17.4028 30.3129C17.0312 30.1537 16.6329 30.0658 16.2288 30.0539C16.1728 29.9949 13.3578 27.1759 13.3578 27.1759C13.1569 26.9755 12.8846 26.8629 12.6008 26.8629C12.317 26.8629 12.0448 26.9755 11.8438 27.1759C11.6435 27.3767 11.5309 27.6488 11.5309 27.9324C11.5309 28.2161 11.6435 28.4881 11.8438 28.6889L14.0088 30.8539C13.9578 30.8989 13.9088 30.9419 13.8578 30.9899L12.1898 32.6569C11.4757 33.3728 11.0747 34.3427 11.0747 35.3539C11.0747 36.3651 11.4757 37.335 12.1898 38.0509L13.3218 39.1809C13.6754 39.5368 14.0961 39.8188 14.5597 40.0105C15.0232 40.2023 15.5202 40.3 16.0218 40.2979H16.0888C16.0888 40.3209 16.0888 40.3429 16.0888 40.3659C16.0869 40.8675 16.1846 41.3645 16.3763 41.828C16.5681 42.2915 16.85 42.7123 17.2058 43.0659L18.3378 44.1979C18.692 44.5529 19.1129 44.8342 19.5763 45.0258C20.0397 45.2173 20.5364 45.3152 21.0378 45.3139H21.0448C21.0342 45.8062 21.1235 46.2955 21.3072 46.7523C21.4909 47.2092 21.7654 47.624 22.1138 47.9719L23.4558 49.3149C23.7955 49.6558 24.1994 49.926 24.6441 50.11C25.0888 50.294 25.5656 50.3881 26.0468 50.3869H26.1138V50.3929C26.1119 50.8944 26.2095 51.3913 26.4011 51.8548C26.5926 52.3183 26.8743 52.7392 27.2298 53.0929L28.3618 54.2249C28.7156 54.5804 29.1364 54.8621 29.5999 55.0537C30.0634 55.2453 30.5603 55.3429 31.0618 55.3409C32.0324 55.3438 32.967 54.9732 33.6718 54.3059L36.1078 56.7409C36.4048 57.0402 36.7584 57.2776 37.1479 57.4391C37.5374 57.6006 37.9551 57.6832 38.3768 57.6819C38.7988 57.6831 39.2168 57.6006 39.6066 57.439C39.9965 57.2775 40.3504 57.0402 40.6478 56.7409L42.6318 54.7589C42.9729 54.4165 43.2323 54.0015 43.3908 53.5449C43.7291 53.6628 44.0846 53.7237 44.4428 53.7249C44.8646 53.7258 45.2823 53.6433 45.6721 53.4821C46.0618 53.321 46.4159 53.0844 46.7138 52.7859L48.6968 50.8039C49.023 50.4772 49.2741 50.0834 49.4328 49.6499C49.8085 49.7985 50.2088 49.8749 50.6128 49.8749C51.0348 49.8761 51.4528 49.7936 51.8427 49.632C52.2325 49.4705 52.5864 49.2332 52.8838 48.9339L54.8678 46.9499C55.1969 46.6203 55.4499 46.2227 55.6088 45.7849C55.9761 45.9263 56.3663 45.9988 56.7598 45.9989C57.1818 45.9999 57.5997 45.9173 57.9895 45.7558C58.3793 45.5943 58.7333 45.3571 59.0308 45.0579L61.0148 43.0739C61.616 42.4714 61.9536 41.655 61.9536 40.8039C61.9536 39.9528 61.616 39.1364 61.0148 38.5339L57.5718 35.0909L59.5918 31.4909C59.9279 30.8926 60.3445 30.3431 60.8298 29.8579L65.5408 25.1469C65.7009 25.1884 65.8655 25.2099 66.0308 25.2109C66.2838 25.2115 66.5345 25.1619 66.7682 25.0651C67.002 24.9683 67.2143 24.8262 67.3928 24.6469L73.6518 18.3879C73.8323 18.2075 73.9751 17.993 74.072 17.7569C74.1688 17.5208 74.2179 17.2678 74.2162 17.0126C74.2145 16.7575 74.1622 16.5052 74.0622 16.2704C73.9623 16.0356 73.8166 15.823 73.6338 15.6449ZM16.0138 38.1539C15.794 38.1545 15.5763 38.1115 15.3732 38.0274C15.1702 37.9433 14.9858 37.8198 14.8308 37.6639L13.6988 36.5319C13.3856 36.2181 13.2097 35.7928 13.2097 35.3494C13.2097 34.906 13.3856 34.4808 13.6988 34.1669L15.3658 32.4989C15.4653 32.3994 15.5835 32.3205 15.7136 32.2668C15.8437 32.213 15.9831 32.1856 16.1238 32.1859C16.2644 32.1856 16.4037 32.2132 16.5336 32.2669C16.6635 32.3206 16.7815 32.3994 16.8808 32.4989L18.8648 34.4829C19.0652 34.6837 19.1777 34.9558 19.1777 35.2394C19.1777 35.5231 19.0652 35.7951 18.8648 35.9959L17.1968 37.6639C17.0418 37.8198 16.8575 37.9433 16.6544 38.0274C16.4514 38.1115 16.2336 38.1545 16.0138 38.1539ZM19.8408 42.6749L18.7088 41.5429C18.553 41.3879 18.4294 41.2036 18.3453 41.0005C18.2612 40.7974 18.2182 40.5797 18.2188 40.3599C18.2181 40.1399 18.2612 39.9219 18.3455 39.7186C18.4298 39.5154 18.5537 39.3309 18.7098 39.1759L22.0098 35.8759C22.2108 35.6755 22.483 35.5629 22.7668 35.5629C23.0506 35.5629 23.3229 35.6755 23.5238 35.8759L25.5078 37.8579C25.7082 38.0589 25.8208 38.3311 25.8208 38.6149C25.8208 38.8987 25.7082 39.171 25.5078 39.3719L22.2078 42.6719C21.8943 42.9863 21.4687 43.1633 21.0247 43.1641C20.5806 43.1648 20.1544 42.9893 19.8398 42.6759L19.8408 42.6749ZM27.1128 47.7909C26.8261 48.0749 26.4389 48.2343 26.0353 48.2343C25.6318 48.2343 25.2445 48.0749 24.9578 47.7909L23.6148 46.4489C23.3301 46.1626 23.1702 45.7752 23.1702 45.3714C23.1702 44.9676 23.3301 44.5802 23.6148 44.2939L28.0768 39.8319C28.2782 39.6328 28.5501 39.5211 28.8333 39.5211C29.1166 39.5211 29.3884 39.6328 29.5898 39.8319L31.5728 41.8159C31.6726 41.9149 31.7517 42.0327 31.8056 42.1624C31.8595 42.2922 31.8871 42.4314 31.8868 42.5719C31.8873 42.7128 31.8598 42.8523 31.8059 42.9824C31.752 43.1126 31.6728 43.2307 31.5728 43.3299L27.1128 47.7909ZM32.2288 52.6969C32.0738 52.8527 31.8895 52.9763 31.6864 53.0604C31.4833 53.1445 31.2656 53.1875 31.0458 53.1869C30.826 53.1875 30.6083 53.1445 30.4052 53.0604C30.2022 52.9763 30.0178 52.8527 29.8628 52.6969L28.7308 51.5649C28.575 51.4099 28.4514 51.2256 28.3673 51.0225C28.2832 50.8194 28.2402 50.6017 28.2408 50.3819C28.2402 50.1621 28.2832 49.9444 28.3673 49.7413C28.4514 49.5383 28.575 49.3539 28.7308 49.1989L32.0308 45.8989C32.2322 45.6992 32.5042 45.5872 32.7878 45.5872C33.0714 45.5872 33.3435 45.6992 33.5448 45.8989L35.5278 47.8829C35.7282 48.0837 35.8407 48.3558 35.8407 48.6394C35.8407 48.9231 35.7282 49.1951 35.5278 49.3959L32.2288 52.6969ZM41.1018 53.2299L39.1178 55.2139C39.0188 55.3135 38.9009 55.3924 38.7712 55.4461C38.6414 55.4999 38.5023 55.5273 38.3618 55.5269C38.2212 55.5272 38.082 55.4997 37.9521 55.4459C37.8222 55.3922 37.7042 55.3134 37.6048 55.2139L35.1718 52.7809L37.0438 50.9099C37.3472 50.6064 37.5864 50.2449 37.7472 49.847C37.908 49.4491 37.9871 49.023 37.9798 48.5939L41.1028 51.7169C41.2022 51.8161 41.281 51.934 41.3347 52.0637C41.3884 52.1934 41.416 52.3325 41.4158 52.4729C41.4162 52.6137 41.3886 52.7531 41.3345 52.8831C41.2804 53.0131 41.201 53.131 41.1008 53.2299H41.1018ZM59.3018 28.3299C58.6783 28.9539 58.1433 29.6605 57.7118 30.4299L55.9858 33.5069L46.6788 24.1989C46.5069 24.0275 46.3709 23.8236 46.2788 23.5989C47.1944 23.5523 48.0979 23.37 48.9598 23.0579C49.0919 23.0102 49.2132 22.9369 49.317 22.8423C49.4207 22.7477 49.5048 22.6335 49.5644 22.5064C49.624 22.3793 49.658 22.2416 49.6645 22.1014C49.6709 21.9611 49.6496 21.8209 49.6018 21.6889C49.5541 21.5567 49.4808 21.4352 49.3861 21.3314C49.2915 21.2275 49.1772 21.1433 49.05 21.0836C48.9228 21.0239 48.7851 20.9899 48.6447 20.9834C48.5043 20.9769 48.364 20.9982 48.2318 21.0459C46.9377 21.5146 45.5356 21.5986 44.1948 21.2879L34.8948 19.1389C34.5212 19.0541 34.1331 19.0556 33.7602 19.1435C33.3872 19.2313 33.0393 19.4032 32.7428 19.6459L29.6008 22.2389C29.0787 22.6729 28.4559 22.9686 27.7896 23.0987C27.1232 23.2289 26.4349 23.1894 25.7878 22.9839L24.2098 22.2699C24.1688 22.2699 24.1458 22.1559 24.1838 22.1399L24.2518 22.0679L28.0428 17.9989C28.3644 17.655 28.634 17.2659 28.8428 16.8439L30.1358 14.2249C30.3065 13.878 30.5764 13.5896 30.9113 13.3964C31.2462 13.2032 31.631 13.1139 32.0168 13.1399L45.1168 13.9939C45.674 14.0298 46.2325 13.9465 46.7549 13.7496C47.2774 13.5526 47.7519 13.2466 48.1468 12.8519L50.5138 10.4899L63.8278 23.8039L59.3018 28.3299Z" fill="white"/>
<path d="M9.62976 17.2441C9.62976 17.4132 9.59644 17.5807 9.53171 17.737C9.46698 17.8933 9.3721 18.0353 9.2525 18.1549C9.1329 18.2745 8.99092 18.3693 8.83466 18.4341C8.67839 18.4988 8.51091 18.5321 8.34177 18.5321C8.17249 18.5322 8.00486 18.499 7.84842 18.4344C7.69198 18.3697 7.54978 18.2749 7.42999 18.1553C7.31021 18.0357 7.21517 17.8936 7.15027 17.7373C7.08537 17.581 7.05189 17.4134 7.05176 17.2441C7.05163 17.0747 7.08491 16.9069 7.14969 16.7503C7.21447 16.5937 7.30948 16.4514 7.42929 16.3316C7.5491 16.2118 7.69136 16.1168 7.84793 16.052C8.0045 15.9873 8.17232 15.954 8.34177 15.9541C8.51104 15.9542 8.67862 15.9877 8.83496 16.0526C8.9913 16.1175 9.13333 16.2126 9.25293 16.3324C9.37253 16.4521 9.46736 16.5943 9.53201 16.7507C9.59667 16.9072 9.62989 17.0748 9.62976 17.2441Z" fill="white"/>
<path d="M24.697 7.29103C24.682 7.27403 24.6651 7.25603 24.6491 7.24003L18.349 0.940031C18.332 0.923031 18.3141 0.905029 18.2951 0.889029C17.9413 0.569942 17.4815 0.393854 17.005 0.395025C16.6888 0.394553 16.3774 0.471826 16.098 0.620031C16.073 0.633031 16.05 0.648031 16.026 0.662031C16.002 0.676031 15.9871 0.685027 15.9681 0.698027L15.8901 0.752028C15.8124 0.809072 15.7392 0.871922 15.671 0.940031L0.544015 16.064C0.475887 16.1322 0.41305 16.2054 0.356027 16.283C0.337027 16.309 0.318072 16.335 0.302072 16.361C0.0759535 16.7165 -0.02788 17.1361 0.00641768 17.5559C0.0407154 17.9758 0.211269 18.373 0.492074 18.687L0.544015 18.742L6.84403 25.042C6.86703 25.065 6.89005 25.087 6.91505 25.109C7.26577 25.4165 7.71665 25.5854 8.18305 25.584C8.64946 25.5854 9.10034 25.4165 9.45106 25.109C9.47606 25.087 9.49904 25.066 9.52204 25.042L23.686 10.878L24.6481 9.91703C24.8385 9.7267 24.9861 9.49794 25.081 9.24603L25.0711 9.23603C25.1904 8.9083 25.2186 8.55436 25.1527 8.21187C25.0869 7.86937 24.9294 7.55113 24.697 7.29103ZM7.05204 17.244C7.05191 17.0746 7.08519 16.9068 7.14997 16.7502C7.21475 16.5936 7.30976 16.4514 7.42957 16.3316C7.54939 16.2118 7.69165 16.1167 7.84821 16.052C8.00478 15.9872 8.17261 15.9539 8.34205 15.954C8.51132 15.9542 8.67891 15.9876 8.83524 16.0525C8.99158 16.1174 9.13361 16.2125 9.25321 16.3323C9.37281 16.4521 9.46764 16.5942 9.5323 16.7507C9.59695 16.9071 9.63018 17.0748 9.63004 17.244C9.63004 17.5856 9.49433 17.9132 9.25279 18.1548C9.01124 18.3963 8.68365 18.532 8.34205 18.532C8.17278 18.5322 8.00514 18.499 7.8487 18.4343C7.69226 18.3696 7.55006 18.2748 7.43028 18.1552C7.31049 18.0356 7.21545 17.8936 7.15055 17.7372C7.08565 17.5809 7.05217 17.4133 7.05204 17.244Z" fill="#FFA800"/>
</g>
<defs>
<clipPath id="clip0_433_24">
<rect width="74.198" height="57.668" fill="white"/>
</clipPath>
</defs>
</svg>
