<svg width="200" height="120" viewBox="0 0 200 120" fill="none" xmlns="http://www.w3.org/2000/svg">
<path d="M101.06 73.2983C100.833 73.2983 100.649 73.2205 100.522 73.0718C100.395 72.9161 100.317 72.7391 100.295 72.5339L97.3933 31.6632L94.4911 72.5339C94.4628 72.7391 94.392 72.9161 94.2646 73.0718C94.1372 73.2275 93.9603 73.2983 93.7267 73.2983H89.4088C89.1823 73.2983 88.9983 73.2205 88.8709 73.0718C88.7435 72.9161 88.6656 72.7391 88.6444 72.5339L84.0647 20.7837C84.0363 20.5572 84.1071 20.3378 84.277 20.1325C84.4398 19.9272 84.7017 19.8281 85.0627 19.8281H86.9314C87.5685 19.8281 88.0993 20.0122 88.517 20.3802C88.9346 20.7483 89.1753 21.2013 89.2248 21.7393L91.4757 60.5855L94.7247 22.1215C94.7743 21.4349 95.0716 20.9465 95.6024 20.6492C96.1404 20.359 96.7208 20.2104 97.3579 20.2104H97.4357C98.0728 20.2104 98.6603 20.3661 99.1912 20.6705C99.7291 20.9748 100.019 21.4562 100.069 22.1215L103.275 60.5855L105.569 21.7393C105.618 21.2013 105.852 20.7554 106.277 20.3802C106.694 20.0122 107.225 19.8281 107.862 19.8281H109.731C110.085 19.8281 110.347 19.9272 110.517 20.1325C110.679 20.3378 110.75 20.5501 110.729 20.7837L106.142 72.5409C106.114 72.7462 106.043 72.9232 105.916 73.0789C105.788 73.2346 105.611 73.3054 105.378 73.3054H101.06V73.2983Z" fill="#383838"/>
<path d="M122.374 21.7739C122.374 21.1864 122.579 20.7193 122.982 20.3583C123.386 20.0044 123.924 19.8203 124.589 19.8203H126.727C126.982 19.8203 127.173 19.8982 127.3 20.0468C127.428 20.2025 127.491 20.3937 127.491 20.6202V71.9244C127.491 72.3066 127.357 72.6322 127.088 72.9012C126.819 73.1702 126.493 73.3047 126.111 73.3047H123.74C123.357 73.3047 123.032 73.1702 122.763 72.9012C122.494 72.6322 122.359 72.3066 122.359 71.9244V21.7739H122.374Z" fill="#383838"/>
<path d="M152.32 38.2731C151.584 38.2731 151.025 38.0607 150.657 37.6431C150.289 37.2255 150.105 36.6804 150.105 36.0221V25.7868C150.105 25.1002 149.921 24.548 149.553 24.1233C149.185 23.7057 148.633 23.4934 147.889 23.4934C147.146 23.4934 146.566 23.7057 146.212 24.1233C145.858 24.541 145.674 25.1002 145.674 25.7868C145.674 28.1014 145.808 30.1895 146.077 32.0511C146.346 33.9128 146.707 35.6257 147.167 37.2042C147.627 38.7827 148.144 40.2762 148.718 41.6707C149.291 43.0722 149.871 44.4666 150.459 45.854C151.046 47.2414 151.627 48.6641 152.2 50.1152C152.773 51.5663 153.29 53.1448 153.75 54.8507C154.21 56.5565 154.571 58.4252 154.84 60.4638C155.109 62.5024 155.244 64.7958 155.244 67.3369C155.244 68.3562 155.074 69.2693 154.727 70.0692C154.38 70.8691 153.885 71.5557 153.241 72.129C152.589 72.7024 151.818 73.1412 150.912 73.4456C150.006 73.75 149.008 73.9057 147.911 73.9057C145.596 73.9057 143.791 73.3182 142.503 72.1502C141.214 70.9823 140.577 69.3755 140.577 67.3369V55.6505C140.577 55.424 140.641 55.2329 140.769 55.0772C140.896 54.9214 141.087 54.8507 141.342 54.8507H143.48C144.216 54.8507 144.775 55.063 145.143 55.4806C145.511 55.8983 145.695 56.4433 145.695 57.1016V67.3369C145.695 68.0235 145.879 68.5757 146.247 69.0004C146.615 69.418 147.167 69.6303 147.911 69.6303C148.654 69.6303 149.234 69.418 149.588 69.0004C149.942 68.5827 150.126 68.0235 150.126 67.3369C150.126 64.0809 149.893 61.2283 149.418 58.7792C148.944 56.3371 148.357 54.1145 147.642 52.1113C146.927 50.1152 146.162 48.2182 145.348 46.4203C144.534 44.6224 143.77 42.7324 143.055 40.7505C142.34 38.7615 141.752 36.5742 141.278 34.1817C140.804 31.7892 140.57 28.9862 140.57 25.7797C140.57 24.7604 140.74 23.8544 141.087 23.0474C141.434 22.2476 141.929 21.5539 142.573 20.9876C143.218 20.4213 143.996 19.9754 144.881 19.671C145.773 19.3667 146.778 19.2109 147.896 19.2109C150.211 19.2109 152.016 19.7984 153.304 20.9664C154.593 22.1414 155.23 23.7411 155.23 25.7797V37.4661C155.23 37.6926 155.166 37.8837 155.039 38.0395C154.911 38.1952 154.72 38.266 154.465 38.266H152.328L152.32 38.2731Z" fill="#383838"/>
<path d="M179.749 19.8281C179.975 19.8281 180.166 19.8918 180.322 20.0192C180.478 20.1467 180.549 20.3378 180.549 20.5926V21.8879C180.549 22.5533 180.372 23.0842 180.011 23.4947C179.657 23.9053 179.183 24.1035 178.595 24.1035H173.895V44.6874H178.977C179.204 44.6874 179.395 44.7511 179.551 44.8786C179.706 45.006 179.777 45.1971 179.777 45.4519V46.7473C179.777 47.4126 179.6 47.9435 179.239 48.354C178.885 48.7646 178.411 48.9628 177.824 48.9628H173.888V69.0159H178.588C179.176 69.0159 179.643 69.2212 180.004 69.6246C180.358 70.0352 180.542 70.566 180.542 71.2314V72.5268C180.542 72.7816 180.464 72.9727 180.315 73.1001C180.159 73.2275 179.968 73.2912 179.742 73.2912H169.542C169.287 73.2912 169.096 73.2134 168.968 73.0647C168.841 72.909 168.777 72.7179 168.777 72.4914V20.628C168.777 20.4015 168.841 20.2104 168.968 20.0546C169.096 19.8989 169.287 19.8281 169.542 19.8281H179.742H179.749Z" fill="#383838"/>
<path d="M96.543 61.8008H98.2419L98.9568 73.1262H95.8281L96.543 61.8008Z" fill="#383838"/>
<path d="M96.9889 50.3438H97.7958L98.2418 57.1744H96.543L96.9889 50.3438Z" fill="#383838"/>
<path d="M97.2573 42.2578H97.5262L97.7952 46.4907H96.9883L97.2573 42.2578Z" fill="#383838"/>
<path d="M195.719 3.99221V88.9046H68.8321V3.99221H195.719ZM199.712 0H64.8398V92.8969H199.712V0Z" fill="#383838"/>
<path d="M7.08734 54.7538L9.85496 46.4863L12.5447 54.7538H15.5742L19.5664 42.5508H16.8696L14.0241 51.1934L11.2352 42.5508H8.61626L5.74247 51.1297L2.98901 42.5508H0.0585938L4.05075 54.7538H7.08734Z" fill="#383838"/>
<path d="M32.3362 52.4887H25.6897V49.6645H31.3594V47.4631H25.6897V44.8158H32.1097V42.5508H22.8867V54.7538H32.3362V52.4887Z" fill="#383838"/>
<path d="M41.7015 52.5319C41.3618 52.6451 40.9088 52.6947 40.3496 52.6947C39.6205 52.6947 38.8914 52.5743 38.1765 52.3337C37.4616 52.093 36.8458 51.7886 36.322 51.4206L35.3594 53.5511C35.9044 53.9688 36.6264 54.3085 37.5183 54.5704C38.4101 54.8323 39.3515 54.9597 40.3283 54.9597C41.4892 54.9597 42.4518 54.7828 43.2163 54.4359C43.9807 54.0891 44.547 53.629 44.9363 53.0557C45.3185 52.4894 45.5097 51.8594 45.5097 51.1728C45.5097 50.5358 45.3822 50.0049 45.1203 49.5873C44.8585 49.1697 44.5187 48.8299 44.1011 48.5751C43.6835 48.3203 43.2234 48.115 42.7137 47.9664C42.2112 47.8177 41.7015 47.6832 41.199 47.5629C40.6964 47.4496 40.2292 47.3293 39.8116 47.2161C39.394 47.1028 39.0542 46.9471 38.7994 46.756C38.5446 46.5649 38.4172 46.31 38.4172 45.9986C38.4172 45.7296 38.4951 45.496 38.6437 45.2908C38.7923 45.0855 39.0472 44.9227 39.394 44.7953C39.7408 44.6679 40.1868 44.6042 40.7389 44.6042C41.291 44.6042 41.8431 44.682 42.4164 44.8377C42.9898 44.9935 43.556 45.2341 44.1223 45.5597L44.9929 43.415C44.4267 43.054 43.7684 42.785 43.0252 42.601C42.282 42.424 41.5246 42.332 40.7601 42.332C39.6064 42.332 38.6508 42.5019 37.8934 42.8487C37.136 43.1956 36.5627 43.6486 36.1875 44.229C35.8124 44.8024 35.6213 45.4394 35.6213 46.1402C35.6213 46.7914 35.7558 47.3293 36.0106 47.7469C36.2654 48.1645 36.6122 48.5043 37.0299 48.7591C37.4475 49.0139 37.9076 49.2263 38.4172 49.3891C38.9198 49.5519 39.4294 49.6864 39.932 49.7996C40.4345 49.9129 40.9017 50.0261 41.3193 50.1465C41.7369 50.2668 42.0767 50.4225 42.3315 50.6207C42.5863 50.8118 42.7137 51.0737 42.7137 51.3993C42.7137 51.6541 42.6288 51.8807 42.466 52.0788C42.3032 52.277 42.0484 52.4328 41.7086 52.5389L41.7015 52.5319Z" fill="#383838"/>
<path d="M51.5478 54.7538H54.3721V44.8512H58.2793V42.5508H47.6406V44.8512H51.5478V54.7538Z" fill="#383838"/>
<path d="M3.94533 64.2227H1.12109V76.4256H3.94533V64.2227Z" fill="#383838"/>
<path d="M15.2648 73.0666C16.3548 73.0666 17.2963 72.8897 18.089 72.5358C18.8818 72.1818 19.4905 71.6722 19.9223 71.0068C20.3541 70.3415 20.5664 69.5629 20.5664 68.6498C20.5664 67.7367 20.3541 66.9439 19.9223 66.2785C19.4905 65.6132 18.8818 65.1106 18.089 64.7496C17.2963 64.3957 16.3548 64.2188 15.2648 64.2188H9.98438V76.4217H12.8086V73.0595H15.2648V73.0666ZM17.0627 67.0855C17.4944 67.4606 17.7068 67.9773 17.7068 68.6568C17.7068 69.3364 17.4944 69.8389 17.0627 70.207C16.6309 70.5821 15.9797 70.7662 15.1091 70.7662H12.8086V66.5263H15.1091C15.9797 66.5263 16.6309 66.7103 17.0627 67.0855Z" fill="#383838"/>
<path d="M31.8133 76.6394C32.7688 76.6394 33.6465 76.4837 34.4535 76.1652C35.2604 75.8466 35.9611 75.4149 36.5628 74.8486C37.1645 74.2823 37.6316 73.617 37.9643 72.8454C38.3041 72.0739 38.4669 71.2316 38.4669 70.3256C38.4669 69.4195 38.297 68.5701 37.9643 67.8057C37.6245 67.0412 37.1574 66.3759 36.5628 65.8096C35.9682 65.2433 35.2604 64.7974 34.4535 64.486C33.6465 64.1745 32.7618 64.0117 31.792 64.0117C30.8223 64.0117 29.9517 64.1674 29.1447 64.486C28.3307 64.7974 27.6229 65.2433 27.0142 65.8096C26.4054 66.3759 25.9453 67.0483 25.6127 67.8128C25.28 68.5772 25.1172 69.4195 25.1172 70.3256C25.1172 71.2316 25.28 72.0668 25.6127 72.8384C25.9453 73.6028 26.4054 74.2753 27.0071 74.8415C27.6017 75.4078 28.3166 75.8537 29.1306 76.1652C29.9517 76.4766 30.8435 76.6394 31.8062 76.6394H31.8133ZM28.267 71.904C28.0759 71.4227 27.9768 70.8989 27.9768 70.3256C27.9768 69.7522 28.0759 69.2143 28.267 68.74C28.4581 68.2658 28.7271 67.8482 29.081 67.5013C29.4349 67.1545 29.8313 66.8855 30.2914 66.7015C30.7515 66.5174 31.2541 66.4254 31.7991 66.4254C32.3441 66.4254 32.8538 66.5174 33.3139 66.7015C33.781 66.8855 34.1845 67.1545 34.5242 67.5013C34.864 67.8482 35.133 68.2658 35.3241 68.74C35.5152 69.2143 35.6143 69.7451 35.6143 70.3256C35.6143 70.906 35.5152 71.4369 35.3241 71.9111C35.133 72.3853 34.864 72.803 34.5172 73.1498C34.1703 73.4966 33.7669 73.7656 33.3068 73.9496C32.8467 74.1337 32.3441 74.2257 31.7991 74.2257C31.2541 74.2257 30.7444 74.1337 30.2843 73.9496C29.8172 73.7656 29.4137 73.4966 29.074 73.1498C28.7342 72.803 28.4652 72.3853 28.2741 71.904H28.267Z" fill="#383838"/>
<path d="M43.7383 64.2227V76.4256H46.5625V71.4213H52.1048V76.4256H54.9291V64.2227H52.1048V69.0359H46.5625V64.2227H43.7383Z" fill="#383838"/>
<path d="M6.49841 95.8873C6.15865 96.0006 5.70564 96.0501 5.14645 96.0501C4.41739 96.0501 3.68832 95.9298 2.97341 95.6891C2.2585 95.4485 1.64269 95.1441 1.1189 94.776L0.15625 96.9066C0.701279 97.3242 1.42327 97.664 2.31513 97.9259C3.207 98.1878 4.14841 98.3152 5.12522 98.3152C6.28606 98.3152 7.24871 98.1382 8.01316 97.7914C8.77762 97.4445 9.34388 96.9845 9.73319 96.4111C10.1154 95.8449 10.3065 95.2149 10.3065 94.5283C10.3065 93.8912 10.1791 93.3604 9.91722 92.9428C9.65533 92.5251 9.31557 92.1854 8.89795 91.9306C8.48033 91.6757 8.02024 91.4705 7.5106 91.3218C7.00804 91.1732 6.49841 91.0387 5.99585 90.9184C5.49329 90.8051 5.02612 90.6848 4.6085 90.5715C4.19088 90.4583 3.85112 90.3025 3.5963 90.1114C3.34148 89.9203 3.21408 89.6655 3.21408 89.3541C3.21408 89.0851 3.29194 88.8515 3.44058 88.6462C3.58923 88.441 3.84404 88.2782 4.19088 88.1507C4.53772 88.0233 4.98365 87.9596 5.53576 87.9596C6.08786 87.9596 6.63997 88.0375 7.21331 88.1932C7.78666 88.3489 8.35292 88.5896 8.91918 88.9152L9.78981 86.7705C9.22355 86.4095 8.56527 86.1405 7.82205 85.9565C7.07883 85.7795 6.32145 85.6875 5.55699 85.6875C4.40323 85.6875 3.44766 85.8574 2.69028 86.2042C1.9329 86.5511 1.35956 87.0041 0.984411 87.5845C0.609261 88.1578 0.418147 88.7949 0.418147 89.4956C0.418147 90.1468 0.552635 90.6848 0.807453 91.1024C1.06227 91.52 1.40911 91.8598 1.82673 92.1146C2.24435 92.3694 2.70444 92.5818 3.21408 92.7446C3.71663 92.9074 4.22627 93.0419 4.72883 93.1551C5.23139 93.2684 5.69856 93.3816 6.11618 93.5019C6.5338 93.6223 6.87356 93.778 7.12837 93.9762C7.38319 94.1673 7.5106 94.4292 7.5106 94.7548C7.5106 95.0096 7.42566 95.2361 7.26286 95.4343C7.10006 95.6325 6.84524 95.7882 6.50548 95.8944L6.49841 95.8873Z" fill="#383838"/>
<path d="M14.6914 85.8977V98.1007H17.5156V94.7385H19.9718C21.0619 94.7385 22.0033 94.5615 22.7961 94.2076C23.5888 93.8537 24.1976 93.3441 24.6293 92.6787C25.0611 92.0134 25.2735 91.2347 25.2735 90.3216C25.2735 89.4085 25.0611 88.6158 24.6293 87.9504C24.1976 87.2851 23.5888 86.7825 22.7961 86.4215C22.0033 86.0676 21.0619 85.8906 19.9718 85.8906H14.6914V85.8977ZM22.4138 90.3287C22.4138 90.9941 22.2015 91.5108 21.7697 91.8789C21.3379 92.254 20.6867 92.4381 19.8161 92.4381H17.5156V88.1982H19.8161C20.6867 88.1982 21.3379 88.3822 21.7697 88.7573C22.2015 89.1325 22.4138 89.6492 22.4138 90.3287Z" fill="#383838"/>
<path d="M32.9432 85.8984L27.5 98.1014H30.395L31.4851 95.4825H37.1406L38.2236 98.1014H41.1894L35.7321 85.8984H32.9432ZM32.3769 93.3448L34.3164 88.6731L36.2488 93.3448H32.3699H32.3769Z" fill="#383838"/>
<path d="M53.3082 93.3094L47.2421 85.8984H44.9062V98.1085H47.6951V90.6975L53.7754 98.1085H56.097V85.8984H53.3082V93.3094Z" fill="#383838"/>
<path d="M3.93118 114.692H9.59382V112.498H3.93118V109.843H10.3441V107.578H1.12109V119.781H10.5706V117.516H3.93118V114.692Z" fill="#383838"/>
<path d="M25.0941 107.578H22.0292L19.2829 111.528L16.4799 107.578H13.2734L17.5558 113.566L13.0469 119.781H16.2887L19.1908 115.541L22.1283 119.781H25.3914L20.8401 113.474L25.0941 107.578Z" fill="#383838"/>
<path d="M36.3625 108.109C35.5697 107.755 34.6283 107.578 33.5382 107.578H28.2578V119.781H31.0821V116.419H33.5382C34.6283 116.419 35.5697 116.242 36.3625 115.888C37.1552 115.534 37.764 115.024 38.1957 114.359C38.6275 113.694 38.8399 112.915 38.8399 112.002C38.8399 111.089 38.6275 110.296 38.1957 109.631C37.764 108.965 37.1552 108.463 36.3625 108.102V108.109ZM35.3361 113.559C34.9043 113.934 34.2531 114.118 33.3825 114.118H31.0821V109.879H33.3825C34.2531 109.879 34.9043 110.063 35.3361 110.438C35.7679 110.813 35.9802 111.33 35.9802 112.009C35.9802 112.689 35.7679 113.191 35.3361 113.559Z" fill="#383838"/>
<path d="M50.6906 115.86C51.4834 115.513 52.0921 115.01 52.5239 114.352C52.9556 113.694 53.168 112.915 53.168 112.009C53.168 111.103 52.9556 110.303 52.5239 109.638C52.0921 108.973 51.4834 108.47 50.6906 108.109C49.8978 107.755 48.9564 107.578 47.8663 107.578H42.5859V119.781H45.4102V116.384H47.8663C47.9088 116.384 47.9513 116.384 47.9938 116.384L50.3367 119.788H53.3874L50.6623 115.874C50.6623 115.874 50.6764 115.874 50.6835 115.867L50.6906 115.86ZM49.6642 110.438C50.096 110.813 50.3084 111.33 50.3084 112.009C50.3084 112.689 50.096 113.191 49.6642 113.573C49.2325 113.949 48.5813 114.14 47.7106 114.14H45.4102V109.886H47.7106C48.5813 109.886 49.2325 110.07 49.6642 110.445V110.438Z" fill="#383838"/>
<path d="M59.9475 114.692H65.6173V112.498H59.9475V109.843H66.3676V107.578H57.1445V119.781H66.5941V117.516H59.9475V114.692Z" fill="#383838"/>
<path d="M78.3635 113.61C77.9459 113.355 77.4858 113.15 76.9762 113.002C76.4736 112.853 75.964 112.718 75.4614 112.598C74.9589 112.485 74.4917 112.364 74.0741 112.251C73.6565 112.138 73.3167 111.982 73.0619 111.791C72.8071 111.6 72.6797 111.345 72.6797 111.034C72.6797 110.765 72.7575 110.531 72.9062 110.326C73.0548 110.121 73.3096 109.958 73.6565 109.83C74.0033 109.703 74.4492 109.639 75.0013 109.639C75.5534 109.639 76.1055 109.717 76.6789 109.873C77.2522 110.029 77.8185 110.269 78.3848 110.595L79.2554 108.45C78.6891 108.089 78.0308 107.82 77.2876 107.636C76.5444 107.459 75.787 107.367 75.0226 107.367C73.8688 107.367 72.9132 107.537 72.1559 107.884C71.3985 108.231 70.8251 108.684 70.45 109.264C70.0748 109.838 69.8837 110.475 69.8837 111.175C69.8837 111.827 70.0182 112.364 70.273 112.782C70.5278 113.2 70.8747 113.539 71.2923 113.794C71.7099 114.049 72.17 114.261 72.6797 114.424C73.1822 114.587 73.6918 114.722 74.1944 114.835C74.697 114.948 75.1641 115.061 75.5818 115.182C75.9994 115.302 76.3391 115.458 76.5939 115.656C76.8488 115.847 76.9762 116.109 76.9762 116.434C76.9762 116.689 76.8912 116.916 76.7284 117.114C76.5656 117.312 76.3108 117.468 75.9711 117.574C75.6313 117.68 75.1783 117.737 74.6191 117.737C73.89 117.737 73.161 117.617 72.4461 117.376C71.7312 117.135 71.1153 116.831 70.5916 116.463L69.6289 118.593C70.1739 119.011 70.8959 119.351 71.7878 119.613C72.6796 119.875 73.6211 120.002 74.5979 120.002C75.7587 120.002 76.7214 119.825 77.4858 119.478C78.2503 119.131 78.8165 118.671 79.2058 118.098C79.5881 117.532 79.7792 116.902 79.7792 116.215C79.7792 115.578 79.6518 115.047 79.3899 114.63C79.128 114.212 78.7882 113.872 78.3706 113.617L78.3635 113.61Z" fill="#383838"/>
<path d="M91.2268 113.61C90.8092 113.355 90.3491 113.15 89.8395 113.002C89.3369 112.853 88.8273 112.718 88.3247 112.598C87.8221 112.485 87.355 112.364 86.9374 112.251C86.5197 112.138 86.18 111.982 85.9252 111.791C85.6703 111.6 85.5429 111.345 85.5429 111.034C85.5429 110.765 85.6208 110.531 85.7694 110.326C85.9181 110.121 86.1729 109.958 86.5197 109.83C86.8666 109.703 87.3125 109.639 87.8646 109.639C88.4167 109.639 88.9688 109.717 89.5422 109.873C90.1155 110.029 90.6818 110.269 91.248 110.595L92.1187 108.45C91.5524 108.089 90.8941 107.82 90.1509 107.636C89.4077 107.459 88.6503 107.367 87.8859 107.367C86.7321 107.367 85.7765 107.537 85.0191 107.884C84.2618 108.231 83.6884 108.684 83.3133 109.264C82.9381 109.838 82.747 110.475 82.747 111.175C82.747 111.827 82.8815 112.364 83.1363 112.782C83.3911 113.2 83.738 113.539 84.1556 113.794C84.5732 114.049 85.0333 114.261 85.5429 114.424C86.0455 114.587 86.5551 114.722 87.0577 114.835C87.5603 114.948 88.0274 115.061 88.445 115.182C88.8627 115.302 89.2024 115.458 89.4572 115.656C89.7121 115.847 89.8395 116.109 89.8395 116.434C89.8395 116.689 89.7545 116.916 89.5917 117.114C89.4289 117.312 89.1741 117.468 88.8343 117.574C88.4946 117.68 88.0416 117.737 87.4824 117.737C86.7533 117.737 86.0243 117.617 85.3094 117.376C84.5944 117.135 83.9786 116.831 83.4548 116.463L82.4922 118.593C83.0372 119.011 83.7592 119.351 84.6511 119.613C85.5429 119.875 86.4844 120.002 87.4612 120.002C88.622 120.002 89.5846 119.825 90.3491 119.478C91.1136 119.131 91.6798 118.671 92.0691 118.098C92.4514 117.532 92.6425 116.902 92.6425 116.215C92.6425 115.578 92.5151 115.047 92.2532 114.63C91.9913 114.212 91.6515 113.872 91.2339 113.617L91.2268 113.61Z" fill="#383838"/>
<path d="M109.219 116.221L106.431 107.578H103.819L100.938 116.157L98.1843 107.578H95.2539L99.2461 119.781H102.283L105.05 111.514L107.74 119.781H110.777L114.769 107.578H112.065L109.219 116.221Z" fill="#383838"/>
<path d="M121.514 107.578L116.07 119.781H118.965L120.055 117.162H125.711L126.794 119.781H129.76L124.302 107.578H121.514ZM120.947 115.024L122.887 110.353L124.819 115.024H120.94H120.947Z" fill="#383838"/>
<path d="M142.632 107.578H139.857L136.594 113L133.338 107.578H130.344L135.065 115.435V119.781H137.889V115.463L142.632 107.578Z" fill="#383838"/>
</svg>
