<svg width="636" height="128" viewBox="0 0 636 128" fill="none" xmlns="http://www.w3.org/2000/svg">
<g clip-path="url(#clip0_420_31)">
<path d="M5.248 25.4H25.344L34.304 89.528H34.56L43.52 25.4H63.616V115H50.304V47.16H50.048L39.808 115H28.032L17.792 47.16H17.536V115H5.248V25.4ZM85.003 25.4H104.075L118.667 115H104.587L102.027 97.208V97.464H86.027L83.467 115H70.411L85.003 25.4ZM100.363 85.304L94.091 41.016H93.835L87.691 85.304H100.363ZM125.498 25.4H139.578V102.2H162.746V115H125.498V25.4ZM180.878 25.4H199.95L214.542 115H200.462L197.902 97.208V97.464H181.902L179.342 115H166.286L180.878 25.4ZM196.238 85.304L189.966 41.016H189.71L183.566 85.304H196.238ZM228.426 76.856L211.402 25.4H226.378L235.978 58.296H236.234L245.834 25.4H259.53L242.506 76.856V115H228.426V76.856ZM282.177 116.28C275.35 116.28 270.188 114.36 266.689 110.52C263.19 106.595 261.441 101.005 261.441 93.752V88.632H274.753V94.776C274.753 100.579 277.185 103.48 282.049 103.48C284.438 103.48 286.23 102.797 287.425 101.432C288.705 99.9813 289.345 97.6773 289.345 94.52C289.345 90.7653 288.492 87.48 286.785 84.664C285.078 81.7627 281.921 78.3067 277.313 74.296C271.51 69.176 267.457 64.568 265.153 60.472C262.849 56.2907 261.697 51.5973 261.697 46.392C261.697 39.3093 263.489 33.848 267.073 30.008C270.657 26.0827 275.862 24.12 282.689 24.12C289.43 24.12 294.508 26.0827 297.921 30.008C301.42 33.848 303.169 39.3947 303.169 46.648V50.36H289.857V45.752C289.857 42.68 289.26 40.4613 288.065 39.096C286.87 37.6453 285.121 36.92 282.817 36.92C278.124 36.92 275.777 39.7787 275.777 45.496C275.777 48.7387 276.63 51.768 278.337 54.584C280.129 57.4 283.329 60.8133 287.937 64.824C293.825 69.944 297.878 74.5947 300.097 78.776C302.316 82.9573 303.425 87.864 303.425 93.496C303.425 100.835 301.59 106.467 297.921 110.392C294.337 114.317 289.089 116.28 282.177 116.28ZM311.498 25.4H325.578V115H311.498V25.4ZM347.003 25.4H366.075L380.667 115H366.587L364.027 97.208V97.464H348.027L345.467 115H332.411L347.003 25.4ZM362.363 85.304L356.091 41.016H355.835L349.691 85.304H362.363Z" fill="url(#paint0_linear_420_31)"/>
<path d="M410.168 37.264L410.024 46.96L414.872 47.056L419.96 46.912L420.296 47.344L419.912 51.088L414.44 50.944L409.976 50.992L409.928 54.304L410.168 64H405.128L405.464 54.736L405.128 33.184H422.36L422.696 33.616L422.312 37.504L415.112 37.216L410.168 37.264ZM438.025 32.8C442.281 32.8 445.561 34.112 447.865 36.736C450.169 39.36 451.321 43.104 451.321 47.968C451.321 53.216 450.089 57.28 447.625 60.16C445.161 63.008 441.657 64.432 437.113 64.432C432.889 64.432 429.625 63.088 427.321 60.4C425.049 57.68 423.913 53.84 423.913 48.88C423.913 43.728 425.129 39.76 427.561 36.976C430.025 34.192 433.513 32.8 438.025 32.8ZM437.641 36.832C434.729 36.832 432.553 37.776 431.113 39.664C429.705 41.52 429.001 44.4 429.001 48.304C429.001 52.56 429.689 55.68 431.065 57.664C432.473 59.616 434.633 60.592 437.545 60.592C440.489 60.592 442.665 59.648 444.073 57.76C445.481 55.872 446.185 52.928 446.185 48.928C446.185 44.736 445.481 41.68 444.073 39.76C442.697 37.808 440.553 36.832 437.641 36.832ZM479.818 48.832L479.77 52.48C479.834 56.256 478.81 59.184 476.698 61.264C474.586 63.344 471.594 64.384 467.722 64.384C463.978 64.384 461.114 63.392 459.13 61.408C457.146 59.392 456.186 56.544 456.25 52.864L456.346 48.592L456.25 33.184H461.146L460.954 52.192C460.922 54.88 461.498 56.88 462.682 58.192C463.866 59.504 465.658 60.16 468.058 60.16C472.858 60.16 475.242 57.664 475.21 52.672L474.97 33.184H479.962L479.818 48.832ZM511.827 54.784L511.971 64H506.643L492.147 40.912H491.811L491.763 53.68L491.907 64H487.395L487.635 54.88L487.443 33.184H492.675L507.219 56.272H507.603L507.507 33.424L512.115 33.088L511.827 54.784ZM532.106 32.992C536.522 32.992 539.914 34.24 542.282 36.736C544.65 39.232 545.834 42.816 545.834 47.488C545.834 52.896 544.538 57.056 541.946 59.968C539.354 62.848 535.626 64.288 530.762 64.288C529.386 64.288 527.738 64.256 525.818 64.192C523.898 64.16 522.106 64.096 520.442 64H520.394L520.73 54.736L520.394 33.184H520.442L532.106 32.992ZM531.626 60.352C534.57 60.352 536.81 59.376 538.346 57.424C539.914 55.472 540.698 52.528 540.698 48.592C540.698 44.624 539.946 41.712 538.442 39.856C536.97 37.968 534.73 37.024 531.722 37.024C529.962 37.024 527.866 37.088 525.434 37.216L525.194 54.304L525.338 60.016C526.49 60.112 527.642 60.192 528.794 60.256C529.946 60.32 530.89 60.352 531.626 60.352ZM556.319 54.304L556.559 64H551.519L551.855 54.736L551.519 33.184H556.607L556.319 54.304ZM589.405 54.784L589.549 64H584.221L569.725 40.912H569.389L569.341 53.68L569.485 64H564.973L565.213 54.88L565.021 33.184H570.253L584.797 56.272H585.181L585.085 33.424L589.693 33.088L589.405 54.784ZM610.276 32.848C613.508 32.848 616.516 33.536 619.3 34.912L618.292 39.52L617.764 39.568C616.196 38.64 614.772 37.984 613.492 37.6C612.212 37.184 610.868 36.976 609.46 36.976C606.26 36.976 603.876 37.952 602.308 39.904C600.74 41.824 599.956 44.864 599.956 49.024C599.956 52.992 600.692 55.872 602.164 57.664C603.636 59.424 605.972 60.304 609.172 60.304C609.972 60.304 610.756 60.24 611.524 60.112C612.324 59.952 613.316 59.696 614.5 59.344L614.644 56.224L614.5 51.472L619.156 51.136L619.06 55.456L619.204 62.512C615.236 63.76 611.796 64.384 608.884 64.384C604.18 64.384 600.66 63.088 598.324 60.496C595.988 57.872 594.82 54.128 594.82 49.264C594.82 43.952 596.148 39.888 598.804 37.072C601.492 34.256 605.316 32.848 610.276 32.848Z" fill="#24245A"/>
<path d="M436.376 115H431.96L431.336 105.64L429.896 91.72H429.56L421.64 111.592H417.704L410.36 91.72H409.928L408.488 105.208L407.72 115H403.544L406.76 84.184H412.424L413.864 88.792L419.768 105.16H420.152L426.392 88.648L427.832 84.184H433.448L436.376 115ZM461.384 110.776L461.672 111.208L461.336 115H443.144L443.48 105.736L443.144 84.184H461.432L461.72 84.616L461.336 88.408L454.04 88.216L448.184 88.264L448.04 97.24L453.608 97.336L458.696 97.192L459.032 97.576L458.648 101.368L453.224 101.224L447.992 101.32L447.944 105.304L448.088 110.968L453.944 111.016L461.384 110.776ZM498.064 115H493.648L493.024 105.64L491.584 91.72H491.248L483.328 111.592H479.392L472.048 91.72H471.616L470.176 105.208L469.408 115H465.232L468.448 84.184H474.112L475.552 88.792L481.456 105.16H481.84L488.08 88.648L489.52 84.184H495.136L498.064 115ZM519.231 98.968C521.375 99.416 522.959 100.264 523.983 101.512C525.039 102.728 525.567 104.344 525.567 106.36C525.567 112.248 521.167 115.192 512.367 115.192C509.327 115.192 506.831 115.128 504.879 115H504.831L505.167 105.736L504.831 84.184L514.431 84.136C517.407 84.136 519.711 84.792 521.343 86.104C523.007 87.384 523.839 89.256 523.839 91.72C523.839 93.448 523.439 94.936 522.639 96.184C521.839 97.4 520.703 98.328 519.231 98.968ZM518.751 92.296C518.751 90.76 518.319 89.656 517.455 88.984C516.591 88.312 515.135 87.976 513.087 87.976H509.823L509.679 97.432L514.623 97.576C516.031 97.224 517.071 96.632 517.743 95.8C518.415 94.936 518.751 93.768 518.751 92.296ZM513.183 111.352C515.551 111.352 517.375 110.904 518.655 110.008C519.935 109.112 520.575 107.8 520.575 106.072C520.575 103.32 518.799 101.704 515.247 101.224L509.631 101.272L509.583 105.304L509.727 111.208C510.975 111.304 512.127 111.352 513.183 111.352ZM549.649 110.776L549.937 111.208L549.601 115H531.409L531.745 105.736L531.409 84.184H549.697L549.985 84.616L549.601 88.408L542.305 88.216L536.449 88.264L536.305 97.24L541.873 97.336L546.961 97.192L547.297 97.576L546.913 101.368L541.489 101.224L536.257 101.32L536.209 105.304L536.353 110.968L542.209 111.016L549.649 110.776ZM569.193 102.664C571.369 106.152 573.945 109.88 576.921 113.848L576.873 114.424C575.337 114.936 573.753 115.272 572.121 115.432L571.545 115.048C568.889 110.696 566.745 107.016 565.113 104.008H559.881V105.304L560.121 115H555.081L555.417 105.736L555.081 84.184L565.545 84.136C568.649 84.136 571.049 84.92 572.745 86.488C574.441 88.024 575.289 90.232 575.289 93.112C575.289 95.16 574.745 97.016 573.657 98.68C572.601 100.312 571.113 101.64 569.193 102.664ZM559.977 99.976L565.257 100.12C568.489 99.128 570.105 96.92 570.105 93.496C570.105 91.704 569.609 90.36 568.617 89.464C567.657 88.568 566.185 88.088 564.201 88.024L560.121 88.168L559.977 99.976Z" fill="#24245A"/>
</g>
<defs>
<linearGradient id="paint0_linear_420_31" x1="64.3882" y1="107.5" x2="359.925" y2="-70.8025" gradientUnits="userSpaceOnUse">
<stop stop-color="#FFA800"/>
<stop offset="1" stop-color="#24245A"/>
</linearGradient>
<clipPath id="clip0_420_31">
<rect width="636" height="128" fill="white"/>
</clipPath>
</defs>
</svg>
