<svg width="75" height="63" viewBox="0 0 75 63" fill="none" xmlns="http://www.w3.org/2000/svg">
<g clip-path="url(#clip0_433_47)">
<path d="M54.8232 45.413C53.6781 45.413 52.5586 45.0734 51.6065 44.4372C50.6543 43.801 49.9122 42.8967 49.474 41.8387C49.0357 40.7808 48.921 39.6166 49.1445 38.4934C49.3679 37.3703 49.9193 36.3386 50.7291 35.5289C51.5388 34.7191 52.5705 34.1677 53.6936 33.9443C54.8168 33.7209 55.981 33.8355 57.039 34.2737C58.0969 34.712 59.0012 35.4541 59.6374 36.4063C60.2736 37.3584 60.6132 38.4779 60.6132 39.623C60.6106 41.1578 59.9997 42.629 58.9144 43.7142C57.8292 44.7995 56.358 45.4104 54.8232 45.413Z" fill="#FFA800"/>
<path d="M54.8221 47.0081C52.4937 47.0123 50.2619 47.9391 48.6155 49.5855C46.9691 51.2319 46.0423 53.4637 46.0381 55.7921V58.9921C47.268 59.671 48.5728 60.2042 49.9261 60.5811H59.7161C61.0704 60.2039 62.3762 59.6703 63.6071 58.9911V55.7911C63.6042 53.4622 62.6776 51.2296 61.0307 49.5831C59.3837 47.9365 57.1509 47.0104 54.8221 47.0081Z" fill="#FFA800"/>
<path d="M54.8212 22.4681C51.2743 22.469 47.7913 23.4118 44.7282 25.2001C41.7583 26.9385 39.2803 29.4051 37.5282 32.3671L37.1282 33.0491L17.4202 24.5491L17.5412 23.8491C17.723 22.8372 17.723 21.801 17.5412 20.7891L17.4202 20.0891L37.4702 11.4451L37.8982 11.9711C39.0202 13.3506 40.6035 14.2776 42.3557 14.5808C44.1078 14.8841 45.9105 14.543 47.4309 13.6207C48.9512 12.6984 50.0864 11.2571 50.6269 9.56302C51.1674 7.86894 51.0767 6.0365 50.3714 4.40411C49.6662 2.77173 48.3941 1.44966 46.7901 0.682088C45.186 -0.0854889 43.3585 -0.246733 41.6448 0.228135C39.9312 0.703003 38.4472 1.78191 37.4671 3.26559C36.4869 4.74928 36.0767 6.53752 36.3122 8.30007L36.4002 8.97407L16.3472 17.6131L15.9232 17.0451C14.8147 15.5545 13.2646 14.4512 11.4932 13.892C9.72183 13.3328 7.81925 13.346 6.05582 13.9299C4.29239 14.5137 2.75782 15.6385 1.67016 17.1443C0.582494 18.6502 -0.00292969 20.4605 -0.00292969 22.3181C-0.00292969 24.1756 0.582494 25.986 1.67016 27.4918C2.75782 28.9976 4.29239 30.1224 6.05582 30.7063C7.81925 31.2901 9.72183 31.3034 11.4932 30.7441C13.2646 30.1849 14.8147 29.0816 15.9232 27.5911L16.3472 27.0231L36.0082 35.5001L35.7502 36.2821C34.4277 40.3117 34.4156 44.6567 35.7156 48.6937C37.0157 52.7306 39.5612 56.252 42.9868 58.7525C46.4124 61.253 50.542 62.6042 54.7831 62.612C59.0242 62.6199 63.1589 61.2841 66.5937 58.7963C70.0285 56.3085 72.5871 52.7966 73.9021 48.7645C75.2172 44.7325 75.2212 40.3874 73.9136 36.3529C72.606 32.3184 70.054 28.8017 66.6237 26.3076C63.1935 23.8135 59.0614 22.47 54.8202 22.4701L54.8212 22.4681ZM43.5872 2.70007C44.5055 2.70007 45.4032 2.97238 46.1667 3.48256C46.9303 3.99274 47.5254 4.71788 47.8768 5.56627C48.2282 6.41467 48.3202 7.34822 48.141 8.24888C47.9619 9.14953 47.5197 9.97683 46.8703 10.6262C46.221 11.2755 45.3937 11.7177 44.493 11.8969C43.5924 12.076 42.6588 11.9841 41.8104 11.6326C40.962 11.2812 40.2369 10.6861 39.7267 9.92259C39.2165 9.15905 38.9442 8.26137 38.9442 7.34307C38.9458 6.11216 39.4355 4.93211 40.3059 4.06173C41.1763 3.19134 42.3563 2.70166 43.5872 2.70007ZM8.83723 28.4591C7.62266 28.4591 6.43536 28.0989 5.42547 27.4241C4.41559 26.7493 3.62848 25.7903 3.16369 24.6681C2.69889 23.546 2.57728 22.3113 2.81423 21.12C3.05118 19.9288 3.63605 18.8346 4.49489 17.9757C5.35372 17.1169 6.44794 16.532 7.63918 16.2951C8.83042 16.0581 10.0652 16.1797 11.1873 16.6445C12.3094 17.1093 13.2685 17.8964 13.9433 18.9063C14.6181 19.9162 14.9782 21.1035 14.9782 22.3181C14.9764 23.9462 14.3288 25.5071 13.1775 26.6584C12.0263 27.8096 10.4654 28.4572 8.83723 28.4591ZM67.0652 54.9001L66.6832 55.3281L66.6702 55.2771C66.5852 55.3561 66.4992 55.4341 66.4122 55.5111C66.3602 55.5591 66.3062 55.6111 66.2522 55.6521C66.1322 55.7581 66.0092 55.8621 65.8852 55.9641C65.8252 56.0131 65.7652 56.0641 65.7042 56.1111C65.4942 56.2791 65.2792 56.4441 65.0602 56.6021L64.7982 56.7891L64.7642 56.8131C64.6732 56.8761 64.5812 56.9391 64.4882 57.0001L64.4782 57.0071C64.3852 57.0681 64.2922 57.1301 64.1962 57.1901C64.1216 57.2394 64.0452 57.2874 63.9672 57.3341C63.9182 57.3651 63.8672 57.3951 63.8202 57.4241C63.7392 57.4731 63.6572 57.5241 63.5742 57.5691C63.4912 57.6141 63.3902 57.6751 63.2972 57.7261C63.2042 57.7771 63.1222 57.8261 63.0352 57.8701L62.9442 57.9181C62.8572 57.9661 62.7692 58.0111 62.6792 58.0541C62.5892 58.0971 62.4792 58.1541 62.3792 58.2011C62.3573 58.2102 62.336 58.2206 62.3152 58.2321L62.0422 58.3581C61.9362 58.4071 61.8282 58.4581 61.7202 58.5001C61.5042 58.5947 61.2866 58.6831 61.0672 58.7651L60.7792 58.8711C60.7032 58.8991 60.6252 58.9281 60.5472 58.9531C60.4862 58.9751 60.4242 58.9961 60.3612 59.0161L60.0962 59.1031C59.7862 59.2017 59.4726 59.2907 59.1552 59.3701C58.1925 59.6165 57.2101 59.7784 56.2192 59.8541L55.9512 59.8731C55.8632 59.8801 55.7742 59.8851 55.6862 59.8881C55.5982 59.8911 55.5082 59.8971 55.4192 59.9001C55.4053 59.9016 55.3912 59.9016 55.3772 59.9001C55.3012 59.9001 55.2242 59.9061 55.1462 59.9001C55.0489 59.9001 54.9516 59.9001 54.8542 59.9001H54.8172C54.6812 59.9001 54.5432 59.9001 54.4072 59.8941L54.1072 59.8841C53.9142 59.8771 53.7222 59.8661 53.5302 59.8511C53.4302 59.8451 53.3402 59.8361 53.2442 59.8271L52.9862 59.8021C50.5683 59.5482 48.2311 58.7874 46.1272 57.5691L45.6792 57.3101V57.3001C45.5052 57.1921 45.3332 57.0801 45.1622 56.9641C44.389 56.446 43.6596 55.8653 42.9812 55.2281L42.9532 55.3341L41.8452 54.0891C39.6372 51.6141 38.1843 48.5585 37.6582 45.2838C37.1321 42.009 37.555 38.6521 38.8767 35.6101C40.1984 32.5681 42.3637 29.9683 45.1165 28.1181C47.8693 26.268 51.0943 25.245 54.4102 25.1701C54.5582 25.1701 54.7102 25.1641 54.8582 25.1641C55.0062 25.1641 55.1322 25.1641 55.2682 25.1701C58.6778 25.2505 61.9882 26.3327 64.7869 28.2818C67.5856 30.2308 69.7487 32.9605 71.0066 36.1306C72.2645 39.3006 72.5615 42.7708 71.8606 46.1085C71.1597 49.4462 69.492 52.5038 67.0652 54.9001Z" fill="white"/>
</g>
<defs>
<clipPath id="clip0_433_47">
<rect width="74.892" height="62.609" fill="white"/>
</clipPath>
</defs>
</svg>
